<svg version="1.1" id="Layer_1" xmlns="http://www.w3.org/2000/svg" xmlns:xlink="http://www.w3.org/1999/xlink" x="0px" y="0px"
	 width="100%" viewBox="0 0 257 261" enable-background="new 0 0 257 261" xml:space="preserve">
<path fill="#FEFEFE" opacity="1.000000" stroke="none" 
	d="
M1.000000,91.000000 
	C1.000000,60.666676 1.000000,30.833347 1.000000,1.000011 
	C85.333305,1.000000 169.666656,1.026616 253.999786,0.904071 
	C257.423889,0.899096 258.100922,1.575597 258.095947,5.000056 
	C257.973358,89.333191 257.973389,173.666580 258.095917,257.999695 
	C258.100891,261.423676 257.424652,262.101105 254.000015,262.096008 
	C171.000214,261.972961 88.000153,261.972961 5.000347,262.095947 
	C1.576488,262.101013 0.894313,261.425476 0.902793,257.999969 
	C1.040187,202.500244 1.000000,147.000076 1.000000,91.000000 
z"/>
<path fill="#263696" opacity="1.000000" stroke="none" 
	d="
M245.938797,100.076210 
	C261.218353,163.025635 228.045853,227.371307 169.460007,248.978912 
	C101.051903,274.209137 25.535610,233.038040 9.021822,161.508835 
	C-5.072237,100.460648 24.979210,39.322044 80.722816,15.635730 
	C138.867676,-9.070917 206.548218,15.749290 235.334717,72.262283 
	C239.809631,81.047356 243.301315,90.167809 245.938797,100.076210 
z"/>
<path fill="#E4E6F1" opacity="1.000000" stroke="none" 
	d="
M205.587738,38.402435 
	C258.969177,87.107445 261.139923,170.551041 210.557236,219.613144 
	C154.154068,274.320740 64.783493,261.963654 24.900736,193.942810 
	C-16.821739,122.784279 22.130772,29.625948 101.530838,11.721119 
	C140.302521,2.978047 175.030655,12.456237 205.587738,38.402435 
z"/>
<path fill="#14258D" opacity="1.000000" stroke="none" 
	d="
M14.389510,162.418137 
	C6.184705,126.924088 10.431681,93.580498 30.952745,63.669960 
	C57.983692,24.270914 96.101234,5.871209 143.532257,12.541732 
	C190.636978,19.166363 222.496994,47.052277 238.020370,91.854614 
	C260.896332,157.877457 224.192245,228.447571 158.268417,247.204208 
	C98.297760,264.267059 35.207085,229.163040 16.054949,168.069962 
	C15.508615,166.327225 15.030895,164.562988 14.389510,162.418137 
z"/>
<path fill="#E3E5F1" opacity="1.000000" stroke="none" 
	d="
M208.122818,108.891006 
	C222.406342,160.212128 188.137268,212.155716 135.951187,218.805298 
	C94.171898,224.128860 53.656620,194.759033 44.009514,152.156097 
	C32.814251,102.716255 64.056274,54.854176 113.993980,46.475151 
	C154.501328,39.678448 193.695999,64.473656 207.054321,105.142006 
	C207.417191,106.246727 207.716751,107.372253 208.122818,108.891006 
z"/>
<path fill="#ECEEF5" opacity="1.000000" stroke="none" 
	d="
M34.241455,96.734283 
	C33.424114,100.931221 31.400515,101.342964 27.118958,98.433510 
	C27.605068,96.843979 31.108086,98.922577 30.269953,96.051483 
	C29.527407,93.507828 29.670200,90.354012 26.353756,89.094955 
	C25.009562,88.584641 22.266272,89.542305 22.624224,87.051025 
	C22.903303,85.108688 24.811211,83.849770 27.139910,84.722519 
	C29.511976,85.611511 28.902056,83.581993 29.294914,82.570427 
	C29.706923,81.509537 29.799435,80.018456 31.202806,79.971741 
	C32.762417,79.919838 32.627502,81.481567 32.877392,82.531052 
	C33.313950,84.364471 33.187180,86.742561 36.281116,85.698547 
	C36.270649,90.398354 40.492264,92.364494 42.931683,95.527451 
	C40.558022,97.264053 37.574295,93.021629 35.409252,96.790146 
	C34.851242,96.759308 34.656963,96.496910 34.403698,96.339111 
	C33.968113,96.067726 33.854736,96.161140 34.241455,96.734283 
z"/>
<path fill="#EBECF5" opacity="1.000000" stroke="none" 
	d="
M73.201294,56.120193 
	C71.265656,56.144028 69.567703,56.051918 67.443756,55.926441 
	C66.867699,55.722546 66.717644,55.552021 66.476059,55.053169 
	C65.305740,52.741917 66.777763,49.740982 63.567238,48.513512 
	C62.531849,48.488392 61.969933,48.205429 61.790760,47.189468 
	C61.803143,44.230247 61.627087,41.576916 63.620331,39.130386 
	C64.451584,39.977520 63.649990,42.165718 64.814575,41.909580 
	C67.869278,41.237728 68.991936,43.403515 70.577850,44.938377 
	C72.417580,46.718887 72.740982,43.415340 74.573700,44.007309 
	C75.124802,44.179928 75.264725,44.316372 75.328209,44.735825 
	C74.275856,46.503849 73.974396,47.998192 75.287674,49.448921 
	C76.741348,51.054733 75.527008,52.079479 74.637726,53.759239 
	C74.558403,54.650196 74.352768,54.935104 73.970581,55.417675 
	C73.685234,55.751877 73.562111,55.878067 73.201294,56.120193 
z"/>
<path fill="#E9EBF4" opacity="1.000000" stroke="none" 
	d="
M126.203995,29.233011 
	C128.022995,28.167686 128.147690,26.569134 128.144104,24.642637 
	C128.140945,22.951237 128.740936,21.258715 129.074524,19.566689 
	C131.002090,20.062519 132.002228,17.186569 133.837570,18.072954 
	C135.406418,18.830631 134.757156,20.668653 135.075775,22.065670 
	C136.526230,28.425180 132.742401,33.650467 131.012421,39.487034 
	C130.885742,36.729893 130.759064,33.972752 130.652618,31.655569 
	C129.665222,29.425627 125.829216,34.804600 126.203995,29.233011 
z"/>
<path fill="#E3E5F1" opacity="1.000000" stroke="none" 
	d="
M120.520378,24.909040 
	C121.188057,25.200165 121.610352,25.565928 121.681633,25.507010 
	C126.275948,21.709602 125.787125,25.321829 125.857635,28.607201 
	C125.968170,28.934460 125.999763,28.868828 126.028786,28.843185 
	C122.349113,30.355150 125.884804,33.627064 124.444206,35.705391 
	C122.422836,36.185562 122.719566,34.121002 121.825966,33.429863 
	C120.341209,32.281532 119.867317,34.850773 118.504387,34.493961 
	C118.031937,31.613659 118.007401,31.548210 121.326309,30.303852 
	C122.276787,29.947491 122.038780,29.324175 122.023293,28.791277 
	C121.973930,27.092398 120.676476,27.100153 119.532486,27.288244 
	C117.887199,27.558756 115.927902,28.451689 117.540726,25.138510 
	C118.138992,24.773224 118.442062,24.629904 118.998856,24.458393 
	C119.576027,24.427389 119.866386,24.554724 120.520378,24.909040 
z"/>
<path fill="#F1F2F8" opacity="1.000000" stroke="none" 
	d="
M215.338699,80.486580 
	C212.345520,81.088356 210.323242,83.455521 207.353577,83.363724 
	C206.333145,83.332176 205.230438,84.763710 204.253662,83.463974 
	C203.272430,82.158287 204.254059,80.912163 204.877594,79.815315 
	C206.535507,76.898911 213.533600,75.868942 216.380264,78.418060 
	C216.415497,79.433151 216.071426,79.920670 215.338699,80.486580 
z"/>
<path fill="#DCDEEE" opacity="1.000000" stroke="none" 
	d="
M216.777161,87.427612 
	C217.450836,86.564850 219.739044,87.272789 218.230957,85.638084 
	C216.877090,84.170555 217.893143,83.303589 218.257080,81.819611 
	C218.188522,81.464760 218.274368,81.000877 218.509735,80.985107 
	C221.872879,81.285057 223.780182,83.351112 225.726471,85.307648 
	C225.364563,85.293610 225.291321,85.733604 225.982956,86.592270 
	C226.075897,87.098900 225.928940,87.268959 225.492157,87.572189 
	C222.367157,88.319931 225.561981,89.058899 225.225479,90.068512 
	C225.143356,90.880661 224.837021,91.204010 224.068542,91.274979 
	C222.773972,90.806099 221.805740,90.466942 220.524460,90.095062 
	C217.908981,91.079094 216.899918,89.991257 216.777161,87.427612 
z"/>
<path fill="#C5C9E3" opacity="1.000000" stroke="none" 
	d="
M136.152008,229.847076 
	C133.457321,229.488434 133.784775,231.314224 133.767044,232.726334 
	C133.731979,235.519684 133.735977,238.315323 133.814453,241.107468 
	C133.848343,242.313431 133.514938,242.987427 132.209885,242.895416 
	C131.107147,242.817673 131.007233,242.075180 131.006607,241.187012 
	C131.004425,238.084518 130.798248,235.024643 130.359802,231.921509 
	C129.829849,228.170532 133.072342,229.277771 135.593231,229.117462 
	C136.121811,229.250702 136.232483,229.426147 136.152008,229.847076 
z"/>
<path fill="#273696" opacity="1.000000" stroke="none" 
	d="
M191.738983,203.589783 
	C192.301315,202.862930 192.683075,202.464066 193.358795,202.052444 
	C198.775787,202.399292 200.675079,206.573578 203.097382,210.437134 
	C202.746368,211.819992 202.117477,212.533310 200.839142,212.966324 
	C196.288376,211.223587 193.270737,208.215988 191.738983,203.589783 
z"/>
<path fill="#E3E5F1" opacity="1.000000" stroke="none" 
	d="
M204.505951,197.037231 
	C203.158615,196.694595 202.162903,196.481613 201.336945,195.985825 
	C200.784195,195.654022 199.482697,196.290848 199.698273,194.930817 
	C199.832779,194.082275 200.452759,193.043228 201.229507,193.209198 
	C205.350784,194.089951 210.183258,192.409943 214.218430,197.046555 
	C210.629822,197.046555 207.779816,197.046555 204.505951,197.037231 
z"/>
<path fill="#D8DBEC" opacity="1.000000" stroke="none" 
	d="
M203.362381,210.691727 
	C200.725403,207.352768 197.374252,204.944000 193.994080,202.129120 
	C193.816971,200.983490 194.666092,199.697357 195.388351,200.177856 
	C197.341263,201.477051 198.989212,203.182739 201.659454,202.509140 
	C201.768127,202.481735 202.337219,203.444763 202.239975,203.557800 
	C199.525711,206.713989 204.169312,206.176468 204.651947,207.873795 
	C205.895508,209.448608 204.160980,209.715881 203.362381,210.691727 
z"/>
<path fill="#D3D6E9" opacity="1.000000" stroke="none" 
	d="
M76.800812,228.279266 
	C73.950478,223.104065 77.778748,221.006256 80.914276,217.838943 
	C81.239784,222.501251 79.459854,226.122864 79.036400,229.941971 
	C78.913216,231.052979 78.286171,231.357941 77.372681,231.005051 
	C76.167168,230.539383 75.286339,229.856964 76.800812,228.279266 
z"/>
<path fill="#DCDEEE" opacity="1.000000" stroke="none" 
	d="
M219.121521,177.075470 
	C217.885712,178.753998 218.809814,179.360748 220.341446,180.129776 
	C221.572205,180.747726 224.378693,180.946518 222.811737,183.243042 
	C221.884872,184.601456 220.383057,182.616974 219.172394,182.138290 
	C216.265198,180.988846 213.443558,179.623077 210.551056,178.328323 
	C210.673752,176.909180 211.307739,175.633514 212.448563,174.546692 
	C213.389023,178.531403 215.994980,178.023254 219.121521,177.075470 
z"/>
<path fill="#DCDEEE" opacity="1.000000" stroke="none" 
	d="
M165.729294,223.075317 
	C165.883408,223.837936 165.897980,224.632935 166.182343,224.745331 
	C169.870071,226.202972 167.871231,230.219971 169.729050,232.491852 
	C170.545837,233.490677 169.676544,233.918945 168.866501,234.210495 
	C168.315948,234.408646 167.581329,234.942795 167.291061,233.968979 
	C166.103653,229.985443 164.165878,226.340546 162.433731,222.594009 
	C162.079865,221.828568 163.536285,221.930389 164.627441,221.976303 
	C165.386154,222.143616 165.635559,222.384827 165.729294,223.075317 
z"/>
<path fill="#DEE1EE" opacity="1.000000" stroke="none" 
	d="
M53.108925,202.692474 
	C50.491680,202.565567 48.263527,202.701691 46.916527,205.634399 
	C46.693127,206.110046 46.568676,206.264282 46.246048,206.196945 
	C45.127426,205.210541 43.637791,204.489731 45.148460,203.116486 
	C47.800709,200.705490 50.606693,198.464554 53.306320,196.104385 
	C55.093433,194.541962 55.387493,196.344559 56.044579,197.660339 
	C55.035252,199.479050 53.657337,200.634583 53.108925,202.692474 
z"/>
<path fill="#DCDEEE" opacity="1.000000" stroke="none" 
	d="
M37.748272,187.807388 
	C40.062271,186.457855 41.984283,185.134476 44.067421,184.153107 
	C44.686188,183.861603 44.949184,181.397629 46.393002,183.541336 
	C47.641472,185.395004 46.363277,185.651810 45.122028,186.302338 
	C42.929260,187.451523 40.912769,188.960144 38.667992,189.977386 
	C37.525333,190.495193 36.360756,193.365509 34.861488,190.746582 
	C33.253212,187.937241 37.129032,189.448608 37.748272,187.807388 
z"/>
<path fill="#DEE1EE" opacity="1.000000" stroke="none" 
	d="
M123.953514,233.843536 
	C123.889786,232.386414 121.771507,230.195312 124.112160,229.566574 
	C126.397179,228.952789 126.522301,231.488022 126.836060,232.933380 
	C127.489655,235.944244 130.591980,238.847290 127.378189,242.211594 
	C126.392990,239.417480 125.415993,236.646652 123.953514,233.843536 
z"/>
<path fill="#E3E5F1" opacity="1.000000" stroke="none" 
	d="
M64.941071,208.048401 
	C66.764168,207.183197 68.309624,207.553116 67.087692,209.493149 
	C65.075272,212.688232 62.459499,215.501587 60.122200,218.494690 
	C59.315598,219.527573 58.762379,218.718674 58.100834,218.322693 
	C56.907169,217.608215 57.697811,217.125992 58.217915,216.496689 
	C60.440765,213.807251 62.621006,211.082581 64.941071,208.048401 
z"/>
<path fill="#D8DBEC" opacity="1.000000" stroke="none" 
	d="
M193.353973,39.279572 
	C196.742050,39.320667 196.296204,42.611771 195.665100,42.473312 
	C191.534882,41.567158 190.958206,45.241459 188.608414,47.313839 
	C189.250488,44.392284 189.199692,42.106468 185.387177,41.740021 
	C184.679077,41.300961 184.543335,40.967087 184.783020,40.363327 
	C186.061020,40.209774 187.132812,40.257290 188.606995,40.270489 
	C190.217850,39.800602 191.518646,39.812954 193.353973,39.279572 
z"/>
<path fill="#D8DBEC" opacity="1.000000" stroke="none" 
	d="
M31.297623,181.448700 
	C29.598886,180.957764 28.145124,179.730927 29.696602,178.814819 
	C33.207336,176.741821 37.119286,175.342468 40.910595,173.771820 
	C41.062859,173.708740 41.649380,174.693909 42.015762,175.594971 
	C41.087502,177.536346 39.206646,177.973282 37.948174,179.606339 
	C37.550732,179.974304 37.379387,180.108078 36.904289,180.359161 
	C34.874844,180.512848 33.287369,181.219513 31.297623,181.448700 
z"/>
<path fill="#DEE1EE" opacity="1.000000" stroke="none" 
	d="
M42.694839,178.052643 
	C43.941105,180.908020 43.856846,180.740250 34.314209,185.532623 
	C31.717009,186.836960 31.721191,185.533020 31.194092,183.648407 
	C32.306168,181.241959 34.737289,181.436249 36.767109,180.184830 
	C37.046444,179.974457 36.987305,179.980469 36.973907,180.006989 
	C38.689186,179.161133 40.507938,178.531235 42.694839,178.052643 
z"/>
<path fill="#DCDEEE" opacity="1.000000" stroke="none" 
	d="
M136.102692,230.412964 
	C135.970123,229.923065 135.979401,229.753571 135.999908,229.329666 
	C141.117920,229.017014 139.940338,234.102554 142.006256,236.540253 
	C142.646088,237.295212 142.392899,238.770569 142.657822,239.890259 
	C142.905319,240.936340 143.113937,241.771210 141.584061,241.915405 
	C140.195801,242.046234 139.936844,241.463821 140.015594,240.227463 
	C140.253738,236.488968 137.813385,233.776733 136.102692,230.412964 
z"/>
<path fill="#E4E6F1" opacity="1.000000" stroke="none" 
	d="
M30.570820,168.252594 
	C28.414551,169.126923 27.503090,170.670837 26.551203,172.711258 
	C25.275732,169.514664 26.709476,167.696121 28.850004,166.376083 
	C31.770439,164.575089 34.836536,163.902771 38.489376,166.410675 
	C35.667950,167.420380 33.045387,166.772354 30.570820,168.252594 
z"/>
<path fill="#DCDEEE" opacity="1.000000" stroke="none" 
	d="
M208.938370,185.986572 
	C211.464294,189.057343 214.629959,190.287537 218.884583,190.704895 
	C215.432129,193.576141 212.883270,192.367752 210.558182,190.890564 
	C207.870163,189.182770 206.251877,186.784729 207.122009,183.309875 
	C208.526443,183.621124 208.023361,185.039810 208.938370,185.986572 
z"/>
<path fill="#D3D6E9" opacity="1.000000" stroke="none" 
	d="
M161.277405,233.626373 
	C161.027328,230.340439 159.594101,227.822189 158.095810,225.026581 
	C163.849243,226.668137 165.350174,232.151733 161.297318,237.186630 
	C161.297318,235.774399 161.297318,234.885254 161.277405,233.626373 
z"/>
<path fill="#223294" opacity="1.000000" stroke="none" 
	d="
M107.464233,227.967346 
	C108.225449,228.015884 108.512291,228.169464 108.855621,228.653702 
	C111.045967,232.980072 110.407883,236.534119 106.455246,239.722260 
	C105.614052,239.964630 105.128189,239.970337 104.277924,239.969925 
	C103.250008,235.516693 103.800873,231.386826 107.464233,227.967346 
z"/>
<path fill="#E4E6F1" opacity="1.000000" stroke="none" 
	d="
M117.893234,236.822418 
	C114.466721,236.002945 116.050323,239.035385 115.384575,240.097595 
	C114.916687,240.844131 115.226852,242.251038 113.772537,242.026932 
	C112.179916,241.781494 112.955017,240.532059 113.046227,239.694260 
	C113.439606,236.081161 113.905228,232.475922 114.494125,227.639328 
	C116.977310,231.066696 115.370552,234.633255 117.893234,236.822418 
z"/>
<path fill="#ECEEF5" opacity="1.000000" stroke="none" 
	d="
M216.610046,87.007866 
	C217.012451,88.716133 217.899399,89.654198 219.856339,90.023376 
	C220.254822,90.792282 221.607330,92.330078 219.966812,92.040604 
	C217.959778,91.686485 216.744293,93.148720 214.680649,93.163971 
	C213.797165,93.521080 213.380310,93.432182 213.048904,92.530380 
	C213.833588,90.173157 210.701462,90.617798 211.112976,88.660820 
	C212.387192,87.239128 214.864517,88.600624 216.610046,87.007866 
z"/>
<path fill="#E4E6F1" opacity="1.000000" stroke="none" 
	d="
M107.667709,227.654724 
	C104.884804,231.119644 105.572029,235.534134 103.967194,239.570801 
	C103.208542,239.507050 101.053802,241.522049 101.745041,238.672180 
	C102.526825,235.448975 103.525932,232.248383 103.943001,228.975830 
	C104.312096,226.079666 105.907288,227.045166 107.667709,227.654724 
z"/>
<path fill="#E9EBF4" opacity="1.000000" stroke="none" 
	d="
M191.642349,203.351807 
	C193.998474,206.896530 197.129593,209.597824 200.312134,212.733124 
	C199.710968,213.964157 199.298050,215.883957 197.543289,213.619339 
	C195.548096,211.044479 193.410614,208.429245 190.835815,206.496628 
	C188.281387,204.579315 190.987122,204.391373 191.642349,203.351807 
z"/>
<path fill="#E4E6F1" opacity="1.000000" stroke="none" 
	d="
M190.639404,218.318787 
	C191.537872,218.768127 192.607407,218.962448 192.651505,219.293365 
	C192.803436,220.433853 191.749359,220.382980 190.993561,220.385773 
	C186.787781,220.401398 183.633408,215.714661 184.282181,209.444229 
	C186.091965,213.042725 187.335983,216.278336 190.639404,218.318787 
z"/>
<path fill="#E4E6F1" opacity="1.000000" stroke="none" 
	d="
M57.891846,203.417114 
	C58.718338,203.073441 59.510021,202.744400 59.983322,203.001480 
	C61.628193,203.894958 59.889832,203.915848 59.564514,204.315659 
	C58.480000,205.648438 59.161247,207.141632 59.215897,208.564438 
	C59.319847,211.270599 58.744778,213.500076 55.328850,214.072266 
	C56.324894,212.350693 56.505657,210.514389 56.099361,208.525360 
	C55.712364,206.630814 56.351673,205.034348 57.891846,203.417114 
z"/>
<path fill="#E3E5F1" opacity="1.000000" stroke="none" 
	d="
M84.221497,228.597534 
	C83.988953,230.525467 83.865952,232.077850 83.690567,234.291245 
	C80.810875,231.217743 81.277260,228.436188 82.672539,225.700348 
	C83.808327,223.473328 85.100891,221.189804 88.975365,222.311584 
	C86.334824,223.740356 85.241158,225.920807 84.221497,228.597534 
z"/>
<path fill="#DEE1EE" opacity="1.000000" stroke="none" 
	d="
M155.823715,230.668091 
	C155.975708,233.143753 158.065613,234.662201 157.712509,237.014984 
	C152.518295,234.065720 151.616425,229.397995 155.905594,224.620529 
	C155.248444,226.987457 155.050125,228.665924 155.823715,230.668091 
z"/>
<path fill="#E4E6F1" opacity="1.000000" stroke="none" 
	d="
M219.042984,80.762939 
	C218.570374,81.014160 218.420792,81.101784 218.242416,81.348488 
	C217.171371,82.416878 216.145767,82.376709 215.090088,81.059250 
	C215.334991,80.096207 215.602768,79.564880 216.158783,78.906128 
	C218.282318,78.717949 219.180237,77.748367 219.040878,75.938095 
	C218.957718,74.857933 218.961212,73.856674 220.278473,73.681480 
	C221.495590,73.519623 221.878311,74.552742 222.402313,75.403793 
	C223.213394,76.721107 222.965530,77.641411 221.471710,78.006798 
	C220.069122,78.349869 219.963593,79.638626 219.042984,80.762939 
z"/>
<path fill="#D3D6E9" opacity="1.000000" stroke="none" 
	d="
M73.243752,56.416008 
	C72.967110,56.019844 72.970627,55.803551 73.002251,55.263985 
	C73.474754,54.556297 74.055290,54.531487 74.766800,54.148769 
	C74.955299,53.942802 74.892860,53.911312 74.886978,53.877373 
	C79.020332,53.643524 80.490685,51.772411 79.402344,48.089863 
	C83.544037,49.976238 83.881340,51.365467 80.628784,53.888718 
	C78.572968,55.483578 76.427376,57.106445 73.243752,56.416008 
z"/>
<path fill="#ECEEF5" opacity="1.000000" stroke="none" 
	d="
M96.692551,228.212646 
	C97.274643,227.164841 97.713676,226.485870 98.477013,225.305344 
	C99.602783,229.672485 98.601593,233.613708 98.870506,237.485031 
	C98.914085,238.112320 98.901550,238.836639 97.998032,238.887054 
	C97.155571,238.934067 96.341072,238.824173 96.252487,237.731125 
	C96.174744,236.772003 96.154312,235.808243 95.988815,234.439133 
	C95.747452,232.171478 95.948059,230.351456 96.692551,228.212646 
z"/>
<path fill="#F5F6F9" opacity="1.000000" stroke="none" 
	d="
M42.865067,199.091049 
	C43.937691,195.601944 45.026073,192.384979 46.287006,189.237152 
	C46.547840,188.585999 47.254189,187.729446 48.224422,187.984833 
	C49.283161,188.263535 49.330173,189.503799 48.985386,190.011658 
	C46.987209,192.954910 47.296299,197.098877 43.783180,199.527008 
	C43.302963,199.579254 43.122482,199.483490 42.865067,199.091049 
z"/>
<path fill="#EBECF5" opacity="1.000000" stroke="none" 
	d="
M106.473816,239.989670 
	C108.606674,236.977936 109.373047,233.523117 108.928436,229.300293 
	C113.120697,232.263367 112.042076,237.924789 106.473816,239.989670 
z"/>
<path fill="#E9EBF4" opacity="1.000000" stroke="none" 
	d="
M223.798721,167.495209 
	C224.706436,167.896271 226.249985,167.675064 225.558670,168.826950 
	C223.684692,171.949356 218.768402,172.602783 213.936295,169.620285 
	C218.507370,170.965775 220.495270,167.874512 223.798721,167.495209 
z"/>
<path fill="#33419B" opacity="1.000000" stroke="none" 
	d="
M53.367008,202.971252 
	C51.055904,200.034256 53.306591,199.059509 55.651367,198.014648 
	C55.993481,198.062317 55.941284,198.030090 55.942886,197.999466 
	C56.109215,198.325500 56.377319,198.440018 56.916985,198.141098 
	C59.585732,198.988358 58.679985,200.746735 58.064743,202.788742 
	C58.072628,203.133759 58.046509,203.027725 58.095428,203.053101 
	C56.696342,203.043304 55.248341,203.008148 53.367008,202.971252 
z"/>
<path fill="#E4E6F1" opacity="1.000000" stroke="none" 
	d="
M184.613159,40.067337 
	C184.988373,40.474361 184.981323,40.786327 184.976105,41.332069 
	C183.107254,41.359585 181.749100,42.530094 180.146805,43.623203 
	C179.068695,43.569988 176.902649,44.939342 177.351822,42.781826 
	C177.694565,41.135540 178.686020,38.905468 181.107880,38.929241 
	C182.154266,38.939510 183.194214,39.604717 184.613159,40.067337 
z"/>
<path fill="#D3D6E9" opacity="1.000000" stroke="none" 
	d="
M212.721222,92.178452 
	C213.295166,92.412544 213.548233,92.676147 214.053726,93.059486 
	C212.496964,94.821220 213.309097,95.997192 215.117020,96.660080 
	C215.926682,96.956947 216.874481,96.836578 216.264801,98.019760 
	C215.837433,98.849136 215.732361,100.119812 214.536911,100.246254 
	C213.571365,100.348381 213.146637,99.494453 212.989578,98.670525 
	C212.583176,96.538818 208.403397,94.735626 212.721222,92.178452 
z"/>
<path fill="#DCDEEE" opacity="1.000000" stroke="none" 
	d="
M183.011658,48.782021 
	C181.928757,50.360157 181.495743,51.881447 181.781342,53.618397 
	C182.057846,55.300159 180.727325,54.968933 179.887772,54.974419 
	C179.138992,54.979313 177.682755,55.631458 177.940857,54.031837 
	C178.047256,53.372406 175.712524,51.986172 178.474380,51.843567 
	C180.484650,51.739765 179.299683,48.618591 181.670776,48.135735 
	C182.354492,48.036034 182.666138,48.227718 183.011658,48.782021 
z"/>
<path fill="#F1F2F8" opacity="1.000000" stroke="none" 
	d="
M177.831543,217.838348 
	C180.995224,218.521088 184.679047,217.335419 186.296921,221.866211 
	C183.051468,221.038055 179.829834,222.004120 177.365387,218.933197 
	C177.288483,218.362671 177.375061,218.128723 177.831543,217.838348 
z"/>
<path fill="#DEE1EE" opacity="1.000000" stroke="none" 
	d="
M120.299423,25.168833 
	C119.551819,24.999107 119.064354,24.986355 118.211586,24.956160 
	C119.590630,22.587418 121.405296,20.283743 123.045784,17.862078 
	C123.730385,16.851490 124.387947,16.413960 125.378120,17.162703 
	C126.526596,18.031155 125.835533,18.711130 125.080383,19.504107 
	C123.615417,21.042435 122.284279,22.708212 120.913628,24.676888 
	C120.929565,25.032595 120.973442,24.973869 121.009537,24.967468 
	C120.883606,25.082649 120.721588,25.204227 120.299423,25.168833 
z"/>
<path fill="#273696" opacity="1.000000" stroke="none" 
	d="
M63.537285,48.308022 
	C63.985104,47.005527 64.093887,44.889221 65.343178,47.018898 
	C66.543098,49.064415 68.086388,51.440006 66.667763,54.571648 
	C66.457855,55.194366 66.347244,55.407310 65.994324,55.354080 
	C65.483353,54.529793 65.214676,53.971676 64.927101,53.095367 
	C64.741959,52.651897 64.575714,52.526615 64.176033,52.193966 
	C63.942593,51.986599 64.008926,51.987316 64.009880,52.020470 
	C63.338127,51.026695 62.948048,49.942600 63.537285,48.308022 
z"/>
<path fill="#223294" opacity="1.000000" stroke="none" 
	d="
M43.003761,177.772324 
	C41.381580,179.240372 40.017426,181.100082 37.270008,180.112030 
	C36.718128,176.870941 39.535278,177.078705 41.640797,176.054199 
	C42.328594,176.487091 42.659229,176.974899 43.003761,177.772324 
z"/>
<path fill="#223294" opacity="1.000000" stroke="none" 
	d="
M36.707573,179.879639 
	C36.490398,182.846832 33.971256,182.816833 31.521086,183.397751 
	C31.086393,182.909988 31.033571,182.477859 30.981487,181.719131 
	C32.547264,180.084503 33.919884,178.131805 36.707573,179.879639 
z"/>
<path fill="#33419B" opacity="1.000000" stroke="none" 
	d="
M65.693237,55.375793 
	C65.752022,55.087906 66.156654,55.007095 66.362564,54.994255 
	C66.687569,55.111576 66.806664,55.241734 66.971748,55.632481 
	C67.456573,57.833725 70.995453,58.159237 69.672966,60.971134 
	C69.547089,61.238781 68.684013,61.501797 68.541862,61.367157 
	C67.007179,59.913567 65.217628,58.570816 65.410950,56.089535 
	C65.422394,55.942665 65.557106,55.805408 65.693237,55.375793 
z"/>
<path fill="#E9EBF4" opacity="1.000000" stroke="none" 
	d="
M183.458252,48.977627 
	C182.812973,48.842155 182.523651,48.635345 182.105682,48.191925 
	C181.305069,46.831997 180.633102,45.708675 179.998581,44.242588 
	C180.036041,43.899826 179.982559,43.947529 179.958633,43.973724 
	C182.449966,44.669056 186.907150,43.802708 183.458252,48.977627 
z"/>
<path fill="#D8DBEC" opacity="1.000000" stroke="none" 
	d="
M66.539169,36.054764 
	C69.137566,32.666897 70.839783,33.119354 73.266586,38.272141 
	C71.163612,36.977257 69.846581,35.225277 67.388245,35.897163 
	C66.855148,36.088837 66.710625,36.215099 66.539169,36.054764 
z"/>
<path fill="#98A0CD" opacity="1.000000" stroke="none" 
	d="
M96.531288,228.024658 
	C96.911514,229.764435 97.403351,231.706314 96.205795,233.805405 
	C94.859108,233.705261 91.245255,235.411514 94.286728,231.915695 
	C95.177788,230.891525 95.593430,229.453720 96.531288,228.024658 
z"/>
<path fill="#C5C9E3" opacity="1.000000" stroke="none" 
	d="
M223.986176,91.407547 
	C224.050446,90.970413 224.358688,90.795570 224.821655,90.403381 
	C225.047836,89.384094 224.638168,88.689400 224.488342,87.648193 
	C224.787399,87.283127 225.073792,87.209465 225.791534,87.032318 
	C227.679962,87.605568 228.982346,88.716522 228.445908,90.322716 
	C227.793762,92.275360 225.948944,92.160988 223.986176,91.407547 
z"/>
<path fill="#D3D6E9" opacity="1.000000" stroke="none" 
	d="
M226.007370,84.979828 
	C226.667542,83.398788 227.116852,81.209320 229.537567,82.451088 
	C230.315842,82.850311 230.493210,84.586617 229.635376,85.522614 
	C228.498199,86.763359 227.712067,85.067696 226.331665,84.928322 
	C225.949829,84.933716 226.003494,84.951874 226.007370,84.979828 
z"/>
<path fill="#33419B" opacity="1.000000" stroke="none" 
	d="
M34.538765,97.010895 
	C32.003361,96.951035 31.963547,95.289772 32.063187,93.634247 
	C32.077553,93.395569 32.752441,92.999222 33.110714,93.010925 
	C35.319180,93.083054 34.840542,94.797638 35.018826,96.546936 
	C35.099461,96.945038 34.727104,97.061951 34.538765,97.010895 
z"/>
<path fill="#FAFAFC" opacity="1.000000" stroke="none" 
	d="
M186.994812,35.093369 
	C186.791611,36.920639 185.899734,37.580921 184.641464,37.091290 
	C183.550369,36.666718 183.620331,35.491173 184.090866,34.603287 
	C184.662445,33.524696 185.212021,32.174049 186.776627,32.432842 
	C186.972076,32.465172 186.936737,33.892719 186.994812,35.093369 
z"/>
<path fill="#33419B" opacity="1.000000" stroke="none" 
	d="
M165.955643,223.054504 
	C165.532578,223.092499 165.321732,222.824768 165.051270,222.299927 
	C165.126709,220.193924 166.416702,219.588806 167.978714,219.416626 
	C168.231979,219.388702 168.777115,219.994644 168.813309,220.346115 
	C169.011719,222.272552 166.918915,221.787354 165.955643,223.054504 
z"/>
<path fill="#B6BBDC" opacity="1.000000" stroke="none" 
	d="
M63.455959,47.899841 
	C63.912140,49.023617 64.082588,50.132969 64.131943,51.647972 
	C62.479294,50.750069 59.828186,50.049809 61.621315,46.986717 
	C62.322651,47.207924 62.746441,47.546665 63.455959,47.899841 
z"/>
<path fill="#DCDEEE" opacity="1.000000" stroke="none" 
	d="
M189.447662,39.156059 
	C189.997421,31.681643 192.350204,39.906773 193.869766,38.750664 
	C193.962570,39.093163 194.004272,39.037674 194.009247,39.003326 
	C192.710052,40.044186 191.295578,40.168381 189.447662,39.156059 
z"/>
<path fill="#505CAA" opacity="1.000000" stroke="none" 
	d="
M189.057083,39.196358 
	C190.472824,38.858967 191.834793,38.865406 193.605499,38.920414 
	C193.508759,42.078167 191.288101,40.766968 189.279999,40.468578 
	C189.007370,40.004177 189.005356,39.772182 189.057083,39.196358 
z"/>
<path fill="#98A0CD" opacity="1.000000" stroke="none" 
	d="
M123.322220,234.241272 
	C123.468025,233.811249 123.548302,233.750397 123.596291,233.761261 
	C124.075180,236.343552 124.134171,238.906906 123.176422,241.458649 
	C123.176422,239.196198 123.176422,236.933731 123.322220,234.241272 
z"/>
<path fill="#223294" opacity="1.000000" stroke="none" 
	d="
M75.595154,45.018009 
	C75.195549,44.859493 75.139320,44.700150 75.033989,44.292145 
	C75.426964,43.184067 75.886383,42.219250 77.038643,42.392876 
	C78.088120,42.551006 77.895287,43.560539 77.997330,44.660168 
	C77.311989,45.006977 76.625259,45.012081 75.595154,45.018009 
z"/>
<path fill="#1A2A90" opacity="1.000000" stroke="none" 
	d="
M66.122124,35.854599 
	C66.512253,35.768158 66.813423,35.721298 66.906540,35.841938 
	C66.942863,37.520988 66.279984,38.605385 64.321182,38.979141 
	C63.976128,39.012192 63.998123,38.997673 63.993835,39.009224 
	C64.003723,37.673603 63.988216,36.309635 66.122124,35.854599 
z"/>
<path fill="#B6BBDC" opacity="1.000000" stroke="none" 
	d="
M47.039772,207.347534 
	C48.211754,207.039398 49.470909,207.039398 50.943764,207.039398 
	C49.138515,208.755005 49.138515,208.755005 47.039772,207.347534 
z"/>
<path fill="#223294" opacity="1.000000" stroke="none" 
	d="
M75.429337,39.451130 
	C75.746513,40.481991 75.302856,40.835197 74.588791,40.611847 
	C74.228806,40.499245 73.693962,39.916542 73.754616,39.677380 
	C73.952629,38.896591 74.635895,39.083824 75.429337,39.451130 
z"/>
<path fill="#33419B" opacity="1.000000" stroke="none" 
	d="
M169.672607,223.860443 
	C169.188980,223.763077 168.932892,223.630844 168.676804,223.498596 
	C169.081711,223.390793 169.483002,223.261215 169.894470,223.192902 
	C169.980240,223.178650 170.182800,223.388138 170.186722,223.499603 
	C170.190399,223.604797 170.003326,223.716660 169.672607,223.860443 
z"/>
<path fill="#1A2A90" opacity="1.000000" stroke="none" 
	d="
M71.691833,40.925743 
	C71.723526,41.483387 71.594833,41.878746 71.466148,42.274101 
	C71.358803,42.165825 71.144310,42.033756 71.162186,41.953281 
	C71.251884,41.549263 71.402336,41.158730 71.691833,40.925743 
z"/>
<path fill="#263696" opacity="1.000000" stroke="none" 
	d="
M200.210297,199.018677 
	C200.391525,198.897644 200.577316,198.957031 200.763107,199.016434 
	C200.580353,199.077316 200.397614,199.138214 200.210297,199.018677 
z"/>
<path fill="#223294" opacity="1.000000" stroke="none" 
	d="
M78.001068,44.999008 
	C78.438446,45.124184 78.874748,45.250351 79.311058,45.376518 
	C78.984261,46.085640 78.611359,45.708828 78.120499,45.211884 
	C77.998718,45.001873 78.000000,45.000000 78.001068,44.999008 
z"/>
<path fill="#F1F2F8" opacity="1.000000" stroke="none" 
	d="
M177.461212,218.404495 
	C176.904770,218.235916 176.287888,217.762405 176.368149,217.534821 
	C176.653473,216.725906 177.330597,217.062805 178.053406,217.532379 
	C178.041122,217.925385 177.880814,218.068878 177.461212,218.404495 
z"/>
<path fill="#E4E6F1" opacity="1.000000" stroke="none" 
	d="
M54.921715,213.915833 
	C54.854755,213.967026 54.807114,214.038193 54.873142,214.038330 
	C54.986816,213.967300 54.941032,213.935806 54.921715,213.915833 
z"/>
<path fill="#DCDEEE" opacity="1.000000" stroke="none" 
	d="
M183.494110,56.506363 
	C183.495682,56.486622 183.492554,56.526104 183.494110,56.506363 
z"/>
<path fill="#D8DBEC" opacity="1.000000" stroke="none" 
	d="
M204.992035,207.995865 
	C205.228760,207.832611 205.446899,207.641434 205.665054,207.450256 
	C205.554749,207.703339 205.444458,207.956421 205.136551,208.059998 
	C204.938934,207.910477 204.973465,207.967957 204.992035,207.995865 
z"/>
<path fill="#B6BBDC" opacity="1.000000" stroke="none" 
	d="
M46.096077,206.232391 
	C46.047874,205.975357 46.432228,205.936935 46.624901,205.946381 
	C46.919460,206.126190 47.021343,206.296570 47.037910,206.753174 
	C46.952599,207.039398 46.987003,207.011063 47.004097,206.996918 
	C46.728889,206.818344 46.436584,206.653885 46.096077,206.232391 
z"/>
<path fill="#B6BBDC" opacity="1.000000" stroke="none" 
	d="
M64.044739,52.185402 
	C64.199272,52.097588 64.455956,52.208580 64.810417,52.548374 
	C64.578156,52.793980 64.324387,52.662991 64.044739,52.185402 
z"/>
<path fill="#263696" opacity="1.000000" stroke="none" 
	d="
M198.554382,197.553970 
	C198.485748,197.597977 198.623032,197.509964 198.554382,197.553970 
z"/>
<path fill="#F5F6F9" opacity="1.000000" stroke="none" 
	d="
M43.323395,199.444000 
	C42.903877,199.815002 42.106861,200.343613 42.563171,198.914322 
	C42.913200,198.933899 43.038269,199.073425 43.323395,199.444000 
z"/>
<path fill="#DEE1EE" opacity="1.000000" stroke="none" 
	d="
M56.800102,197.844376 
	C56.865681,198.258301 56.821075,198.978729 56.081436,198.144791 
	C56.134666,197.885529 56.324852,197.802231 56.800102,197.844376 
z"/>
<path fill="#12238C" opacity="1.000000" stroke="none" 
	d="
M56.717064,88.521179 
	C58.559246,83.496552 62.171124,79.537178 65.828522,75.234131 
	C66.631752,74.961082 67.064964,75.110886 67.648514,75.769699 
	C68.432976,77.288475 69.508087,77.715500 70.725586,77.648598 
	C76.233795,77.345955 81.609261,79.040085 87.110748,78.710091 
	C90.935188,78.480690 93.882561,80.013367 96.112366,83.041138 
	C97.987274,85.586998 100.166138,87.878494 102.155289,90.329674 
	C105.176819,94.052986 105.591057,93.968826 107.460159,89.338440 
	C110.199295,82.552635 112.417183,75.573792 114.509407,68.577980 
	C116.106422,63.237995 118.826752,59.565666 124.331039,57.718338 
	C129.336487,56.038422 133.867004,53.046486 139.486496,51.888908 
	C140.352982,51.983585 140.831558,52.113464 141.629242,52.444008 
	C147.170425,58.356171 150.745483,65.247566 153.201141,72.375549 
	C155.808655,79.944313 149.233383,86.449783 148.621414,94.442963 
	C154.176849,93.796669 159.438385,92.444122 164.748459,91.443031 
	C184.996887,87.625664 179.295105,86.437553 195.959320,98.627037 
	C196.765350,99.216637 197.514618,99.884903 198.430130,100.411560 
	C199.034439,99.442451 197.947678,98.540421 198.464905,97.279144 
	C200.269196,94.732155 200.407761,94.668259 201.545654,97.135834 
	C204.482773,103.505112 206.648758,110.177795 207.654999,117.097992 
	C209.134384,127.272011 210.384445,137.516144 206.427032,147.533112 
	C203.866989,144.585403 204.616608,141.333420 204.883774,138.278015 
	C205.611984,129.950668 205.136398,121.728050 203.452911,113.563255 
	C203.157822,112.132072 203.098373,110.573868 201.675095,109.156853 
	C199.011490,111.245514 197.549316,114.262810 196.246643,117.123055 
	C192.543411,125.254250 186.655182,129.467667 177.596146,130.493896 
	C168.442368,131.530884 168.429276,132.180573 174.721924,139.203064 
	C179.270309,144.278961 183.347092,149.749924 187.996155,154.734314 
	C190.543701,157.465637 191.295074,160.560150 190.874985,164.349594 
	C190.146240,170.923477 188.705460,177.444763 189.020950,184.489502 
	C191.147888,188.115021 186.874802,188.476334 186.126053,190.775787 
	C185.395859,191.331329 184.918243,191.531677 184.145920,191.897736 
	C183.526871,192.032776 183.136246,191.843918 182.778564,191.005035 
	C184.182190,187.681595 184.096085,186.119614 180.359131,186.254456 
	C175.546021,186.428131 170.743225,186.245636 165.918335,185.609741 
	C162.131622,185.110687 159.482834,183.548615 157.130157,180.677582 
	C155.024902,178.108521 152.789948,175.628906 150.691895,173.046768 
	C148.529968,170.386002 147.374680,171.043411 146.495346,174.008331 
	C144.174149,181.834900 140.809341,189.311127 138.552078,197.152451 
	C137.394928,201.172211 135.131851,203.840393 131.236420,205.315735 
	C126.097397,207.262085 121.187874,209.754135 116.115051,211.867630 
	C113.073654,213.134781 111.027412,212.465149 109.624344,209.452103 
	C107.234001,204.318970 104.236656,199.502365 101.701271,194.437119 
	C99.862083,190.762741 99.402161,187.208054 100.978554,183.396454 
	C101.422844,182.322205 101.839928,181.213638 102.078506,180.080612 
	C102.745888,176.911118 106.081207,173.158218 103.830147,170.855530 
	C101.749443,168.727112 97.561874,171.207382 94.364632,171.860367 
	C89.635803,172.826157 84.913231,173.836899 80.184601,174.813400 
	C74.836517,175.917816 69.991821,175.198013 65.707520,171.455048 
	C61.326576,167.627670 56.106640,164.864227 51.708176,160.482407 
	C51.038372,156.236267 53.870304,153.697311 55.604366,150.785477 
	C66.373711,132.701447 61.399208,137.148178 80.354576,132.887360 
	C81.470161,132.636597 82.702766,132.743347 83.997513,131.612671 
	C79.599075,125.229019 74.396538,119.422913 69.146141,113.772461 
	C63.809521,108.029228 61.421505,102.029747 63.386322,94.263672 
	C64.231400,90.923431 63.644569,87.317055 64.284233,83.693878 
	C61.860641,85.467041 60.469109,88.546585 56.717064,88.521179 
z"/>
<path fill="#FFFFFF" opacity="1.000000" stroke="none" 
	d="
M51.663925,159.849396 
	C57.727005,163.114655 62.628010,167.392471 67.619812,171.453278 
	C70.854790,174.084930 73.867355,174.528580 77.685593,173.690140 
	C86.616058,171.729126 95.598953,170.006241 104.565514,168.211411 
	C105.347153,168.054962 106.164909,168.078918 107.557571,167.974884 
	C105.469780,174.329025 103.629311,180.285233 101.527222,186.147629 
	C100.723351,188.389465 100.852608,190.239502 101.973221,192.294464 
	C104.995575,197.836823 108.008087,203.392624 110.754623,209.073563 
	C111.939651,211.524643 113.193916,212.336914 115.570061,210.829620 
	C115.709518,210.741165 115.870598,210.686630 116.022072,210.617294 
	C122.516396,207.644867 130.565170,206.118423 135.060089,201.286194 
	C139.399368,196.621323 140.081253,188.549683 142.354584,181.969376 
	C143.967636,177.300339 145.555420,172.622604 147.394821,167.246185 
	C151.646530,172.258133 155.613495,176.694534 159.284760,181.363464 
	C161.116409,183.692886 163.125290,184.626556 166.070831,184.549713 
	C172.883957,184.371994 179.704880,184.493225 186.720520,184.493225 
	C186.647003,187.462189 184.705765,188.428040 183.162201,190.113846 
	C182.540878,190.633148 182.270264,190.911270 181.975952,191.337021 
	C182.002136,191.966232 181.970337,192.441574 181.684265,193.231201 
	C179.464355,195.878983 177.056107,197.822144 174.428772,199.427902 
	C172.970078,200.319427 171.755432,201.247192 171.087967,203.228882 
	C170.972824,203.564224 170.677460,203.496964 170.677460,203.496964 
	C170.677460,203.496964 170.467712,203.716049 170.508148,203.861816 
	C168.615173,203.365585 166.872452,204.096649 164.781052,204.859039 
	C161.806793,205.348907 159.642456,206.701797 157.523254,208.623962 
	C154.036041,211.119690 150.246063,212.238190 145.909424,212.933411 
	C145.510864,212.922165 145.220718,212.574585 145.220718,212.574585 
	C145.220718,212.574585 144.768066,212.591949 144.620117,212.762421 
	C143.546768,213.631363 142.516449,214.007065 140.925186,213.937103 
	C140.505096,213.924698 140.211517,213.590164 140.211517,213.590164 
	C140.211517,213.590164 139.766373,213.602127 139.618698,213.767975 
	C131.097000,216.462845 122.659637,215.441422 113.874428,214.158600 
	C113.381050,213.603531 113.134659,213.488800 112.642395,213.756714 
	C111.373177,213.966354 110.248772,214.013123 108.881119,213.162170 
	C108.384949,212.591888 108.133873,212.468246 107.632156,212.740906 
	C102.226219,212.461044 97.581352,209.969482 92.346779,208.169327 
	C92.040520,207.928116 92.000801,207.998779 92.026917,207.967773 
	C91.351654,207.146866 90.252388,207.032486 89.256516,206.175171 
	C89.058434,205.944107 89.010628,205.985077 89.022278,205.955841 
	C87.397072,205.324844 85.753830,204.734726 84.279373,203.192963 
	C84.060249,202.948227 84.014198,202.980515 84.023071,202.953827 
	C81.080070,201.327499 78.548523,198.932755 74.781670,198.109528 
	C74.589462,197.780518 74.547791,197.609238 74.162277,197.518494 
	C74.217888,196.147980 73.304611,195.297607 72.261749,194.180969 
	C72.064026,193.948425 72.006996,193.993286 72.027679,193.963470 
	C71.516769,193.577103 70.944336,193.290802 70.141983,192.770325 
	C69.752251,192.409729 69.612076,192.249542 69.285660,191.831909 
	C68.621376,190.882462 68.178558,190.163620 67.349487,189.338226 
	C65.931892,188.020554 65.656296,186.498535 65.110550,184.746857 
	C64.649292,183.992706 64.285637,183.550079 63.718765,183.030350 
	C60.040195,181.498016 58.767010,178.194885 57.067986,174.882874 
	C57.052769,174.053802 57.027424,173.599442 56.771259,173.042633 
	C52.536819,169.961380 52.590656,165.028397 50.769913,160.609711 
	C50.939857,160.054047 51.125160,159.879517 51.663925,159.849396 
z"/>
<path fill="#FAFAFC" opacity="1.000000" stroke="none" 
	d="
M52.051670,159.640305 
	C52.017384,159.993805 51.703987,160.016174 51.547081,160.008392 
	C48.480762,158.910294 48.932549,155.982483 48.138546,153.802353 
	C47.466599,151.957367 47.202278,149.956329 46.183529,147.791092 
	C46.346676,147.339142 46.467007,147.125107 46.220280,146.659546 
	C45.562115,137.453339 45.297840,128.379623 46.053383,118.892014 
	C46.392014,118.349586 46.490063,118.122299 46.190491,117.681290 
	C46.641876,116.466171 47.031929,115.254509 47.864792,113.838120 
	C48.344494,113.347878 48.444672,113.105293 48.218975,112.639282 
	C48.675724,106.638962 50.977650,101.347557 53.462425,96.115623 
	C54.519989,93.888817 56.066772,91.840752 55.996399,88.825554 
	C56.139477,88.573433 56.285900,88.559654 56.392632,88.428436 
	C58.397823,89.217255 59.300117,87.876625 60.281796,86.457138 
	C61.832603,84.214714 63.508129,82.058540 66.043121,80.270821 
	C65.322609,87.107643 64.726547,93.960968 63.822670,100.773460 
	C63.440674,103.652588 64.111015,105.781364 66.018456,107.979370 
	C72.875267,115.880775 79.542015,123.947121 86.273613,131.957001 
	C86.369720,132.071350 86.375748,132.261398 86.578598,132.914261 
	C80.630730,134.093719 74.738167,135.334290 68.814705,136.403610 
	C66.214645,136.872971 64.393265,137.917831 63.047256,140.382904 
	C59.557617,146.773819 55.760399,152.996796 52.051670,159.640305 
z"/>
<path fill="#FBFCFD" opacity="1.000000" stroke="none" 
	d="
M189.034851,184.896484 
	C187.982376,183.948074 186.475800,183.403412 187.100082,181.420532 
	C188.603714,176.644714 188.180450,171.524963 189.316513,166.747910 
	C190.635132,161.203217 188.884903,157.410263 185.206192,153.419708 
	C178.813080,146.484650 172.969574,139.042908 166.425629,131.254196 
	C172.904129,129.998444 178.690277,128.783463 184.513794,127.786865 
	C187.496994,127.276329 189.495377,125.959091 191.013519,123.210052 
	C194.218811,117.406006 197.805115,111.812370 201.780685,105.228943 
	C207.060532,119.217476 207.304413,132.705902 205.680832,146.927582 
	C205.884705,147.453110 205.872330,147.454681 205.900940,147.480789 
	C206.295609,152.489914 204.438049,157.112549 202.703140,161.482956 
	C199.957275,168.400116 197.018997,175.348175 192.212601,181.678986 
	C191.940582,181.951553 192.000000,181.999680 191.973221,181.972366 
	C191.173813,182.877457 190.414810,183.823135 189.192291,184.738342 
	C188.964767,184.937744 189.035583,184.932007 189.034851,184.896484 
z"/>
<path fill="#FBFBFC" opacity="1.000000" stroke="none" 
	d="
M139.780685,52.680847 
	C133.122574,55.405136 126.935913,58.253712 120.614235,60.761963 
	C118.177010,61.728977 117.618774,63.572102 116.924782,65.631203 
	C113.494690,75.808426 110.018234,85.970024 106.224350,97.117882 
	C102.036400,92.158096 98.260147,87.848541 94.681412,83.380775 
	C92.818413,81.054993 90.933754,79.663795 87.655136,79.704033 
	C81.177849,79.783546 74.693657,79.261383 68.211418,79.011467 
	C66.943581,78.962593 65.595909,79.066269 67.396957,77.040688 
	C67.220016,74.739380 68.927025,73.667381 69.870285,71.844109 
	C70.287895,71.630089 70.446739,71.570381 70.512024,71.207603 
	C71.227524,71.252266 71.972183,71.838341 72.879967,70.821167 
	C73.032913,70.556854 73.045914,70.527611 73.057724,70.516815 
	C72.979485,70.070572 73.064804,69.679047 73.574020,69.109177 
	C74.833435,68.202835 75.701431,67.321182 76.817001,66.256271 
	C77.050079,66.056267 77.000000,66.000305 77.021729,66.030975 
	C78.274826,64.740189 80.106506,64.467064 81.783035,63.277756 
	C82.031128,63.065765 82.012718,63.016285 82.034927,63.030552 
	C82.534767,62.458248 83.089813,61.945904 83.839432,61.230507 
	C84.056366,61.048897 84.001366,61.001892 84.019302,61.033310 
	C92.208092,56.422733 100.959419,53.178768 110.221588,50.176697 
	C110.655083,50.360634 110.870804,50.485760 111.345444,50.230988 
	C120.908707,49.178200 130.343475,48.025368 140.013367,50.775131 
	C140.513626,51.621971 140.479065,52.153515 139.780685,52.680847 
z"/>
<path fill="#FBFBFD" opacity="1.000000" stroke="none" 
	d="
M198.382324,96.744186 
	C199.545258,99.030777 200.915359,100.955299 201.036026,104.063286 
	C195.760071,100.046814 190.771179,96.478539 186.058258,92.576935 
	C183.121246,90.145523 180.263489,89.488510 176.495529,90.325783 
	C166.644547,92.514717 156.702591,94.294327 145.945679,96.404076 
	C148.103607,89.993622 149.905411,84.254906 151.986954,78.619507 
	C153.037338,75.775810 153.048782,73.432152 151.425156,70.675804 
	C148.149200,65.114388 145.332489,59.282436 142.103043,53.287834 
	C141.829880,52.756760 141.780045,52.499924 142.106705,52.132408 
	C142.483215,52.021725 142.501816,52.029266 142.499054,52.039337 
	C143.797684,51.043148 145.154785,51.111271 146.675415,51.595112 
	C153.867432,53.883530 161.060608,56.148972 167.651123,60.775173 
	C167.942398,61.047092 167.987717,61.016235 167.977936,61.041840 
	C170.047180,61.857552 171.694809,63.329899 173.718872,64.805077 
	C173.943314,65.048256 173.993011,65.008148 173.977020,65.035774 
	C175.413040,66.624031 177.795975,66.922020 178.973511,69.143944 
	C178.986816,69.915482 179.045959,70.335854 179.285858,70.895340 
	C179.942627,70.851410 180.391129,70.616005 181.169525,70.195923 
	C181.885986,70.213013 182.245087,70.362411 182.802887,70.489372 
	C182.946198,70.897881 182.950790,71.328606 183.085190,72.077179 
	C186.667679,76.135643 190.128143,79.909233 192.715668,84.777405 
	C192.934082,85.032097 192.981812,85.015228 192.969574,85.037392 
	C194.411148,87.232056 196.637421,88.942421 196.959732,92.143097 
	C197.347656,93.849014 197.754135,95.192566 198.382324,96.744186 
z"/>
<path fill="#12238C" opacity="1.000000" stroke="none" 
	d="
M192.231766,182.227264 
	C190.289551,180.544998 191.987991,179.670898 192.566162,178.789032 
	C198.785065,169.303360 202.954651,158.995499 205.553604,147.696548 
	C208.304626,147.608978 207.237549,149.327240 207.035339,150.277802 
	C204.529114,162.059814 200.268173,173.071609 192.231766,182.227264 
z"/>
<path fill="#12238C" opacity="1.000000" stroke="none" 
	d="
M45.660431,118.650986 
	C46.864223,118.290565 47.443367,118.659889 47.332405,119.416336 
	C46.009411,128.435318 46.928078,137.465591 46.597244,146.509323 
	C43.169048,139.439285 44.077713,132.051239 44.405106,124.723465 
	C44.493366,122.747932 44.960060,120.789307 45.660431,118.650986 
z"/>
<path fill="#12238C" opacity="1.000000" stroke="none" 
	d="
M140.488098,51.353821 
	C130.346222,49.584820 120.882713,50.493553 111.449341,50.521851 
	C119.874992,46.522961 128.585983,47.895935 137.210144,48.606365 
	C139.171722,48.767952 141.678741,48.292221 142.838394,51.181606 
	C142.154312,51.706627 141.665359,51.661320 140.488098,51.353821 
z"/>
<path fill="#12238C" opacity="1.000000" stroke="none" 
	d="
M110.159210,49.856209 
	C111.144310,50.795818 111.322121,51.637653 110.158760,51.868793 
	C101.003609,53.687782 92.870712,58.103134 84.261826,61.473335 
	C83.386391,59.349415 85.018631,59.305634 85.812180,58.845711 
	C93.294289,54.509262 101.194611,51.232693 110.159210,49.856209 
z"/>
<path fill="#12238C" opacity="1.000000" stroke="none" 
	d="
M168.308502,60.802689 
	C165.181656,61.799152 163.637070,59.415550 161.569870,58.467258 
	C155.685364,55.767834 149.682831,53.480511 142.926834,52.060680 
	C141.311279,50.136253 142.453186,49.530609 144.017990,49.889587 
	C152.882919,51.923267 161.670654,54.200016 168.308502,60.802689 
z"/>
<path fill="#12238C" opacity="1.000000" stroke="none" 
	d="
M113.250656,214.385971 
	C121.881828,214.054596 130.245850,214.875336 139.026321,213.764832 
	C140.008682,214.463699 140.185608,215.476578 139.593094,215.571396 
	C130.684158,216.996780 121.753960,218.326111 113.250656,214.385971 
z"/>
<path fill="#12238C" opacity="1.000000" stroke="none" 
	d="
M45.858032,147.848083 
	C47.830318,146.217636 47.807491,147.725342 48.109776,148.823349 
	C49.074299,152.326843 50.062634,155.823792 51.215977,159.661942 
	C52.532413,164.304520 54.650829,168.193558 56.551361,172.555359 
	C54.146606,175.402466 53.963390,172.381897 53.494186,171.470688 
	C49.720852,164.142685 46.925083,156.458694 45.858032,147.848083 
z"/>
<path fill="#12238C" opacity="1.000000" stroke="none" 
	d="
M55.815331,88.779900 
	C60.037132,88.678146 57.388153,90.940933 56.832161,91.974838 
	C53.363064,98.425835 50.822605,105.217949 48.467690,112.369896 
	C45.301941,111.398819 47.188641,109.515594 47.552303,108.187881 
	C49.389690,101.479691 52.151871,95.133118 55.815331,88.779900 
z"/>
<path fill="#12238C" opacity="1.000000" stroke="none" 
	d="
M193.364120,84.860474 
	C188.389114,80.858070 184.351593,76.251862 181.480042,70.776566 
	C182.106094,71.167046 182.528198,71.519188 183.603943,71.782700 
	C187.882721,75.753494 192.014999,79.313408 193.364120,84.860474 
z"/>
<path fill="#12238C" opacity="1.000000" stroke="none" 
	d="
M171.268158,203.354950 
	C168.001968,201.755951 170.692627,200.949890 171.698059,200.087769 
	C174.467560,197.712936 177.358490,195.479706 180.496826,193.048859 
	C181.503845,192.726074 182.056229,192.946396 182.378754,194.050781 
	C179.052078,197.813614 175.453705,200.661743 171.268158,203.354950 
z"/>
<path fill="#12238C" opacity="1.000000" stroke="none" 
	d="
M91.842514,208.292313 
	C93.358383,206.011017 94.607597,207.734818 95.765076,208.106567 
	C99.637665,209.350372 103.453239,210.771683 107.389816,212.522293 
	C107.221291,215.166931 105.573730,214.111450 104.691719,213.844681 
	C100.203613,212.487213 95.616936,211.326111 91.842514,208.292313 
z"/>
<path fill="#12238C" opacity="1.000000" stroke="none" 
	d="
M56.633900,174.434662 
	C59.936913,176.477646 60.891529,179.909256 63.314407,182.660583 
	C63.984459,184.672745 62.820244,185.405167 61.871861,184.348114 
	C59.294373,181.475235 56.323345,178.678711 56.633900,174.434662 
z"/>
<path fill="#12238C" opacity="1.000000" stroke="none" 
	d="
M145.458649,213.386169 
	C148.783585,210.262177 153.128067,210.293671 157.086548,208.698425 
	C158.023361,209.444382 158.245193,210.326462 157.608444,210.566406 
	C153.655441,212.056000 149.911636,214.404633 145.458649,213.386169 
z"/>
<path fill="#12238C" opacity="1.000000" stroke="none" 
	d="
M74.739052,198.204712 
	C75.271179,195.640945 76.697487,196.670731 77.906273,197.500443 
	C80.090324,198.999557 82.182312,200.632797 84.172348,202.568588 
	C81.748131,205.302216 80.801071,202.222610 79.355347,201.619934 
	C77.750633,200.950958 76.466354,199.513321 74.739052,198.204712 
z"/>
<path fill="#12238C" opacity="1.000000" stroke="none" 
	d="
M197.434204,92.631332 
	C195.436951,90.220985 193.932709,87.936516 192.692902,85.355804 
	C195.880585,85.247604 198.120071,88.716255 197.434204,92.631332 
z"/>
<path fill="#12238C" opacity="1.000000" stroke="none" 
	d="
M64.509048,184.631042 
	C65.969414,185.661057 66.925896,186.886780 68.003479,188.421173 
	C68.382004,189.585098 68.780670,190.331650 69.955063,190.831192 
	C70.258400,190.947647 70.715004,191.136597 70.814308,191.362839 
	C70.913612,191.589081 70.502136,191.840057 70.441391,192.073975 
	C70.380653,192.307877 70.027260,192.641388 69.562210,192.750702 
	C67.042442,190.408783 63.419586,188.951538 64.509048,184.631042 
z"/>
<path fill="#12238C" opacity="1.000000" stroke="none" 
	d="
M174.310303,64.782814 
	C171.044754,65.491051 169.806595,62.733154 167.801346,61.421471 
	C171.445129,59.804802 172.945908,62.385319 174.310303,64.782814 
z"/>
<path fill="#273696" opacity="1.000000" stroke="none" 
	d="
M69.708618,71.465775 
	C72.498337,74.290710 68.797043,74.631752 67.910835,76.480164 
	C67.311394,76.341522 67.018654,75.929451 66.422623,75.290237 
	C67.196068,73.843941 68.272797,72.624794 69.708618,71.465775 
z"/>
<path fill="#12238C" opacity="1.000000" stroke="none" 
	d="
M179.395355,69.571686 
	C176.528961,69.064003 175.248123,67.034592 173.724503,65.376930 
	C177.125778,64.740761 178.916977,66.132210 179.395355,69.571686 
z"/>
<path fill="#12238C" opacity="1.000000" stroke="none" 
	d="
M81.840881,62.631310 
	C81.454842,65.441032 79.465523,66.117592 77.274704,66.445786 
	C77.255043,63.194885 79.530151,62.788033 81.840881,62.631310 
z"/>
<path fill="#12238C" opacity="1.000000" stroke="none" 
	d="
M83.682899,203.236359 
	C86.431854,202.253113 87.609779,204.371872 89.187096,205.557343 
	C86.149414,207.451157 84.804863,205.303284 83.682899,203.236359 
z"/>
<path fill="#12238C" opacity="1.000000" stroke="none" 
	d="
M189.199219,185.376770 
	C188.615250,182.956985 190.036728,182.158447 191.665985,181.628235 
	C192.828079,184.351364 191.119888,185.076431 189.199219,185.376770 
z"/>
<path fill="#12238C" opacity="1.000000" stroke="none" 
	d="
M164.643311,205.483276 
	C166.455276,203.984451 167.767288,200.800766 170.659760,203.478058 
	C168.674545,204.752350 167.237091,206.740753 164.643311,205.483276 
z"/>
<path fill="#12238C" opacity="1.000000" stroke="none" 
	d="
M71.722687,194.206192 
	C74.473007,194.084183 76.341293,194.650925 74.542160,197.635849 
	C73.046852,196.598877 71.753387,195.924225 71.722687,194.206192 
z"/>
<path fill="#12238C" opacity="1.000000" stroke="none" 
	d="
M76.834503,65.756531 
	C78.392067,68.626427 75.256149,68.449348 74.324829,70.057114 
	C73.822227,69.796738 73.709007,69.342934 73.677742,68.192368 
	C74.712799,66.816002 75.665863,66.136406 76.834503,65.756531 
z"/>
<path fill="#12238C" opacity="1.000000" stroke="none" 
	d="
M88.700630,206.278702 
	C90.772957,204.948792 91.663414,206.228439 92.351143,207.590790 
	C90.134209,209.407791 89.327286,207.761688 88.700630,206.278702 
z"/>
<path fill="#12238C" opacity="1.000000" stroke="none" 
	d="
M47.601181,113.243073 
	C48.320213,115.172897 48.502937,116.811607 46.488480,117.795647 
	C45.642727,115.851334 45.518818,114.198662 47.601181,113.243073 
z"/>
<path fill="#12238C" opacity="1.000000" stroke="none" 
	d="
M108.238098,213.379852 
	C109.736900,212.364548 110.869476,212.987961 112.263878,213.540222 
	C110.926506,216.391113 109.433533,215.273285 108.238098,213.379852 
z"/>
<path fill="#12238C" opacity="1.000000" stroke="none" 
	d="
M140.477203,214.445740 
	C141.127747,212.483261 142.567978,213.042511 144.046082,212.792358 
	C144.746902,216.806580 142.018951,214.741165 140.477203,214.445740 
z"/>
<path fill="#273696" opacity="1.000000" stroke="none" 
	d="
M139.788757,51.373524 
	C140.291336,51.119919 140.782898,51.148209 141.958847,51.464218 
	C142.643250,51.751930 142.587250,51.962112 142.535233,51.991920 
	C142.336716,52.159107 142.190231,52.296486 141.961731,52.723728 
	C141.317184,52.966358 140.754623,52.919125 139.777588,52.782143 
	C139.501312,52.346737 139.639526,52.001080 139.788757,51.373524 
z"/>
<path fill="#12238C" opacity="1.000000" stroke="none" 
	d="
M70.668869,191.677170 
	C71.435646,192.207626 71.957687,192.826172 72.264038,193.689194 
	C70.917374,195.672577 70.338402,193.768250 69.300705,193.204102 
	C69.097168,192.860016 69.076637,192.888580 69.086617,192.895691 
	C69.245483,192.759354 69.394379,192.615891 69.758629,192.249252 
	C70.124039,191.939133 70.274078,191.852188 70.668869,191.677170 
z"/>
<path fill="#12238C" opacity="1.000000" stroke="none" 
	d="
M83.677101,60.756191 
	C85.414635,62.752342 83.506462,62.806862 82.442581,63.263493 
	C80.517540,61.245602 82.607033,61.190678 83.677101,60.756191 
z"/>
<path fill="#273696" opacity="1.000000" stroke="none" 
	d="
M73.404160,67.714142 
	C73.807961,67.952942 73.856194,68.410278 73.919952,69.559074 
	C73.835205,70.492599 73.654480,70.626167 73.231430,70.578629 
	C72.647644,70.421494 71.950226,70.458725 71.850060,70.232033 
	C71.329475,69.053886 72.425323,68.594131 73.404160,67.714142 
z"/>
<path fill="#273696" opacity="1.000000" stroke="none" 
	d="
M182.704895,194.216507 
	C182.018723,194.123993 181.730652,193.711334 181.117401,193.102966 
	C181.016922,192.564957 181.241608,192.222672 181.709274,191.682526 
	C184.705399,191.157959 183.939285,192.510422 182.704895,194.216507 
z"/>
<path fill="#273696" opacity="1.000000" stroke="none" 
	d="
M184.127533,192.345520 
	C184.271896,191.838043 184.626282,191.454422 185.394058,191.022095 
	C185.317474,191.472046 184.827515,191.970718 184.127533,192.345520 
z"/>
<path fill="#273696" opacity="1.000000" stroke="none" 
	d="
M72.604126,70.168503 
	C72.625969,71.872566 72.157051,73.082764 70.440674,71.585342 
	C70.779602,70.289711 71.349998,69.867157 72.604126,70.168503 
z"/>
<path fill="#273696" opacity="1.000000" stroke="none" 
	d="
M183.894409,71.708824 
	C183.394531,71.831108 182.785965,71.663574 182.058319,71.002708 
	C182.121475,70.298203 182.351974,70.209152 182.816193,70.354584 
	C183.262985,70.784286 183.524353,71.101639 183.894409,71.708824 
z"/>
<path fill="#273696" opacity="1.000000" stroke="none" 
	d="
M181.055054,69.656631 
	C181.685379,70.953171 181.323303,71.483261 179.949615,71.341370 
	C179.265274,70.080696 179.644073,69.489891 181.055054,69.656631 
z"/>
<path fill="#223294" opacity="1.000000" stroke="none" 
	d="
M74.694733,53.671455 
	C75.460052,55.265644 74.354263,54.887325 73.401443,55.001640 
	C73.134201,54.095421 73.732849,53.700985 74.694733,53.671455 
z"/>
<path fill="#14258D" opacity="1.000000" stroke="none" 
	d="
M120.130379,25.263512 
	C120.204872,24.960777 120.370461,24.909695 120.790833,24.909840 
	C121.308266,25.945013 120.677414,25.600002 120.130379,25.263512 
z"/>
<path fill="#263696" opacity="1.000000" stroke="none" 
	d="
M224.182602,87.238434 
	C224.812103,88.248039 226.735306,88.455399 225.290527,90.072159 
	C224.154572,89.721336 223.249466,89.357178 222.533813,88.764305 
	C221.785614,88.144463 220.331055,87.586617 221.395370,86.296371 
	C221.593811,86.055801 223.009995,86.819725 224.182602,87.238434 
z"/>
<path fill="#F1F2F8" opacity="1.000000" stroke="none" 
	d="
M135.035934,121.980255 
	C137.939026,124.190872 140.541367,126.206421 142.965591,128.084015 
	C136.485275,131.901642 140.769363,139.176498 137.504791,143.957840 
	C136.081146,141.505417 134.257202,142.612549 132.453613,143.655106 
	C127.442085,146.551987 122.844948,148.241989 118.529282,142.102997 
	C116.711510,139.517242 113.396614,137.983948 110.804329,136.004349 
	C116.848381,131.724319 113.190582,124.820412 115.700874,119.412605 
	C117.099823,121.384193 118.933990,121.605148 121.187424,120.219566 
	C122.862236,119.189758 124.739609,118.320808 126.642540,117.880188 
	C128.383377,117.477104 131.594147,112.977852 131.769745,119.300247 
	C131.793488,120.155350 133.700317,120.958160 135.035934,121.980255 
z"/>
<path fill="#ECEEF5" opacity="1.000000" stroke="none" 
	d="
M103.942947,144.137741 
	C107.345993,144.846970 108.894669,146.672134 108.339333,149.835861 
	C107.912186,152.269333 106.318886,153.573685 103.830795,153.540649 
	C101.343727,153.507660 99.714867,152.097916 99.347801,149.735931 
	C98.860970,146.603165 100.571434,144.807404 103.942947,144.137741 
z"/>
<path fill="#ECEEF5" opacity="1.000000" stroke="none" 
	d="
M124.644363,99.571854 
	C128.185074,100.624931 129.071320,102.882866 128.135529,105.818466 
	C127.402725,108.117325 125.567955,109.274132 123.133194,108.852020 
	C120.706871,108.431366 119.263916,106.613686 119.258583,104.339470 
	C119.251404,101.279747 121.103317,99.526901 124.644363,99.571854 
z"/>
<path fill="#F1F2F8" opacity="1.000000" stroke="none" 
	d="
M105.786987,120.194130 
	C105.338036,124.231262 103.193672,125.885826 99.678551,124.934715 
	C96.808220,124.158081 96.110580,121.795334 96.882866,119.066360 
	C97.425758,117.147949 98.740532,116.110588 100.802071,115.968918 
	C103.640984,115.773834 104.948204,117.433090 105.786987,120.194130 
z"/>
<path fill="#F1F2F8" opacity="1.000000" stroke="none" 
	d="
M132.468521,156.727219 
	C134.512650,159.240662 134.613342,161.547241 132.611130,163.639771 
	C131.105942,165.212875 129.147034,165.579895 127.222435,164.416702 
	C125.379135,163.302628 124.366280,161.501633 124.987259,159.384827 
	C126.112602,155.548691 128.671753,154.686356 132.468521,156.727219 
z"/>
<path fill="#F5F6F9" opacity="1.000000" stroke="none" 
	d="
M149.584869,147.639069 
	C146.677582,145.549194 146.156937,143.187378 147.925079,140.552719 
	C149.367264,138.403778 151.608307,138.327957 153.689087,139.282761 
	C155.988876,140.338043 156.505447,142.571213 155.838821,144.789215 
	C154.979095,147.649780 152.739883,148.439148 149.584869,147.639069 
z"/>
<path fill="#F5F6F9" opacity="1.000000" stroke="none" 
	d="
M148.863037,111.011017 
	C151.905594,111.717781 153.133179,113.502289 152.972260,116.154442 
	C152.849503,118.177643 151.672516,119.597374 149.705154,120.053291 
	C147.146194,120.646294 144.830917,119.932152 144.137115,117.239075 
	C143.245514,113.778198 144.567154,111.374969 148.863037,111.011017 
z"/>
<path fill="#273696" opacity="1.000000" stroke="none" 
	d="
M70.138702,190.654114 
	C69.230690,190.907211 68.334084,190.681244 68.134773,189.092010 
	C68.756058,189.273438 69.387527,189.817017 70.138702,190.654114 
z"/>
<path fill="#273696" opacity="1.000000" stroke="none" 
	d="
M69.776573,192.118378 
	C69.885605,192.312042 69.727737,192.552307 69.298485,192.824829 
	C69.145988,192.594376 69.306839,192.363678 69.776573,192.118378 
z"/>
<path fill="#17288E" opacity="1.000000" stroke="none" 
	d="
M118.903107,134.496765 
	C118.635124,128.119431 121.180412,124.490448 125.879944,124.023209 
	C130.139526,123.599701 134.061157,126.620621 134.843262,130.927856 
	C135.638138,135.305298 132.735901,139.752014 128.199142,140.526428 
	C123.667870,141.299911 120.563644,139.226700 118.903107,134.496765 
z"/>
</svg>