<svg version="1.1" id="Layer_1" xmlns="http://www.w3.org/2000/svg" xmlns:xlink="http://www.w3.org/1999/xlink" x="0px" y="0px"
	 width="100%" viewBox="0 0 225 225" enable-background="new 0 0 225 225" xml:space="preserve">
<path fill="#143288" opacity="1.000000" stroke="none" 
	d="
M146.000000,226.000000 
	C97.333336,226.000000 49.166672,226.000000 1.000006,226.000000 
	C1.000004,151.000000 1.000004,76.000015 1.000002,1.000016 
	C75.999992,1.000011 150.999985,1.000011 225.999969,1.000005 
	C225.999985,75.999985 225.999985,150.999969 226.000000,225.999969 
	C199.500000,226.000000 173.000000,226.000000 146.000000,226.000000 
M92.587494,96.725410 
	C93.042709,96.202309 93.497932,95.679207 94.600288,95.341087 
	C99.146904,98.386147 103.815018,101.268578 108.192886,104.539490 
	C110.672470,106.392105 112.461723,106.003700 114.791389,104.393425 
	C119.696602,101.002899 124.787933,97.881638 129.895020,95.632156 
	C129.929504,97.756790 129.911041,99.883873 130.008728,102.005592 
	C130.268951,107.657631 130.579193,113.307358 131.163239,119.586815 
	C141.588379,126.611664 152.013535,133.636520 163.019455,141.052719 
	C163.019455,117.813995 163.019455,95.396561 162.973785,72.283730 
	C153.526306,65.826332 143.992950,59.489140 134.683258,52.838867 
	C131.862320,50.823765 129.963318,51.084957 127.243973,52.956520 
	C117.265434,59.824146 107.140038,66.482635 96.951660,73.036011 
	C95.592476,73.910263 93.554169,73.728683 91.764198,73.137329 
	C93.176514,66.164871 90.312454,61.626175 84.003899,58.655910 
	C81.205612,57.338387 78.831673,55.144825 76.181839,53.481586 
	C70.527046,49.932198 64.817924,46.469391 58.618145,43.409740 
	C58.760376,44.607483 58.902607,45.805222 59.275833,47.915291 
	C59.198753,70.942863 59.121674,93.970436 58.631130,117.320358 
	C58.785721,117.885712 58.940311,118.451057 59.524689,119.514496 
	C69.688553,126.340446 79.852417,133.166397 90.318306,140.460556 
	C90.757187,140.262268 91.196068,140.063965 91.707428,139.260880 
	C91.683472,138.856216 91.659515,138.451553 91.869560,137.131226 
	C91.952759,123.742859 92.035957,110.354485 92.587494,96.725410 
M126.618126,169.495392 
	C126.618126,166.046631 126.618126,162.597870 126.618126,159.112625 
	C119.269882,157.278961 120.431015,165.930283 115.896164,166.974487 
	C111.749268,165.365112 112.584633,157.150772 105.382431,159.229507 
	C105.382431,165.422745 105.249947,171.401657 105.502037,177.364334 
	C105.548546,178.464493 107.150780,179.498871 108.034958,180.563614 
	C108.368660,180.254501 108.702370,179.945389 109.036072,179.636261 
	C109.331718,176.080093 109.627357,172.523926 109.922997,168.967758 
	C110.441338,168.901337 110.959679,168.834930 111.478020,168.768524 
	C112.931610,170.636276 114.385193,172.504028 115.742294,174.247787 
	C117.791847,172.472076 119.607948,170.898636 121.424057,169.325180 
	C121.797218,169.645874 122.170387,169.966553 122.543549,170.287247 
	C122.543549,173.405640 122.543549,176.524033 122.543549,179.642426 
	C122.968681,179.966599 123.393822,180.290787 123.818954,180.614975 
	C124.751785,179.559341 126.264244,178.614944 126.492783,177.424149 
	C126.924477,175.174789 126.617798,172.783737 126.618126,169.495392 
M152.644257,166.258835 
	C149.718613,160.246124 145.288971,157.452560 140.242645,158.437729 
	C135.191574,159.423828 131.380981,163.450211 130.982681,168.222107 
	C130.445206,174.661469 135.172119,180.003281 141.567627,180.183975 
	C148.842407,180.389511 153.225006,175.272202 152.644257,166.258835 
M80.086868,174.052734 
	C84.045937,179.567307 87.963089,181.401581 93.140244,179.816544 
	C97.459686,178.494080 100.295425,175.508835 100.952377,170.984650 
	C101.635284,166.281723 99.867470,162.519180 95.730743,159.980225 
	C91.348778,157.290710 87.070129,157.797211 83.210594,160.831299 
	C79.109680,164.055145 77.997963,168.356750 80.086868,174.052734 
M34.341785,179.001495 
	C35.455338,179.388901 36.568890,179.776291 38.173767,180.334610 
	C38.173767,176.706192 38.173767,174.080322 38.173767,171.706085 
	C41.585075,171.913528 44.773224,172.107391 47.908272,172.298035 
	C48.375919,179.734039 48.375919,179.734039 51.798874,179.736084 
	C51.798874,172.855698 51.798874,165.976944 51.798874,158.809677 
	C50.448601,158.929871 49.367668,159.026077 48.322979,159.119064 
	C47.850002,167.902069 47.850002,167.902069 37.938217,166.519409 
	C37.938217,164.053024 37.938217,161.492340 37.938217,158.931656 
	C37.402447,158.711823 36.866673,158.491974 36.330902,158.272125 
	C35.636623,159.399902 34.386463,160.506561 34.342728,161.659027 
	C34.135303,167.124557 34.256966,172.602585 34.341785,179.001495 
M182.474609,173.978348 
	C180.509476,169.608261 178.637131,165.192078 176.507004,160.903961 
	C176.037491,159.958786 174.709366,159.044815 173.672836,158.909119 
	C172.923431,158.811005 171.607056,159.842331 171.220840,160.681641 
	C168.343582,166.934418 165.635513,173.265060 162.874344,179.571259 
	C163.214874,179.932281 163.555389,180.293304 163.895920,180.654327 
	C165.203751,179.669342 166.473587,178.627899 167.829819,177.714783 
	C169.268738,176.746033 170.693237,175.464798 172.299057,175.108292 
	C174.334564,174.656372 176.546463,174.998993 178.482971,174.998993 
	C180.075546,177.669769 180.270020,181.662430 184.900925,179.645477 
	C184.208023,177.967072 183.524094,176.310425 182.474609,173.978348 
M68.539780,159.248917 
	C66.097816,158.140396 64.634377,158.789917 63.559212,161.383041 
	C61.036877,167.466522 58.244709,173.438110 55.561768,179.455002 
	C55.789940,179.806534 56.018112,180.158066 56.246284,180.509598 
	C57.542049,179.801575 59.301880,179.414917 60.053234,178.329910 
	C63.306465,173.631973 69.770981,173.597061 72.958107,178.230377 
	C73.744392,179.373459 75.659164,179.740280 77.055176,180.463959 
	C77.237099,180.106659 77.419022,179.749374 77.600945,179.392090 
	C74.697128,172.883606 71.793304,166.375107 68.539780,159.248917 
M188.778244,159.756653 
	C188.778244,166.382721 188.778244,173.008804 188.778244,179.634872 
	C189.144287,179.958786 189.510330,180.282700 189.876373,180.606613 
	C190.790421,179.678574 192.450073,178.785172 192.495071,177.816757 
	C192.749252,172.345612 192.559570,166.855637 192.638412,161.373764 
	C192.678406,158.594177 191.300644,158.332809 188.778244,159.756653 
M164.062363,133.310608 
	C164.062363,135.434616 164.062363,137.558609 164.062363,139.682617 
	C164.270950,139.680496 164.479523,139.678375 164.688110,139.676254 
	C164.688110,118.290985 164.688110,96.905708 164.688110,75.520439 
	C164.479599,75.519867 164.271088,75.519295 164.062576,75.518723 
	C164.062576,94.466690 164.062576,113.414658 164.062363,133.310608 
z"/>
<path fill="#FBFCFC" opacity="1.000000" stroke="none" 
	d="
M59.044598,116.998009 
	C59.121674,93.970436 59.198753,70.942863 59.252510,47.063816 
	C59.196472,45.131931 59.163765,44.051517 59.131058,42.971107 
	C64.817924,46.469391 70.527046,49.932198 76.181839,53.481586 
	C78.831673,55.144825 81.205612,57.338387 84.003899,58.655910 
	C90.312454,61.626175 93.176514,66.164871 91.535446,73.848892 
	C91.412674,80.934875 91.518654,87.309296 91.434517,94.072029 
	C91.159676,103.897537 90.988297,113.335068 91.024979,122.771790 
	C91.044777,127.864204 91.420448,132.955231 91.635559,138.046890 
	C91.659515,138.451553 91.683472,138.856216 91.399635,139.531082 
	C90.733322,139.864975 90.374802,139.928665 90.016281,139.992355 
	C79.852417,133.166397 69.688553,126.340446 59.378288,118.929665 
	C59.169460,117.895889 59.107029,117.446953 59.044598,116.998009 
z"/>
<path fill="#B5BFDA" opacity="1.000000" stroke="none" 
	d="
M91.624634,93.683716 
	C91.518654,87.309296 91.412674,80.934875 91.568527,74.298256 
	C93.554169,73.728683 95.592476,73.910263 96.951660,73.036011 
	C107.140038,66.482635 117.265434,59.824146 127.243973,52.956520 
	C129.963318,51.084957 131.862320,50.823765 134.683258,52.838867 
	C143.992950,59.489140 153.526306,65.826332 162.645782,72.664154 
	C151.859802,80.059341 141.401810,87.074104 130.708679,94.052704 
	C130.143417,94.114815 129.919876,94.325928 129.802887,94.649872 
	C124.787933,97.881638 119.696602,101.002899 114.791389,104.393425 
	C112.461723,106.003700 110.672470,106.392105 108.192886,104.539490 
	C103.815018,101.268578 99.146904,98.386147 94.074890,95.037781 
	C93.044708,94.502396 92.539917,94.270309 91.933678,93.948242 
	C91.832230,93.858253 91.624634,93.683716 91.624634,93.683716 
z"/>
<path fill="#FEFEFE" opacity="1.000000" stroke="none" 
	d="
M130.943817,94.088867 
	C141.401810,87.074104 151.859802,80.059341 162.668625,73.011856 
	C163.019455,95.396561 163.019455,117.813995 163.019455,141.052719 
	C152.013535,133.636520 141.588379,126.611664 131.074005,118.810104 
	C130.971130,110.051880 130.957474,102.070374 130.943817,94.088867 
z"/>
<path fill="#E7EAED" opacity="1.000000" stroke="none" 
	d="
M126.618050,169.973480 
	C126.617798,172.783737 126.924477,175.174789 126.492783,177.424149 
	C126.264244,178.614944 124.751785,179.559341 123.818954,180.614975 
	C123.393822,180.290787 122.968681,179.966599 122.543549,179.642426 
	C122.543549,176.524033 122.543549,173.405640 122.543549,170.287247 
	C122.170387,169.966553 121.797218,169.645874 121.424057,169.325180 
	C119.607948,170.898636 117.791847,172.472076 115.742294,174.247787 
	C114.385193,172.504028 112.931610,170.636276 111.478020,168.768524 
	C110.959679,168.834930 110.441338,168.901337 109.922997,168.967758 
	C109.627357,172.523926 109.331718,176.080093 109.036072,179.636261 
	C108.702370,179.945389 108.368660,180.254501 108.034958,180.563614 
	C107.150780,179.498871 105.548546,178.464493 105.502037,177.364334 
	C105.249947,171.401657 105.382431,165.422745 105.382431,159.229507 
	C112.584633,157.150772 111.749268,165.365112 115.896164,166.974487 
	C120.431015,165.930283 119.269882,157.278961 126.618126,159.112625 
	C126.618126,162.597870 126.618126,166.046631 126.618050,169.973480 
z"/>
<path fill="#F0F2F1" opacity="1.000000" stroke="none" 
	d="
M152.734863,166.648849 
	C153.225006,175.272202 148.842407,180.389511 141.567627,180.183975 
	C135.172119,180.003281 130.445206,174.661469 130.982681,168.222107 
	C131.380981,163.450211 135.191574,159.423828 140.242645,158.437729 
	C145.288971,157.452560 149.718613,160.246124 152.734863,166.648849 
M148.847427,167.135757 
	C145.783615,161.758759 141.293839,160.311813 137.548065,163.579529 
	C134.688278,166.074341 134.094223,169.224487 135.655746,172.609116 
	C137.147766,175.843079 139.856476,177.433105 143.376953,176.592331 
	C147.832382,175.528275 149.415100,172.295990 148.847427,167.135757 
z"/>
<path fill="#F1F3F2" opacity="1.000000" stroke="none" 
	d="
M79.943207,173.688354 
	C77.997963,168.356750 79.109680,164.055145 83.210594,160.831299 
	C87.070129,157.797211 91.348778,157.290710 95.730743,159.980225 
	C99.867470,162.519180 101.635284,166.281723 100.952377,170.984650 
	C100.295425,175.508835 97.459686,178.494080 93.140244,179.816544 
	C87.963089,181.401581 84.045937,179.567307 79.943207,173.688354 
M86.605949,162.831741 
	C85.879768,163.497849 85.004623,164.059814 84.453423,164.848251 
	C82.172447,168.110901 82.050247,171.831314 85.027588,174.229553 
	C86.945168,175.774155 90.526566,176.538651 92.915245,175.921814 
	C96.826805,174.911713 97.594772,171.123154 96.928596,167.420639 
	C96.173241,163.222504 92.788589,161.578049 86.605949,162.831741 
z"/>
<path fill="#EFF1F3" opacity="1.000000" stroke="none" 
	d="
M34.301598,178.538818 
	C34.256966,172.602585 34.135303,167.124557 34.342728,161.659027 
	C34.386463,160.506561 35.636623,159.399902 36.330902,158.272125 
	C36.866673,158.491974 37.402447,158.711823 37.938217,158.931656 
	C37.938217,161.492340 37.938217,164.053024 37.938217,166.519409 
	C47.850002,167.902069 47.850002,167.902069 48.322979,159.119064 
	C49.367668,159.026077 50.448601,158.929871 51.798874,158.809677 
	C51.798874,165.976944 51.798874,172.855698 51.798874,179.736084 
	C48.375919,179.734039 48.375919,179.734039 47.908272,172.298035 
	C44.773224,172.107391 41.585075,171.913528 38.173767,171.706085 
	C38.173767,174.080322 38.173767,176.706192 38.173767,180.334610 
	C36.568890,179.776291 35.455338,179.388901 34.301598,178.538818 
z"/>
<path fill="#EDF0F0" opacity="1.000000" stroke="none" 
	d="
M182.657394,174.316071 
	C183.524094,176.310425 184.208023,177.967072 184.900925,179.645477 
	C180.270020,181.662430 180.075546,177.669769 178.482971,174.998993 
	C176.546463,174.998993 174.334564,174.656372 172.299057,175.108292 
	C170.693237,175.464798 169.268738,176.746033 167.829819,177.714783 
	C166.473587,178.627899 165.203751,179.669342 163.895920,180.654327 
	C163.555389,180.293304 163.214874,179.932281 162.874344,179.571259 
	C165.635513,173.265060 168.343582,166.934418 171.220840,160.681641 
	C171.607056,159.842331 172.923431,158.811005 173.672836,158.909119 
	C174.709366,159.044815 176.037491,159.958786 176.507004,160.903961 
	C178.637131,165.192078 180.509476,169.608261 182.657394,174.316071 
M172.465271,166.273911 
	C171.893005,167.753815 171.320755,169.233734 170.600204,171.097137 
	C172.944168,171.097137 174.809601,171.097137 177.202911,171.097137 
	C176.085648,168.680969 175.147537,166.652222 174.209427,164.623489 
	C173.759964,164.949539 173.310501,165.275574 172.465271,166.273911 
z"/>
<path fill="#F0F2F2" opacity="1.000000" stroke="none" 
	d="
M68.714630,159.557770 
	C71.793304,166.375107 74.697128,172.883606 77.600945,179.392090 
	C77.419022,179.749374 77.237099,180.106659 77.055176,180.463959 
	C75.659164,179.740280 73.744392,179.373459 72.958107,178.230377 
	C69.770981,173.597061 63.306465,173.631973 60.053234,178.329910 
	C59.301880,179.414917 57.542049,179.801575 56.246284,180.509598 
	C56.018112,180.158066 55.789940,179.806534 55.561768,179.455002 
	C58.244709,173.438110 61.036877,167.466522 63.559212,161.383041 
	C64.634377,158.789917 66.097816,158.140396 68.714630,159.557770 
M68.678261,171.459274 
	C68.254829,169.106125 67.831390,166.752975 67.167435,163.063202 
	C65.764847,165.576553 65.154503,166.521515 64.694138,167.534637 
	C64.174767,168.677628 63.790321,169.881927 63.343155,171.070312 
	C63.937378,171.280975 64.227745,171.464340 64.524208,171.474808 
	C65.666924,171.515091 66.811577,171.500122 68.678261,171.459274 
z"/>
<path fill="#E3E6E9" opacity="1.000000" stroke="none" 
	d="
M188.961563,159.416901 
	C191.300644,158.332809 192.678406,158.594177 192.638412,161.373764 
	C192.559570,166.855637 192.749252,172.345612 192.495071,177.816757 
	C192.450073,178.785172 190.790421,179.678574 189.876373,180.606613 
	C189.510330,180.282700 189.144287,179.958786 188.778244,179.634872 
	C188.778244,173.008804 188.778244,166.382721 188.961563,159.416901 
z"/>
<path fill="#002B88" opacity="1.000000" stroke="none" 
	d="
M164.062469,132.836609 
	C164.062576,113.414658 164.062576,94.466690 164.062576,75.518723 
	C164.271088,75.519295 164.479599,75.519867 164.688110,75.520439 
	C164.688110,96.905708 164.688110,118.290985 164.688110,139.676254 
	C164.479523,139.678375 164.270950,139.680496 164.062363,139.682617 
	C164.062363,137.558609 164.062363,135.434616 164.062469,132.836609 
z"/>
<path fill="#B5BFDA" opacity="1.000000" stroke="none" 
	d="
M91.752563,137.589050 
	C91.420448,132.955231 91.044777,127.864204 91.024979,122.771790 
	C90.988297,113.335068 91.159676,103.897537 91.434517,94.072029 
	C91.624634,93.683716 91.832230,93.858253 91.906281,94.314575 
	C92.026611,95.502632 92.072876,96.234375 92.119156,96.966118 
	C92.035957,110.354485 91.952759,123.742859 91.752563,137.589050 
z"/>
<path fill="#000F6D" opacity="1.000000" stroke="none" 
	d="
M130.708679,94.052704 
	C130.957474,102.070374 130.971130,110.051880 130.927170,118.495697 
	C130.579193,113.307358 130.268951,107.657631 130.008728,102.005592 
	C129.911041,99.883873 129.929504,97.756790 129.848953,95.141014 
	C129.919876,94.325928 130.143417,94.114815 130.708679,94.052704 
z"/>
<path fill="#00207E" opacity="1.000000" stroke="none" 
	d="
M92.353317,96.845764 
	C92.072876,96.234375 92.026611,95.502632 92.007736,94.404556 
	C92.539917,94.270309 93.044708,94.502396 93.751328,94.945297 
	C93.497932,95.679207 93.042709,96.202309 92.353317,96.845764 
z"/>
<path fill="#002186" opacity="1.000000" stroke="none" 
	d="
M58.874603,43.190422 
	C59.163765,44.051517 59.196472,45.131931 59.137012,46.607651 
	C58.902607,45.805222 58.760376,44.607483 58.874603,43.190422 
z"/>
<path fill="#002186" opacity="1.000000" stroke="none" 
	d="
M58.837864,117.159180 
	C59.107029,117.446953 59.169460,117.895889 59.163391,118.680618 
	C58.940311,118.451057 58.785721,117.885712 58.837864,117.159180 
z"/>
<path fill="#B5BFDA" opacity="1.000000" stroke="none" 
	d="
M90.167297,140.226456 
	C90.374802,139.928665 90.733322,139.864975 91.363396,139.833481 
	C91.196068,140.063965 90.757187,140.262268 90.167297,140.226456 
z"/>
<path fill="#163487" opacity="1.000000" stroke="none" 
	d="
M148.921066,167.526260 
	C149.415100,172.295990 147.832382,175.528275 143.376953,176.592331 
	C139.856476,177.433105 137.147766,175.843079 135.655746,172.609116 
	C134.094223,169.224487 134.688278,166.074341 137.548065,163.579529 
	C141.293839,160.311813 145.783615,161.758759 148.921066,167.526260 
z"/>
<path fill="#183588" opacity="1.000000" stroke="none" 
	d="
M86.958954,162.644806 
	C92.788589,161.578049 96.173241,163.222504 96.928596,167.420639 
	C97.594772,171.123154 96.826805,174.911713 92.915245,175.921814 
	C90.526566,176.538651 86.945168,175.774155 85.027588,174.229553 
	C82.050247,171.831314 82.172447,168.110901 84.453423,164.848251 
	C85.004623,164.059814 85.879768,163.497849 86.958954,162.644806 
z"/>
<path fill="#143184" opacity="1.000000" stroke="none" 
	d="
M172.663147,165.937775 
	C173.310501,165.275574 173.759964,164.949539 174.209442,164.623489 
	C175.147537,166.652222 176.085648,168.680969 177.202911,171.097137 
	C174.809601,171.097137 172.944168,171.097137 170.600204,171.097137 
	C171.320755,169.233734 171.893005,167.753815 172.663147,165.937775 
z"/>
<path fill="#375094" opacity="1.000000" stroke="none" 
	d="
M68.316887,171.482513 
	C66.811577,171.500122 65.666924,171.515091 64.524208,171.474808 
	C64.227745,171.464340 63.937378,171.280975 63.343155,171.070312 
	C63.790321,169.881927 64.174767,168.677628 64.694138,167.534637 
	C65.154503,166.521515 65.764847,165.576553 67.167435,163.063202 
	C67.831390,166.752975 68.254829,169.106125 68.316887,171.482513 
z"/>
</svg>