<?xml version="1.0" encoding="UTF-8"?>
<svg version="1.1" xmlns="http://www.w3.org/2000/svg" width="96" height="96">
<path d="M0 0 C31.68 0 63.36 0 96 0 C96 31.68 96 63.36 96 96 C64.32 96 32.64 96 0 96 C0 64.32 0 32.64 0 0 Z " fill="#810101" transform="translate(0,0)"/>
<path d="M0 0 C30.36 0 60.72 0 92 0 C90 4 90 4 88.49609375 5.91015625 C86.75772407 8.33842722 85.97915851 10.60097302 85.0625 13.4375 C83.30724086 18.44299183 81.57829848 22.19519107 77.125 25.3125 C74.35788795 26.20774213 71.88772424 26.13126019 69 26 C70.60754039 19.86211851 73.57117858 16.42882142 78 12 C73.84903546 12.24417438 71.54629151 12.56544994 68.25 15.1875 C65.99530118 18.00587352 64.45552612 20.70591458 63 24 C57.39423077 23.10817308 57.39423077 23.10817308 55.078125 22.47265625 C52.82374421 21.95991175 50.80985536 21.86708954 48.5 21.875 C47.7471875 21.87242188 46.994375 21.86984375 46.21875 21.8671875 C43.991492 22.00050928 42.10942178 22.27087378 40 23 C38.71563266 24.9837767 38.71563266 24.9837767 38 27 C37.01 27 36.02 27 35 27 C33.68 30.3 32.36 33.6 31 37 C28.23776722 34.23776722 28.42143709 31.79293383 28 28 C23.37012923 26.23302255 23.37012923 26.23302255 18.625 26.75 C16.85741582 27.9216071 16.85741582 27.9216071 16 30 C15.95459048 31.60352383 15.96153031 33.20879467 16 34.8125 C16.04105037 38.35822594 15.92018185 41.54931806 15 45 C13.515 45.495 13.515 45.495 12 46 C11.22197813 48.3015411 11.22197813 48.3015411 11 51 C12.33153266 53.30504044 12.33153266 53.30504044 14 55 C13.34 55 12.68 55 12 55 C12 55.66 12 56.32 12 57 C12.66 57 13.32 57 14 57 C14 57.99 14 58.98 14 60 C13.34 60 12.68 60 12 60 C12 61.65 12 63.3 12 65 C11.34 65 10.68 65 10 65 C9.86722656 65.66386719 9.73445312 66.32773438 9.59765625 67.01171875 C8 75 8 75 7.44140625 77.453125 C6.93714941 80.36264232 6.86753603 83.11049808 6.875 86.0625 C6.87242187 87.08472656 6.86984375 88.10695313 6.8671875 89.16015625 C6.98206462 91.61649932 7.29224959 93.65768316 8 96 C5.36 96 2.72 96 0 96 C0 64.32 0 32.64 0 0 Z M90 3 C92 4 92 4 92 4 Z " fill="#800101" transform="translate(0,0)"/>
<path d="M0 0 C0.33 0 0.66 0 1 0 C0.64652469 9.13733671 -0.36814451 18.94725537 -7.1875 25.6875 C-11.21156316 28.74053922 -15.14397526 28.59461527 -20 28 C-20.09796875 29.01578125 -20.1959375 30.0315625 -20.296875 31.078125 C-21.58202523 43.34614811 -23.01630766 55.54513293 -33 64 C-40.419504 66.473168 -46.87074574 64.45433343 -54 62 C-54.226875 62.886875 -54.45375 63.77375 -54.6875 64.6875 C-56.62331533 69.57312917 -59.6907959 72.12719727 -64 75 C-66.73990408 74.96856707 -69.28417854 74.44521663 -72 74 C-70 72 -70 72 -67.6875 70.9375 C-63.76054061 68.10643625 -62.10798893 64.27876903 -60 60 C-61.4391134 60.28359887 -62.87625518 60.57721399 -64.3125 60.875 C-65.51326172 61.11863281 -65.51326172 61.11863281 -66.73828125 61.3671875 C-69.25301118 61.94478999 -69.25301118 61.94478999 -72 64 C-71.75 62.125 -71.75 62.125 -71 60 C-68.06004981 57.97244814 -66.72295997 58 -63 58 C-63 56.35 -63 54.7 -63 53 C-60.525 52.505 -60.525 52.505 -58 52 C-57.67 51.01 -57.34 50.02 -57 49 C-55.515 48.505 -55.515 48.505 -54 48 C-54 46.02 -54 44.04 -54 42 C-53.67 42.66 -53.34 43.32 -53 44 C-52.01 44 -51.02 44 -50 44 C-50 45.65 -50 47.3 -50 49 C-47.55987895 48.93997242 -45.12586474 48.85299796 -42.6875 48.75 C-41.65206055 48.72873047 -41.65206055 48.72873047 -40.59570312 48.70703125 C-37.44532522 48.55483908 -35.48133018 48.43025025 -33.0859375 46.2890625 C-31.85626322 43.69701528 -31.34696784 41.46344697 -30.9375 38.625 C-30.29220141 34.57426012 -29.45769013 30.85246678 -28 27 C-36.32337711 28.17121731 -36.32337711 28.17121731 -43 33 C-44.01656081 34.65661761 -45.02065076 36.32111559 -46 38 C-46.66 38 -47.32 38 -48 38 C-48 38.99 -48 39.98 -48 41 C-48.66 41 -49.32 41 -50 41 C-50.33 40.34 -50.66 39.68 -51 39 C-52.485 38.505 -52.485 38.505 -54 38 C-54.67739164 29.15627587 -52.9323218 22.3984827 -48 15 C-44.93002821 11.93002821 -42.21353004 10.711514 -37.875 10.6875 C-32.6202987 10.7836759 -27.92644974 12.27214289 -23 14 C-22.7525 13.113125 -22.505 12.22625 -22.25 11.3125 C-20.58875749 6.91020735 -18.7421229 4.00859747 -14.625 1.625 C-11.45479333 0.87018889 -9.14978802 1.26749116 -6 2 C-6.7425 2.556875 -7.485 3.11375 -8.25 3.6875 C-12.51014602 7.26989552 -15.19000776 10.72085596 -17 16 C-11.08612701 14.89741351 -7.79762579 13.95801145 -4 9 C-2.4961565 6.06134187 -1.19902359 3.07459123 0 0 Z " fill="#FBFAF9" transform="translate(86,10)"/>
<path d="M0 0 C3.40596414 1.50825439 3.4605849 1.8988917 4.9375 5.6875 C5.123125 6.780625 5.30875 7.87375 5.5 9 C7.30066242 6.0534615 9.00163895 3.11198065 10.5 0 C11.16 0.66 11.82 1.32 12.5 2 C12.066875 2.90878906 12.066875 2.90878906 11.625 3.8359375 C8.8433724 10.11391646 7.97627296 15.16245253 8.5 22 C9.49 22 10.48 22 11.5 22 C11.5 22.99 11.5 23.98 11.5 25 C12.16 25 12.82 25 13.5 25 C13.5 24.01 13.5 23.02 13.5 22 C14.6875 20.6875 14.6875 20.6875 16.5 19 C17.304375 17.989375 18.10875 16.97875 18.9375 15.9375 C22.49595142 11.8582996 22.49595142 11.8582996 25.5 11 C28.19077562 10.85483291 30.80047989 10.910016 33.5 11 C33.36722656 11.54527344 33.23445313 12.09054688 33.09765625 12.65234375 C31.97353131 17.45243931 31.23665149 22.02628771 31.0390625 26.95703125 C30.23028235 30.02219079 29.07133943 31.15570063 26.5 33 C23.76317029 33.2911521 21.46059961 33.38322418 18.75 33.25 C18.05261719 33.23195312 17.35523438 33.21390625 16.63671875 33.1953125 C14.92388461 33.14838554 13.21176176 33.07664605 11.5 33 C11.5 31.35 11.5 29.7 11.5 28 C10.51 28 9.52 28 8.5 28 C8.17 29.32 7.84 30.64 7.5 32 C6.84 32 6.18 32 5.5 32 C5.2525 32.639375 5.005 33.27875 4.75 33.9375 C3.5 36 3.5 36 1.375 36.75 C0.75625 36.8325 0.1375 36.915 -0.5 37 C-0.17 37.66 0.16 38.32 0.5 39 C-0.16 39 -0.82 39 -1.5 39 C-1.5 39.99 -1.5 40.98 -1.5 42 C-4.14 42.99 -6.78 43.98 -9.5 45 C-9.17 45.33 -8.84 45.66 -8.5 46 C-7.51 45.34 -6.52 44.68 -5.5 44 C-3.16800612 43.92094936 -0.83167378 43.91201231 1.5 44 C0.1330202 49.21937743 -1.73710261 52.23710261 -5.5 56 C-8.3125 56.875 -8.3125 56.875 -10.5 57 C-10.5 57.66 -10.5 58.32 -10.5 59 C-11.16 59 -11.82 59 -12.5 59 C-12.5 59.66 -12.5 60.32 -12.5 61 C-14.15 61.66 -15.8 62.32 -17.5 63 C-20.69635603 56.60728793 -17.30357976 48.39196145 -15.5 42 C-15.17 41.01 -14.84 40.02 -14.5 39 C-13.84 39 -13.18 39 -12.5 39 C-12.5 37.35 -12.5 35.7 -12.5 34 C-11.84 34 -11.18 34 -10.5 34 C-10.5 33.01 -10.5 32.02 -10.5 31 C-11.16 31 -11.82 31 -12.5 31 C-12.86552803 29.58622218 -13.21695495 28.16879424 -13.5625 26.75 C-13.75972656 25.96109375 -13.95695313 25.1721875 -14.16015625 24.359375 C-14.52253257 21.84356698 -14.48878961 20.33996286 -13.5 18 C-12.51 17.67 -11.52 17.34 -10.5 17 C-9.36723151 14.1142881 -9.49401507 11.55392431 -9.6875 8.5 C-9.73769886 5.10878816 -9.73526236 4.31368314 -7.625 1.5 C-3.91525424 -1.11864407 -3.91525424 -1.11864407 0 0 Z " fill="#730F10" transform="translate(24.5,26)"/>
<path d="M0 0 C-0.13277344 0.54527344 -0.26554687 1.09054688 -0.40234375 1.65234375 C-1.52646869 6.45243931 -2.26334851 11.02628771 -2.4609375 15.95703125 C-3.26971765 19.02219079 -4.42866057 20.15570063 -7 22 C-9.73682971 22.2911521 -12.03940039 22.38322418 -14.75 22.25 C-15.44738281 22.23195313 -16.14476562 22.21390625 -16.86328125 22.1953125 C-18.57611539 22.14838554 -20.28823824 22.07664605 -22 22 C-22 20.35 -22 18.7 -22 17 C-22.99 17 -23.98 17 -25 17 C-25.33 18.32 -25.66 19.64 -26 21 C-26.66 21 -27.32 21 -28 21 C-28.2475 21.639375 -28.495 22.27875 -28.75 22.9375 C-30 25 -30 25 -32.125 25.75 C-33.053125 25.87375 -33.053125 25.87375 -34 26 C-33.67 26.66 -33.34 27.32 -33 28 C-33.66 28 -34.32 28 -35 28 C-35 28.99 -35 29.98 -35 31 C-36.258125 31.350625 -37.51625 31.70125 -38.8125 32.0625 C-42.36081385 33.39311769 -42.85946811 33.74801178 -44.8125 37.25 C-45.204375 38.4875 -45.59625 39.725 -46 41 C-46.54794149 42.31864424 -47.11001044 43.63152591 -47.6875 44.9375 C-48.120625 45.948125 -48.55375 46.95875 -49 48 C-49.33 48 -49.66 48 -50 48 C-49.65870284 39.02388464 -48.38398832 31.06078599 -42.5 24 C-37.37009378 19.89607502 -36.21484151 20 -29 20 C-28.34 15.05 -27.68 10.1 -27 5 C-26.67 5 -26.34 5 -26 5 C-25.67 6.98 -25.34 8.96 -25 11 C-24.01 11 -23.02 11 -22 11 C-22 11.99 -22 12.98 -22 14 C-21.34 14 -20.68 14 -20 14 C-20 13.01 -20 12.02 -20 11 C-18.8125 9.6875 -18.8125 9.6875 -17 8 C-16.195625 6.989375 -15.39125 5.97875 -14.5625 4.9375 C-9.92965335 -0.3733242 -6.76338267 -0.22544609 0 0 Z " fill="#F9F5F2" transform="translate(58,37)"/>
<path d="M0 0 C0 12.87 0 25.74 0 39 C-1.485 38.505 -1.485 38.505 -3 38 C-3 37.34 -3 36.68 -3 36 C-3.66 36 -4.32 36 -5 36 C-5 37.32 -5 38.64 -5 40 C-10.67276511 40.29341888 -13.99067246 40.00559652 -19 37 C-18.2575 36.13375 -17.515 35.2675 -16.75 34.375 C-12.1944023 28.00235479 -9.64373138 19.20393374 -9.9375 11.375 C-10.00727589 7.60710198 -9.4868631 6.68581215 -7 4 C-6.67 3.01 -6.34 2.02 -6 1 C-4 0 -4 0 0 0 Z " fill="#800303" transform="translate(96,0)"/>
<path d="M0 0 C-1.29296197 7.34946805 -3.10945178 14.95095866 -9 20 C-11.88211302 20.96070434 -13.69850044 21.10581883 -16.6875 21.0625 C-17.89986328 21.04896484 -17.89986328 21.04896484 -19.13671875 21.03515625 C-19.75160156 21.02355469 -20.36648437 21.01195313 -21 21 C-19.75739817 12.98800011 -17.32749103 6.9577698 -11.1875 1.5 C-7.09621378 -0.42531116 -4.47765047 -0.30880348 0 0 Z " fill="#7D0505" transform="translate(58,37)"/>
<path d="M0 0 C2.1519437 3.22791555 2.20086443 4.28400809 2 8 C2.99 7.79375 3.98 7.5875 5 7.375 C9.37837888 6.72137698 12.79347412 7.74542211 17 9 C18.16725375 13.27993042 18.26657443 16.7253113 17 21 C13.8125 23.0625 13.8125 23.0625 10 24 C6.5625 23.1875 6.5625 23.1875 4 22 C3.67 19.69 3.34 17.38 3 15 C2.01 15 1.02 15 0 15 C-0.103125 16.0725 -0.20625 17.145 -0.3125 18.25 C-0.97400493 21.85820872 -1.57483421 23.36395023 -4 26 C-4.66 25.67 -5.32 25.34 -6 25 C-5.73445313 24.28457031 -5.46890625 23.56914063 -5.1953125 22.83203125 C-2.51776113 15.27820932 -0.9742405 7.94775146 0 0 Z " fill="#770B0C" transform="translate(65,41)"/>
<path d="M0 0 C5.28 0 10.56 0 16 0 C16 0.66 16 1.32 16 2 C17.32 2.33 18.64 2.66 20 3 C19.35195168 8.50841075 16.97401552 12.4415667 12.625 15.875 C9.56828219 17.18502192 7.29299001 17.22974349 4 17 C5.60754039 10.86211851 8.57117858 7.42882142 13 3 C8.84903546 3.24417438 6.54629151 3.56544994 3.25 6.1875 C0.99530118 9.00587352 -0.54447388 11.70591458 -2 15 C-7.60576923 14.10817308 -7.60576923 14.10817308 -9.921875 13.47265625 C-12.17625579 12.95991175 -14.19014464 12.86708954 -16.5 12.875 C-17.2528125 12.87242188 -18.005625 12.86984375 -18.78125 12.8671875 C-21.008508 13.00050928 -22.89057822 13.27087378 -25 14 C-26.28436734 15.9837767 -26.28436734 15.9837767 -27 18 C-28.125 14.25 -28.125 14.25 -27 12 C-24.22557198 11.07519066 -22.31902129 10.82744302 -19.4375 10.71875 C-18.55835938 10.68136719 -17.67921875 10.64398438 -16.7734375 10.60546875 C-14 10.5 -14 10.5 -11.2265625 10.39453125 C-10.34742187 10.35714844 -9.46828125 10.31976563 -8.5625 10.28125 C-7.75941406 10.25095703 -6.95632812 10.22066406 -6.12890625 10.18945312 C-3.81296822 10.06592896 -3.81296822 10.06592896 -1 9 C-1.020625 7.88625 -1.04125 6.7725 -1.0625 5.625 C-1 2 -1 2 0 0 Z " fill="#770D10" transform="translate(65,9)"/>
<path d="M0 0 C3.40596414 1.50825439 3.4605849 1.8988917 4.9375 5.6875 C5.123125 6.780625 5.30875 7.87375 5.5 9 C7.30066242 6.0534615 9.00163895 3.11198065 10.5 0 C11.16 0.66 11.82 1.32 12.5 2 C12.23445313 2.60585938 11.96890625 3.21171875 11.6953125 3.8359375 C9.17062517 9.82515926 7.53696263 15.58720481 6.5 22 C4.5549 19.08235 4.04723683 17.37462715 3.5 14 C2.283125 14.20625 1.06625 14.4125 -0.1875 14.625 C-3.84806773 15.09963844 -6.17611512 14.76581384 -9.5 13 C-10.12790698 4.8372093 -10.12790698 4.8372093 -7.625 1.5 C-3.91525424 -1.11864407 -3.91525424 -1.11864407 0 0 Z " fill="#741A1A" transform="translate(24.5,26)"/>
<path d="M0 0 C2.38438403 0.33505923 2.38438403 0.33505923 6.0703125 0.25390625 C7.27599303 4.9259183 7.16413676 9.46886917 7.0703125 14.25390625 C6.3484375 13.73828125 5.6265625 13.22265625 4.8828125 12.69140625 C1.49113454 10.95788196 0.65556359 11.25337106 -2.9296875 12.25390625 C-5.61773039 12.74688709 -8.19377352 13.02965101 -10.9296875 13.25390625 C-11.5896875 12.59390625 -12.2496875 11.93390625 -12.9296875 11.25390625 C-12.5546875 7.62890625 -12.5546875 7.62890625 -11.9296875 4.25390625 C-10.9396875 3.92390625 -9.9496875 3.59390625 -8.9296875 3.25390625 C-8.5996875 2.26390625 -8.2696875 1.27390625 -7.9296875 0.25390625 C-5.16419177 -1.12884162 -2.96820206 -0.44579461 0 0 Z " fill="#7E0809" transform="translate(22.9296875,39.74609375)"/>
<path d="M0 0 C0.33 0 0.66 0 1 0 C0.64278666 9.23396486 -0.43123467 18.96259876 -7.25 25.8125 C-9.44507064 27.48380107 -10.45622068 28.02190355 -13.23046875 27.91015625 C-15.4375 27.375 -15.4375 27.375 -19 26 C-19.33 24.02 -19.66 22.04 -20 20 C-17.69 19.34 -15.38 18.68 -13 18 C-14.32 17.34 -15.64 16.68 -17 16 C-15.1746875 15.6596875 -15.1746875 15.6596875 -13.3125 15.3125 C-8.94974787 14.18911056 -6.79275088 12.64609142 -4 9 C-2.4961565 6.06134187 -1.19902359 3.07459123 0 0 Z " fill="#F9F8F5" transform="translate(86,10)"/>
<path d="M0 0 C1.65 0 3.3 0 5 0 C6 3 6 3 5 6 C3.68 6.33 2.36 6.66 1 7 C1 34.06 1 61.12 1 89 C1.99 89.33 2.98 89.66 4 90 C2.515 90.99 2.515 90.99 1 92 C1.66 92.33 2.32 92.66 3 93 C2.34 93 1.68 93 1 93 C1.33 93.99 1.66 94.98 2 96 C1.34 96 0.68 96 0 96 C0 64.32 0 32.64 0 0 Z " fill="#8C1312" transform="translate(0,0)"/>
<path d="M0 0 C6.46153846 0.46153846 6.46153846 0.46153846 9 3 C8.8125 6.5 8.8125 6.5 8 10 C5 12 5 12 1.9375 11.8125 C-1 11 -1 11 -3 8 C-2.55555556 2.55555556 -2.55555556 2.55555556 0 0 Z " fill="#FBF8F7" transform="translate(74,52)"/>
<path d="M0 0 C7.50769231 -0.36923077 7.50769231 -0.36923077 10 1.5 C10.33 1.995 10.66 2.49 11 3 C8.525 2.505 8.525 2.505 6 2 C5.773125 2.886875 5.54625 3.77375 5.3125 4.6875 C3.37668467 9.57312917 0.3092041 12.12719727 -4 15 C-6.73990408 14.96856707 -9.28417854 14.44521663 -12 14 C-10 12 -10 12 -7.6875 10.9375 C-3.76054061 8.10643625 -2.10798893 4.27876903 0 0 Z " fill="#F5E4E5" transform="translate(26,70)"/>
<path d="M0 0 C0.33 0.99 0.66 1.98 1 3 C2.32 2.34 3.64 1.68 5 1 C5.99 1.66 6.98 2.32 8 3 C8.1875 5.625 8.1875 5.625 8 8 C7.41992188 8.10957031 6.83984375 8.21914063 6.2421875 8.33203125 C1.40253723 9.3143365 -2.65366116 10.54821911 -7 13 C-7 11.35 -7 9.7 -7 8 C-7.66 8 -8.32 8 -9 8 C-9.33 6.68 -9.66 5.36 -10 4 C-3.25 2 -3.25 2 -1 2 C-0.67 1.34 -0.34 0.68 0 0 Z " fill="#6F0705" transform="translate(21,49)"/>
<path d="M0 0 C1 3 1 3 0.3125 5.5625 C-1.23823975 8.44244525 -1.92307964 9.00207988 -5 10 C-9.47372054 11.00430461 -13.14126561 10.88363676 -17.625 10.25 C-21.39317222 9.74720855 -21.39317222 9.74720855 -24.81640625 11.04296875 C-26.36603275 12.54441749 -26.36603275 12.54441749 -28 15 C-28.99 14.67 -29.98 14.34 -31 14 C-29.35 11.03 -27.7 8.06 -26 5 C-23.7725 5.495 -23.7725 5.495 -21.5 6 C-13.23815294 7.64078153 -13.23815294 7.64078153 -5.1875 5.75 C-3.00963118 4.00770494 -1.5239984 2.32610282 0 0 Z " fill="#721214" transform="translate(58,67)"/>
<path d="M0 0 C1.175625 0.0825 2.35125 0.165 3.5625 0.25 C5.5625 3.25 5.5625 3.25 5.375 5.8125 C4.5625 8.25 4.5625 8.25 1.5625 10.25 C-1 10.0625 -1 10.0625 -3.4375 9.25 C-5.4375 6.25 -5.4375 6.25 -5.125 3.625 C-4.0656444 -0.03459209 -4.03038524 0.29311893 0 0 Z " fill="#F8F4F3" transform="translate(21.4375,27.75)"/>
<path d="M0 0 C2 3.75 2 3.75 2 6 C3.65 6 5.3 6 7 6 C6.67 8.31 6.34 10.62 6 13 C1.12335991 13.34833144 -1.77050005 12.41685712 -6 10 C-5.65066406 9.52949219 -5.30132812 9.05898438 -4.94140625 8.57421875 C-4.48636719 7.95160156 -4.03132813 7.32898437 -3.5625 6.6875 C-2.88380859 5.76517578 -2.88380859 5.76517578 -2.19140625 4.82421875 C-0.82663692 2.90322899 -0.82663692 2.90322899 0 0 Z " fill="#6C1F23" transform="translate(83,27)"/>
<path d="M0 0 C0.66 0.33 1.32 0.66 2 1 C2.680625 1.165 3.36125 1.33 4.0625 1.5 C6 2 6 2 7 3 C6.90982004 5.19050021 6.75333792 7.378466 6.5625 9.5625 C6.46066406 10.76003906 6.35882813 11.95757812 6.25390625 13.19140625 C6.17011719 14.11824219 6.08632812 15.04507813 6 16 C5.67 16 5.34 16 5 16 C4.67 14.02 4.34 12.04 4 10 C1.69 10 -0.62 10 -3 10 C-2.01 6.7 -1.02 3.4 0 0 Z " fill="#F7E9E7" transform="translate(58,38)"/>
<path d="M0 0 C0.66 0.33 1.32 0.66 2 1 C1.01 2.98 0.02 4.96 -1 7 C-6.60576923 6.10817308 -6.60576923 6.10817308 -8.921875 5.47265625 C-11.17625579 4.95991175 -13.19014464 4.86708954 -15.5 4.875 C-16.2528125 4.87242188 -17.005625 4.86984375 -17.78125 4.8671875 C-20.008508 5.00050928 -21.89057822 5.27087378 -24 6 C-25.28436734 7.9837767 -25.28436734 7.9837767 -26 10 C-27.125 6.25 -27.125 6.25 -26 4 C-23.2106299 3.07020997 -21.33340528 2.84019075 -18.4375 2.75390625 C-17.55835938 2.72103516 -16.67921875 2.68816406 -15.7734375 2.65429688 C-13.9246042 2.5931031 -12.07563764 2.53581066 -10.2265625 2.48242188 C-9.34742187 2.44826172 -8.46828125 2.41410156 -7.5625 2.37890625 C-6.75941406 2.3538501 -5.95632812 2.32879395 -5.12890625 2.30297852 C-2.70327039 2.11413219 -2.70327039 2.11413219 0 0 Z " fill="#701A1E" transform="translate(64,17)"/>
<path d="M0 0 C1.37432457 3.81756824 0.67975039 7.07255329 0 11 C1.32 11 2.64 11 4 11 C4.33 10.01 4.66 9.02 5 8 C5.99 8 6.98 8 8 8 C8.33 7.34 8.66 6.68 9 6 C11.0625 4.875 11.0625 4.875 13 4 C11.82191948 7.3529984 10.80593388 9.7552529 8 12 C5.11788698 12.96070434 3.30149956 13.10581883 0.3125 13.0625 C-0.89986328 13.04896484 -0.89986328 13.04896484 -2.13671875 13.03515625 C-3.05904297 13.01775391 -3.05904297 13.01775391 -4 13 C-3.71517632 11.58194169 -3.42181856 10.16559621 -3.125 8.75 C-2.96257813 7.96109375 -2.80015625 7.1721875 -2.6328125 6.359375 C-2.00849925 4.03168856 -1.15161458 2.10968048 0 0 Z " fill="#6A2020" transform="translate(41,45)"/>
<path d="M0 0 C0.66 0.66 1.32 1.32 2 2 C1.01 3.485 1.01 3.485 0 5 C0.99 5.66 1.98 6.32 3 7 C3.33 6.01 3.66 5.02 4 4 C4.99 4 5.98 4 7 4 C5.5435664 7.83968859 3.71785783 9.31006462 0 11 C-3.3125 11.1875 -3.3125 11.1875 -6 11 C-4.74194623 6.49197399 -3.09592835 3.5087188 0 0 Z " fill="#6E1819" transform="translate(75,15)"/>
<path d="M0 0 C2.31 0 4.62 0 7 0 C7.33 2.97 7.66 5.94 8 9 C5.69 9.33 3.38 9.66 1 10 C0.67 6.7 0.34 3.4 0 0 Z " fill="#7D0301" transform="translate(66,39)"/>
<path d="M0 0 C-0.28241641 1.46015291 -0.57626614 2.91809793 -0.875 4.375 C-1.03742187 5.18710937 -1.19984375 5.99921875 -1.3671875 6.8359375 C-2 9 -2 9 -4 11 C-4.33 8.69 -4.66 6.38 -5 4 C-8.3 4.66 -11.6 5.32 -15 6 C-9.52533382 0.38126366 -7.60105179 -0.12259761 0 0 Z " fill="#712224" transform="translate(58,37)"/>
<path d="M0 0 C0.66 0.33 1.32 0.66 2 1 C1.01 3.97 0.02 6.94 -1 10 C6.97997276 9.4167838 6.97997276 9.4167838 13.625 5.5625 C14.07875 4.716875 14.5325 3.87125 15 3 C15.66 2.01 16.32 1.02 17 0 C18 3 18 3 17.25 5.5 C15.33014354 9.33971292 15.33014354 9.33971292 13 11 C10.35003674 11.2172101 7.94923442 11.28351554 5.3125 11.1875 C4.2596582 11.16719727 4.2596582 11.16719727 3.18554688 11.14648438 C1.45670171 11.11120182 -0.27174765 11.05739583 -2 11 C-2 8.36 -2 5.72 -2 3 C-1.34 3 -0.68 3 0 3 C0 2.01 0 1.02 0 0 Z " fill="#EBD4CF" transform="translate(38,48)"/>
<path d="M0 0 C0 0.33 0 0.66 0 1 C-1.65 1 -3.3 1 -5 1 C-5.33 1.66 -5.66 2.32 -6 3 C-6.9590625 3.1546875 -6.9590625 3.1546875 -7.9375 3.3125 C-8.618125 3.539375 -9.29875 3.76625 -10 4 C-11.29660434 6.49034386 -11.29660434 6.49034386 -12 9 C-12.66 9 -13.32 9 -14 9 C-14.66 10.65 -15.32 12.3 -16 14 C-16.66 13.67 -17.32 13.34 -18 13 C-16.52718638 7.24263768 -13.97131633 4.07992143 -9.125 0.6875 C-6.06338216 -0.30302342 -3.19036265 -0.12270626 0 0 Z " fill="#EDD7D3" transform="translate(29,57)"/>
<path d="M0 0 C-1.20842856 4.43090471 -2.51668565 6.98112756 -6 10 C-5.67 8.02 -5.34 6.04 -5 4 C-6.32 4 -7.64 4 -9 4 C-9 4.66 -9 5.32 -9 6 C-10.32 5.67 -11.64 5.34 -13 5 C-8.58490204 0.69258736 -6.42286118 -0.64228612 0 0 Z " fill="#691A1C" transform="translate(26,70)"/>
<path d="M0 0 C0.66 0.66 1.32 1.32 2 2 C1.195625 2.226875 0.39125 2.45375 -0.4375 2.6875 C-3.21514767 3.75056378 -3.21514767 3.75056378 -3.9375 6.4375 C-4.25162602 9.24528606 -4.25162602 9.24528606 -2 12 C1.56769552 12.73606499 1.56769552 12.73606499 5 13 C4.67 13.99 4.34 14.98 4 16 C0.14354879 16.22036864 -2.49223216 15.60355101 -6 14 C-6.62790698 5.8372093 -6.62790698 5.8372093 -4.125 2.5 C-2 1 -2 1 0 0 Z " fill="#6E1110" transform="translate(21,25)"/>
<path d="M0 0 C-0.7425 0.5775 -1.485 1.155 -2.25 1.75 C-4.66087643 3.72253526 -6.84042701 5.76044282 -9 8 C-9 6.68 -9 5.36 -9 4 C-12.11785113 4.64644661 -12.11785113 4.64644661 -13 7 C-13.66 6.67 -14.32 6.34 -15 6 C-10.64761292 -0.12558182 -7.38446896 -1.71731836 0 0 Z " fill="#EFD2CE" transform="translate(80,12)"/>
<path d="M0 0 C1 3 1 3 0.3125 5.125 C-1.31298937 7.44712767 -2.29884649 7.47719609 -5 8 C-5.33 8.66 -5.66 9.32 -6 10 C-7.32 9.34 -8.64 8.68 -10 8 C-9.34 6.35 -8.68 4.7 -8 3 C-6.35 3 -4.7 3 -3 3 C-3 2.34 -3 1.68 -3 1 C-2.01 0.67 -1.02 0.34 0 0 Z " fill="#74090B" transform="translate(84,12)"/>
<path d="M0 0 C0.99 0 1.98 0 3 0 C2.125 7.75 2.125 7.75 1 10 C0.01 9.67 -0.98 9.34 -2 9 C-2.33 8.34 -2.66 7.68 -3 7 C-3.99 7.495 -3.99 7.495 -5 8 C-4.34 6.35 -3.68 4.7 -3 3 C-2.34 3 -1.68 3 -1 3 C-0.67 2.01 -0.34 1.02 0 0 Z " fill="#FBECEB" transform="translate(68,16)"/>
<path d="M0 0 C1.59826058 4.79478174 -0.81550263 8.62384298 -3 13 C-5.25 15.625 -5.25 15.625 -7 17 C-6.38091483 9.44716088 -6.38091483 9.44716088 -4.5625 7.3125 C-4.046875 6.879375 -3.53125 6.44625 -3 6 C-2.29289322 4.35008418 -1.62056011 2.68437744 -1 1 C-0.67 0.67 -0.34 0.34 0 0 Z " fill="#F9E6E2" transform="translate(62,54)"/>
<path d="M0 0 C6.75 0.75 6.75 0.75 9 3 C8.8125 6.5 8.8125 6.5 8 10 C5 12 5 12 2.8125 11.625 C2.214375 11.41875 1.61625 11.2125 1 11 C1.99 11 2.98 11 4 11 C4.33 8.36 4.66 5.72 5 3 C2.525 2.01 2.525 2.01 0 1 C0 0.67 0 0.34 0 0 Z " fill="#F6E1DC" transform="translate(74,52)"/>
<path d="M0 0 C0.33 0.99 0.66 1.98 1 3 C1.61875 2.649375 2.2375 2.29875 2.875 1.9375 C3.57625 1.628125 4.2775 1.31875 5 1 C5.66 1.33 6.32 1.66 7 2 C6.2890625 3.953125 6.2890625 3.953125 5 6 C2.8359375 6.609375 2.8359375 6.609375 0.375 6.75 C-0.44226563 6.80671875 -1.25953125 6.8634375 -2.1015625 6.921875 C-2.72804688 6.94765625 -3.35453125 6.9734375 -4 7 C-3.30621489 3.73988358 -2.54106009 2.20961747 0 0 Z " fill="#830306" transform="translate(21,49)"/>
<path d="M0 0 C0.33 0.99 0.66 1.98 1 3 C0.67 3.66 0.34 4.32 0 5 C0.66 5.66 1.32 6.32 2 7 C-2.1795645 9.78637633 -4.14668677 8.79562512 -9 8 C-7 6 -7 6 -4.5 4.5625 C-1.76297015 3.09034084 -1.76297015 3.09034084 0 0 Z " fill="#EDC8C2" transform="translate(23,76)"/>
<path d="M0 0 C1.65 0 3.3 0 5 0 C6 3 6 3 5 6 C3.35 6.33 1.7 6.66 0 7 C0 4.69 0 2.38 0 0 Z " fill="#861A19" transform="translate(0,0)"/>
<path d="M0 0 C1.32 1.65 2.64 3.3 4 5 C2.35 8.3 0.7 11.6 -1 15 C-1.33 15 -1.66 15 -2 15 C-1.85816304 13.24967156 -1.71136571 11.49974466 -1.5625 9.75 C-1.48128906 8.77546875 -1.40007813 7.8009375 -1.31640625 6.796875 C-1.04925416 4.43538247 -0.64628032 2.28098935 0 0 Z " fill="#EEC4C3" transform="translate(10,70)"/>
<path d="M0 0 C2.0625 0.4375 2.0625 0.4375 4 1 C3.01 2.485 3.01 2.485 2 4 C1.83286431 6.62531524 1.83286431 6.62531524 2 9 C2.99 9.33 3.98 9.66 5 10 C2.625 9.6875 2.625 9.6875 0 9 C-2 6 -2 6 -1.6875 3.375 C-1 1 -1 1 0 0 Z " fill="#EED0D1" transform="translate(18,28)"/>
<path d="M0 0 C0.66 0 1.32 0 2 0 C2.625 2.3125 2.625 2.3125 3 5 C2.01 6.485 2.01 6.485 1 8 C-0.65 7.67 -2.3 7.34 -4 7 C-3.34 5.35 -2.68 3.7 -2 2 C-1.34 2 -0.68 2 0 2 C0 1.34 0 0.68 0 0 Z " fill="#FAEEED" transform="translate(26,74)"/>
<path d="M0 0 C0.66 0.66 1.32 1.32 2 2 C-0.17634879 7.19905543 -2.52575392 9.76331134 -7 13 C-7.66 13 -8.32 13 -9 13 C-8.67 12.01 -8.34 11.02 -8 10 C-7.34 10 -6.68 10 -6 10 C-5.67 9.34 -5.34 8.68 -5 8 C-2.9375 6.875 -2.9375 6.875 -1 6 C-1.33 4.68 -1.66 3.36 -2 2 C-1.34 2 -0.68 2 0 2 C0 1.34 0 0.68 0 0 Z " fill="#F7E0DF" transform="translate(82,25)"/>
<path d="M0 0 C0.99 0 1.98 0 3 0 C2.67 1.98 2.34 3.96 2 6 C2.99 6.33 3.98 6.66 5 7 C4.67 7.99 4.34 8.98 4 10 C1.69 10 -0.62 10 -3 10 C-2.505 9.46375 -2.01 8.9275 -1.5 8.375 C0.37489544 5.40641555 0.23501425 3.44687573 0 0 Z " fill="#7B1719" transform="translate(82,54)"/>
<path d="M0 0 C1.65 0.33 3.3 0.66 5 1 C4.67 2.65 4.34 4.3 4 6 C2.35 5.67 0.7 5.34 -1 5 C-0.67 3.35 -0.34 1.7 0 0 Z " fill="#F5D5CE" transform="translate(83,34)"/>
<path d="M0 0 C0.99 0.33 1.98 0.66 3 1 C3 2.98 3 4.96 3 7 C1.02 7 -0.96 7 -3 7 C-3 6.01 -3 5.02 -3 4 C-2.34 4 -1.68 4 -1 4 C-0.67 2.68 -0.34 1.36 0 0 Z " fill="#851715" transform="translate(93,89)"/>
<path d="M0 0 C0.66 0.33 1.32 0.66 2 1 C2 1.99 2 2.98 2 4 C1.34 4 0.68 4 0 4 C-0.4021875 5.7015625 -0.4021875 5.7015625 -0.8125 7.4375 C-1.204375 8.613125 -1.59625 9.78875 -2 11 C-2.99 11.33 -3.98 11.66 -5 12 C-5 10.68 -5 9.36 -5 8 C-4.34 8 -3.68 8 -3 8 C-2.690625 6.865625 -2.38125 5.73125 -2.0625 4.5625 C-1 1 -1 1 0 0 Z " fill="#7D1C1B" transform="translate(12,77)"/>
<path d="M0 0 C0.33 0 0.66 0 1 0 C1 1.65 1 3.3 1 5 C0.38511719 5.13277344 -0.22976562 5.26554687 -0.86328125 5.40234375 C-2.07564453 5.66724609 -2.07564453 5.66724609 -3.3125 5.9375 C-4.11300781 6.11152344 -4.91351563 6.28554688 -5.73828125 6.46484375 C-8.145401 6.99886159 -8.145401 6.99886159 -11 8 C-11.66 7.34 -12.32 6.68 -13 6 C-12.14535156 5.65066406 -11.29070313 5.30132812 -10.41015625 4.94140625 C-9.30542969 4.48636719 -8.20070313 4.03132813 -7.0625 3.5625 C-5.96035156 3.11003906 -4.85820312 2.65757813 -3.72265625 2.19140625 C-1.13431084 1.25575392 -1.13431084 1.25575392 0 0 Z " fill="#671113" transform="translate(28,52)"/>
<path d="M0 0 C1.65 0 3.3 0 5 0 C5 1.65 5 3.3 5 5 C3.125 5.625 3.125 5.625 1 6 C0.34 5.34 -0.32 4.68 -1 4 C-0.625 1.875 -0.625 1.875 0 0 Z " fill="#F1CFCC" transform="translate(11,47)"/>
<path d="M0 0 C1.21185923 3.63557769 0.59260392 4.63783618 -1 8 C-2 9 -2 9 -4.5625 9.0625 C-5.366875 9.041875 -6.17125 9.02125 -7 9 C-7.33 8.34 -7.66 7.68 -8 7 C-7.236875 6.5875 -6.47375 6.175 -5.6875 5.75 C-3.0633358 4.04124191 -1.69678024 2.58982247 0 0 Z " fill="#761D1A" transform="translate(58,67)"/>
<path d="M0 0 C1.67542976 0.28604898 3.34385343 0.61781233 5 1 C4.2575 1.53625 3.515 2.0725 2.75 2.625 C-0.17674961 5.15264739 -1.98621339 7.71827368 -4 11 C-4.75 9.375 -4.75 9.375 -5 7 C-3.50594347 4.4601039 -2.09462345 2.09462345 0 0 Z " fill="#F7E0DE" transform="translate(45,36)"/>
<path d="M0 0 C0.66 0.66 1.32 1.32 2 2 C-1.78083258 4.52055505 -5.61718019 4.46702178 -10 4 C-12.5 3 -12.5 3 -14 2 C-12.4840625 2.061875 -12.4840625 2.061875 -10.9375 2.125 C-6.81923948 1.99426157 -3.88169467 1.26749214 0 0 Z " fill="#F6D8D8" transform="translate(52,71)"/>
<path d="M0 0 C2.16750011 3.25125017 2.68533358 5.14533632 3 9 C2.0625 11.375 2.0625 11.375 1 13 C0.34 12.34 -0.32 11.68 -1 11 C-0.9765625 8.3984375 -0.9765625 8.3984375 -0.625 5.375 C-0.51414062 4.37210938 -0.40328125 3.36921875 -0.2890625 2.3359375 C-0.19367188 1.56507812 -0.09828125 0.79421875 0 0 Z " fill="#781E1D" transform="translate(65,41)"/>
<path d="M0 0 C0.33 0 0.66 0 1 0 C1.3690205 9.41002278 1.3690205 9.41002278 -1 14 C-1.66 14 -2.32 14 -3 14 C-2.69024532 12.22868439 -2.37709575 10.45796222 -2.0625 8.6875 C-1.88847656 7.70136719 -1.71445313 6.71523438 -1.53515625 5.69921875 C-1 3 -1 3 0 0 Z " fill="#6F1C20" transform="translate(87,13)"/>
<path d="M0 0 C0.33 0 0.66 0 1 0 C2.07763474 4.49014476 2.37757467 6.33010946 0.0625 10.4375 C-0.618125 11.283125 -1.29875 12.12875 -2 13 C-2.66 12.67 -3.32 12.34 -4 12 C-2.68 8.04 -1.36 4.08 0 0 Z " fill="#751F20" transform="translate(63,54)"/>
<path d="M0 0 C2.31 0 4.62 0 7 0 C5.35 1.98 3.7 3.96 2 6 C1.34 5.67 0.68 5.34 0 5 C0 3.35 0 1.7 0 0 Z " fill="#6C090D" transform="translate(66,39)"/>
<path d="M0 0 C0.66 0.33 1.32 0.66 2 1 C1.01 2.98 0.02 4.96 -1 7 C-3.97 6.505 -3.97 6.505 -7 6 C-2.25 1.125 -2.25 1.125 0 0 Z " fill="#752728" transform="translate(64,17)"/>
<path d="M0 0 C0 1.98 0 3.96 0 6 C-0.99 6 -1.98 6 -3 6 C-3 5.34 -3 4.68 -3 4 C-4.32 4 -5.64 4 -7 4 C-6.67 3.01 -6.34 2.02 -6 1 C-4 0 -4 0 0 0 Z " fill="#891A1B" transform="translate(96,0)"/>
<path d="M0 0 C1.65 0 3.3 0 5 0 C5 0.66 5 1.32 5 2 C5.99 2.33 6.98 2.66 8 3 C7.67 3.66 7.34 4.32 7 5 C6.34 4.67 5.68 4.34 5 4 C5 4.66 5 5.32 5 6 C3.35 6 1.7 6 0 6 C0.66 4.68 1.32 3.36 2 2 C1.34 1.34 0.68 0.68 0 0 Z " fill="#801A1A" transform="translate(76,9)"/>
<path d="M0 0 C0 0.33 0 0.66 0 1 C-0.61488281 1.12117188 -1.22976562 1.24234375 -1.86328125 1.3671875 C-2.67152344 1.53476563 -3.47976562 1.70234375 -4.3125 1.875 C-5.11300781 2.03742188 -5.91351563 2.19984375 -6.73828125 2.3671875 C-9.25301118 2.94478999 -9.25301118 2.94478999 -12 5 C-11.66260373 2.469528 -11.3938922 1.3181437 -9.375 -0.3125 C-6.05401826 -1.27383682 -3.35382798 -0.64496692 0 0 Z " fill="#F5DBDC" transform="translate(26,69)"/>
<path d="M0 0 C0.66 0 1.32 0 2 0 C0.6302836 3.99500618 -1.25722422 6.80009492 -4 10 C-4.33 9.01 -4.66 8.02 -5 7 C-4.07421875 5.17578125 -4.07421875 5.17578125 -2.6875 3.3125 C-2.23761719 2.68988281 -1.78773437 2.06726563 -1.32421875 1.42578125 C-0.88722656 0.95527344 -0.45023438 0.48476563 0 0 Z " fill="#F5DEDA" transform="translate(40,23)"/>
<path d="M0 0 C0.99 0.33 1.98 0.66 3 1 C2.34 1 1.68 1 1 1 C1 1.66 1 2.32 1 3 C1.66 3 2.32 3 3 3 C3 3.99 3 4.98 3 6 C2.34 6 1.68 6 1 6 C1 7.65 1 9.3 1 11 C0.67 11 0.34 11 0 11 C-0.19406478 9.35492782 -0.38007935 7.70890406 -0.5625 6.0625 C-0.66691406 5.14597656 -0.77132813 4.22945312 -0.87890625 3.28515625 C-0.91886719 2.53105469 -0.95882813 1.77695312 -1 1 C-0.67 0.67 -0.34 0.34 0 0 Z " fill="#830809" transform="translate(11,54)"/>
<path d="M0 0 C0.66 0 1.32 0 2 0 C1.4375 2.375 1.4375 2.375 0 5 C-3.625 6.3125 -3.625 6.3125 -7 7 C-6.67 6.01 -6.34 5.02 -6 4 C-5.01 4 -4.02 4 -3 4 C-2.67 3.34 -2.34 2.68 -2 2 C-1.34 1.34 -0.68 0.68 0 0 Z " fill="#721818" transform="translate(52,49)"/>
<path d="M0 0 C0.33 0 0.66 0 1 0 C0.67 3.63 0.34 7.26 0 11 C-1.32 10.34 -2.64 9.68 -4 9 C-2.68 6.03 -1.36 3.06 0 0 Z " fill="#E7B0AB" transform="translate(86,10)"/>
<path d="M0 0 C0.33 0 0.66 0 1 0 C0.979375 0.94875 0.95875 1.8975 0.9375 2.875 C0.77448174 5.90666283 0.77448174 5.90666283 2 8 C1.34 8.66 0.68 9.32 0 10 C-2 7 -2 7 -1.6875 3.875 C-1 1 -1 1 0 0 Z " fill="#F1D2CD" transform="translate(73,53)"/>
<path d="M0 0 C0.33 0.66 0.66 1.32 1 2 C2.65 2 4.3 2 6 2 C5.67 4.31 5.34 6.62 5 9 C4.34 8.67 3.68 8.34 3 8 C3 6.68 3 5.36 3 4 C1.68 3.34 0.36 2.68 -1 2 C-0.67 1.34 -0.34 0.68 0 0 Z " fill="#721518" transform="translate(84,31)"/>
<path d="M0 0 C0.33 0.66 0.66 1.32 1 2 C-1.1732987 4.4992935 -2.68300548 5.60976535 -6 6 C-8.75 5.5625 -8.75 5.5625 -11 5 C-11 4.67 -11 4.34 -11 4 C-9.1128125 3.566875 -9.1128125 3.566875 -7.1875 3.125 C-4.1460601 2.42696461 -2.69330122 1.79553415 0 0 Z " fill="#F0D0CD" transform="translate(80,22)"/>
<path d="M0 0 C2.31 0 4.62 0 7 0 C7.33 0.99 7.66 1.98 8 3 C4.79937313 4.60031344 2.27728194 3.03173691 -1 2 C-0.67 1.34 -0.34 0.68 0 0 Z " fill="#741B1C" transform="translate(75,50)"/>
<path d="M0 0 C2.64 0 5.28 0 8 0 C7.67 0.99 7.34 1.98 7 3 C4.625 3.1875 4.625 3.1875 2 3 C1.34 2.01 0.68 1.02 0 0 Z " fill="#6A0A0A" transform="translate(18,38)"/>
<path d="M0 0 C-0.33 0.99 -0.66 1.98 -1 3 C-1.66 3 -2.32 3 -3 3 C-3.33 3.66 -3.66 4.32 -4 5 C-6.31 4.67 -8.62 4.34 -11 4 C-11 3.67 -11 3.34 -11 3 C-9.88625 2.690625 -8.7725 2.38125 -7.625 2.0625 C-0.58823529 0 -0.58823529 0 0 0 Z " fill="#791A1D" transform="translate(27,82)"/>
<path d="M0 0 C0.99 0.66 1.98 1.32 3 2 C2.34 3.98 1.68 5.96 1 8 C-2 4.25 -2 4.25 -2 2 C-1.34 2 -0.68 2 0 2 C0 1.34 0 0.68 0 0 Z " fill="#7B0507" transform="translate(19,72)"/>
<path d="M0 0 C2.475 0.99 2.475 0.99 5 2 C5 2.99 5 3.98 5 5 C3.35 4.67 1.7 4.34 0 4 C-0.33 3.01 -0.66 2.02 -1 1 C-0.67 0.67 -0.34 0.34 0 0 Z " fill="#F5F7F2" transform="translate(50,67)"/>
<path d="M0 0 C0.66 0.66 1.32 1.32 2 2 C1.625 4.625 1.625 4.625 1 7 C0.34 7 -0.32 7 -1 7 C-1.33 7.99 -1.66 8.98 -2 10 C-1.125 2.25 -1.125 2.25 0 0 Z " fill="#F1D7D4" transform="translate(34,32)"/>
<path d="M0 0 C0.99 0.33 1.98 0.66 3 1 C3.625 3.375 3.625 3.375 4 6 C3.34 6.66 2.68 7.32 2 8 C1.34 5.36 0.68 2.72 0 0 Z " fill="#EDCBCA" transform="translate(23,28)"/>
<path d="M0 0 C2.97 0.495 2.97 0.495 6 1 C5.67 1.66 5.34 2.32 5 3 C1.9375 3.625 1.9375 3.625 -1 4 C-0.67 2.68 -0.34 1.36 0 0 Z " fill="#691E22" transform="translate(32,72)"/>
<path d="M0 0 C3.375 0.25 3.375 0.25 7 1 C8.4375 3.0625 8.4375 3.0625 9 5 C8.1646875 4.566875 8.1646875 4.566875 7.3125 4.125 C4.91505355 2.9586747 2.48403061 1.9660119 0 1 C0 0.67 0 0.34 0 0 Z " fill="#F7D8D4" transform="translate(74,52)"/>
</svg>
