<svg version="1.1" id="Layer_1" xmlns="http://www.w3.org/2000/svg" xmlns:xlink="http://www.w3.org/1999/xlink" x="0px" y="0px"
	 width="100%" viewBox="0 0 235 235" enable-background="new 0 0 235 235" xml:space="preserve">
<path fill="#FFFFFF" opacity="1.000000" stroke="none" 
	d="
M155.000000,236.000000 
	C103.333336,236.000000 52.166672,236.000000 1.000005,236.000000 
	C1.000000,159.000015 1.029119,81.999969 0.903828,5.000179 
	C0.898256,1.575800 1.575633,0.898079 5.000137,0.903774 
	C80.666595,1.029628 156.333344,1.029624 231.999817,0.903782 
	C235.424179,0.898087 236.101913,1.575598 236.096222,5.000123 
	C235.970367,80.666580 235.970398,156.333344 236.096222,231.999802 
	C236.101929,235.424149 235.427933,236.125626 231.999313,236.100662 
	C206.500641,235.915161 181.000015,236.000000 155.000000,236.000000 
z"/>
<path fill="#F8FBFC" opacity="1.000000" stroke="none" 
	d="
M37.522816,170.390289 
	C39.638489,161.112747 36.207031,150.566528 42.552338,142.412140 
	C46.684307,137.102127 49.337193,131.484573 51.836514,125.340240 
	C53.213615,121.954765 56.028790,118.193413 59.151615,115.360863 
	C61.424564,113.299187 63.239204,111.388664 60.079544,108.438110 
	C58.043446,106.536766 59.326294,105.457199 61.523296,104.648117 
	C66.894592,102.670013 69.767151,98.738678 71.657829,93.233917 
	C73.067680,89.129105 75.095375,85.020905 77.934990,81.373116 
	C80.997330,77.439209 82.818542,72.682724 83.284996,67.601036 
	C83.374557,66.625313 82.922249,65.190918 84.306503,65.419136 
	C91.830734,66.659683 90.423027,59.527531 92.758377,56.149616 
	C93.711876,54.770443 94.059326,52.645287 95.281517,51.019539 
	C96.742622,49.076004 97.219597,46.445896 98.257118,44.435013 
	C101.302353,38.532799 107.093201,34.116688 107.142143,26.448898 
	C107.146317,25.795746 110.544640,22.696665 112.133675,20.471916 
	C114.306496,17.429840 117.940170,17.348125 120.582413,20.410566 
	C125.793175,26.450005 130.548782,32.844902 132.387283,40.818642 
	C133.419342,45.294716 136.927094,47.205753 140.393707,49.111992 
	C142.883102,50.480873 144.032959,52.294842 144.017120,55.089130 
	C143.990524,59.780773 145.258957,63.842667 149.801727,66.216209 
	C150.298264,66.475647 150.871262,67.194588 150.873703,67.702980 
	C150.910278,75.325653 156.208206,80.830139 159.508865,86.832855 
	C162.614838,92.481445 165.318451,98.908089 169.789444,103.402351 
	C172.602478,106.230049 174.872421,109.095993 175.541519,112.438248 
	C177.582733,122.634254 186.845078,128.254395 190.423126,137.206192 
	C192.115311,141.439819 194.775421,144.459229 197.390915,147.875946 
	C198.996155,149.972916 197.212204,153.264175 196.146164,155.803040 
	C194.887909,158.799698 193.247406,161.649048 197.812668,163.274826 
	C198.987549,163.693222 198.936752,164.800247 198.981934,165.785812 
	C199.328674,173.347916 199.793243,180.907730 199.959625,188.474014 
	C200.097000,194.720581 198.922501,195.406891 192.742584,197.153473 
	C185.676300,199.150589 178.525482,196.248627 171.298630,198.448944 
	C168.498169,199.301575 165.381927,194.667511 165.082153,190.670975 
	C164.915848,188.454117 164.740021,186.525269 163.058624,184.795395 
	C161.561584,183.255142 161.877014,181.480743 163.507980,179.981659 
	C167.347702,176.452377 167.391235,172.694672 164.185516,168.701584 
	C162.918503,167.123383 161.805786,165.102875 162.695236,163.266861 
	C163.705582,161.181351 165.805328,162.470535 167.589600,162.598007 
	C172.018723,162.914398 176.491287,161.953003 180.884384,163.694412 
	C182.774307,164.443573 184.136398,162.286926 185.371521,161.210007 
	C186.268646,160.427795 185.271790,158.544434 184.416718,157.692352 
	C183.068130,156.348450 181.766525,157.347534 180.520782,158.373276 
	C179.269363,159.403702 177.641724,158.985001 176.170166,158.986481 
	C156.596222,159.006317 137.021439,158.909866 117.449127,159.089249 
	C114.262619,159.118454 111.730110,157.551025 108.824478,156.986160 
	C104.354713,156.117218 100.492592,158.843399 96.286423,158.927094 
	C85.465202,159.142426 74.636856,158.999435 63.811356,159.000397 
	C62.812107,159.000488 61.810646,158.965775 60.814194,159.020111 
	C59.688995,159.081467 58.246845,158.903915 58.316219,160.632950 
	C58.370747,161.991852 59.611778,161.956573 60.578739,161.985916 
	C66.734306,162.172867 72.894226,162.503662 79.045761,162.394791 
	C81.511955,162.351120 81.838646,163.522949 82.013123,165.697205 
	C82.156868,166.216263 82.291954,166.361404 82.434349,166.805389 
	C82.372101,167.495636 82.297646,167.886093 82.182167,168.570923 
	C82.092346,169.447235 82.030373,170.027420 81.933716,170.872711 
	C81.830521,171.435318 81.688980,171.838821 82.129799,171.880325 
	C82.789024,171.942352 81.873138,172.084885 82.514435,171.413635 
	C83.491592,171.012802 84.252434,171.019638 85.309944,171.168701 
	C86.536842,171.489639 87.471375,171.779190 88.747437,171.328766 
	C89.245621,171.146866 89.449844,171.074692 89.977180,170.918732 
	C93.222511,170.713837 92.640137,172.314316 91.638336,174.297165 
	C91.071060,174.920715 90.694336,175.218262 89.961472,175.627319 
	C88.977867,175.875610 89.824211,175.836823 89.162819,175.920517 
	C83.766304,176.603439 81.907471,178.574234 83.154541,184.002838 
	C84.020943,187.774399 84.001617,191.882019 86.124329,195.635132 
	C82.496284,198.096619 80.549477,197.330093 81.193718,193.022049 
	C81.576202,190.464371 80.973167,188.373199 79.300575,186.658310 
	C77.350571,184.659012 73.562859,183.606369 76.749237,179.612869 
	C77.411636,178.782700 75.848312,178.154648 74.886124,177.857376 
	C73.960434,177.571411 73.060013,176.892288 72.087204,177.657532 
	C71.142281,178.400848 71.071060,179.277237 71.800827,180.239578 
	C72.099686,180.633682 72.633682,181.384521 72.573334,181.439667 
	C68.440086,185.216156 71.443367,190.342300 70.038406,194.479279 
	C69.020103,197.477737 66.807922,200.801926 62.595535,197.436890 
	C62.262074,197.170502 61.522476,197.012192 61.195179,197.197815 
	C55.364597,200.504684 49.271435,196.994995 43.316559,197.888367 
	C40.676659,198.284424 37.812931,197.559464 37.193298,194.101257 
	C38.126179,194.090179 38.712990,193.846466 39.617226,193.571350 
	C40.564034,193.472534 41.185791,193.580231 42.116806,193.722672 
	C42.839401,193.805573 43.253883,193.840454 43.984562,193.866211 
	C44.725147,193.863464 45.150291,193.862488 45.900124,193.852509 
	C46.661537,193.833298 47.098309,193.829102 47.867149,193.818405 
	C48.645161,193.799911 49.091187,193.795746 49.875458,193.782227 
	C51.730206,193.767807 53.242012,193.611679 54.568027,192.849945 
	C57.390945,191.228271 60.196152,190.937317 63.069714,192.670425 
	C63.184284,192.739532 63.402702,192.854843 63.538860,192.791550 
	C63.914707,192.616791 63.900650,192.317810 63.381935,191.750580 
	C61.702961,188.044495 64.524994,185.742676 65.524429,182.622192 
	C65.641006,181.659622 65.622169,181.031830 65.009087,180.272156 
	C64.602539,179.949020 64.437195,179.823257 64.037720,179.486206 
	C63.688900,179.094666 63.574215,178.914429 63.367535,178.422699 
	C63.062984,177.011475 63.788673,176.045761 63.592262,174.700577 
	C62.360573,173.509308 61.042145,172.722336 61.359608,170.657791 
	C61.640415,169.999954 61.911648,169.717468 62.552109,169.472031 
	C63.158859,169.415741 63.491047,169.448776 64.016548,169.504456 
	C64.216255,169.475861 64.475388,169.202896 64.476715,169.014862 
	C64.478043,168.826828 64.208496,168.503052 63.724693,168.342087 
	C62.415535,168.060913 61.581207,168.010773 60.437462,167.794968 
	C59.308693,167.506500 58.512104,167.234985 57.353016,167.256256 
	C55.750431,167.375778 54.608673,167.919617 53.175282,168.644928 
	C52.446117,168.968582 52.013863,169.127762 51.234184,169.378479 
	C49.239609,170.012146 47.572113,170.323257 45.522438,169.684387 
	C44.824486,169.254883 44.504707,168.923737 44.083641,168.256668 
	C43.348148,167.120605 42.724709,167.045517 42.136547,167.927216 
	C41.106789,169.470917 39.710899,170.352753 37.522816,170.390289 
z"/>
<path fill="#F8FBFC" opacity="1.000000" stroke="none" 
	d="
M112.733505,210.760437 
	C112.923515,212.103317 112.639664,213.401260 111.610390,213.474670 
	C104.198280,214.003571 96.268333,217.093201 90.151680,209.268005 
	C89.573227,208.257935 89.972267,207.825134 90.717010,207.245850 
	C91.230965,205.245956 91.694733,203.044281 93.395767,202.533890 
	C98.625244,200.964844 96.223602,198.884735 94.046692,196.323318 
	C93.666779,195.638260 93.464432,195.230469 93.463173,194.406403 
	C93.711708,193.642395 93.964119,193.263428 94.548279,192.726212 
	C96.428459,191.876144 97.775894,190.934479 98.640892,188.976318 
	C99.254303,188.504608 99.679787,188.378784 100.473343,188.360016 
	C101.499886,188.553879 102.116478,188.864120 102.951569,189.494171 
	C103.446449,190.131851 103.590645,190.564026 103.568344,191.365631 
	C103.799210,192.136414 102.385872,192.068253 103.531937,192.797089 
	C104.237137,193.222076 104.618057,193.547241 105.101265,193.707367 
	C102.599106,189.933441 105.590210,187.779129 107.749428,185.038208 
	C108.662773,183.530975 108.962814,182.295319 107.882851,180.742371 
	C107.323128,179.929749 107.028008,179.349792 106.694443,178.441620 
	C106.542412,177.516586 106.696381,176.944336 107.178619,176.188141 
	C107.474518,175.838882 107.604134,175.711639 107.899139,175.384888 
	C108.076157,175.014938 108.087784,174.844452 107.950813,174.448227 
	C107.163979,173.465225 106.704063,172.624176 106.605606,171.324890 
	C107.375725,169.698349 106.935936,168.998505 105.161964,168.763275 
	C104.006554,168.442673 103.176369,168.150024 101.971268,167.931702 
	C98.306175,167.898773 94.963280,167.820572 91.591629,169.771149 
	C88.976448,170.441940 86.742355,170.569458 84.175873,169.457214 
	C83.282829,168.391907 83.217804,167.539169 83.864014,166.300797 
	C86.550026,162.271439 90.714859,165.101883 93.982094,163.365555 
	C95.969368,162.309433 99.067871,161.573212 101.901421,161.390152 
	C107.890167,161.003265 110.259315,166.116623 114.175369,168.854324 
	C114.599678,169.150970 114.987465,170.333115 114.775749,170.583694 
	C110.192940,176.007904 118.211075,180.235840 116.168999,185.435440 
	C115.867798,186.202377 116.902046,187.031738 117.799217,186.752625 
	C119.532990,186.213242 121.306496,185.384674 121.834610,183.496796 
	C122.308098,181.804123 121.806099,179.719421 124.568863,179.045883 
	C127.953903,182.893509 124.974442,187.212830 125.559517,191.848206 
	C127.108635,188.879532 126.237236,186.049896 127.572952,183.326431 
	C129.065231,182.428696 129.618362,183.406189 130.462112,184.497742 
	C131.408173,186.744080 131.240326,188.751251 131.276855,191.070648 
	C131.291489,191.613419 131.299530,191.823212 131.341370,192.327759 
	C131.454987,192.992981 131.626160,193.309952 132.178360,193.639862 
	C132.995514,193.802307 133.545456,193.754028 134.369247,193.490494 
	C134.841049,193.302673 135.030563,193.221313 135.508957,193.013214 
	C136.196060,192.717377 136.602524,192.571106 137.347534,192.385529 
	C138.133774,192.317535 138.580170,192.378403 139.336304,192.623230 
	C144.584747,194.354874 149.338608,194.989502 153.431183,190.151062 
	C155.268204,190.372803 158.077789,189.010574 157.672058,192.099258 
	C157.344055,194.596359 156.642609,197.479660 153.256836,197.938492 
	C151.142944,198.224945 148.986694,197.736084 146.871780,198.522141 
	C145.249466,199.125092 143.417435,199.688141 143.453918,201.577057 
	C143.494812,203.693161 145.574692,203.825027 147.184250,203.948990 
	C149.332626,204.114456 151.540054,203.943741 152.936584,206.520508 
	C150.840057,209.214539 147.745972,207.085419 145.185913,208.730179 
	C144.596741,211.792740 142.393951,210.766083 140.390686,210.998230 
	C139.169571,209.745651 139.035797,208.333206 139.037354,206.739594 
	C138.822937,208.050873 138.916702,209.273590 138.176529,210.668365 
	C136.997543,212.315979 135.755493,212.184418 134.218048,211.282318 
	C132.465652,209.676712 132.450226,208.242676 133.593933,206.635574 
	C133.190414,206.753677 132.985641,206.998032 132.631073,207.515381 
	C132.170532,208.086365 131.823868,208.307663 131.096497,208.453278 
	C129.812790,208.207901 129.410767,207.510269 129.313446,206.289536 
	C129.383759,205.576401 130.010025,205.484680 129.936249,205.102127 
	C129.877060,204.795242 129.610367,204.911194 129.229889,205.445984 
	C125.503159,205.345688 122.131958,205.312805 119.476532,209.439407 
	C123.477814,205.809189 123.655373,205.853928 125.989975,210.685883 
	C122.606750,213.731827 119.028748,213.448853 115.183327,211.351532 
	C114.688889,210.709930 114.437943,210.346207 114.197403,209.612061 
	C114.070625,208.212265 113.780106,207.298981 112.221436,207.020660 
	C110.308334,206.392319 108.663628,206.484024 106.698441,206.687012 
	C105.772339,206.572510 105.178658,206.394730 104.283417,206.191574 
	C103.236397,205.971298 102.502350,205.740097 101.513298,205.461197 
	C101.261734,205.400925 100.775017,205.334976 100.545349,205.365601 
	C100.006775,205.539581 99.802582,205.774796 99.610237,206.363876 
	C99.416412,206.791885 99.315445,206.957947 98.964005,207.296509 
	C98.508904,207.516357 98.304283,207.563721 97.781708,207.581406 
	C97.012756,207.358887 96.564117,207.162125 96.215469,206.799454 
	C96.863335,207.551880 96.771309,208.844223 98.282578,209.130188 
	C98.821716,209.016525 99.043945,208.970505 99.614265,208.873032 
	C101.200508,208.706284 102.442520,208.693954 104.081268,208.679749 
	C107.226501,208.864426 109.930725,209.250534 112.733505,210.760437 
z"/>
<path fill="#F8FBFC" opacity="1.000000" stroke="none" 
	d="
M125.296326,176.970490 
	C121.540871,176.152069 119.443947,173.658783 120.517090,170.513062 
	C121.576302,167.408173 121.682259,163.215942 127.660805,163.406693 
	C133.416153,163.590317 139.353958,162.320770 145.240417,161.996613 
	C147.685211,161.861984 148.705414,163.089203 149.135300,165.504959 
	C149.655334,168.427368 150.691010,171.261963 151.564621,174.115860 
	C151.996597,175.527023 152.318527,177.088516 154.385422,177.010895 
	C155.364914,176.974106 156.557953,177.010300 156.749298,178.291519 
	C156.996201,179.944611 155.859726,180.643356 154.061432,181.065521 
	C153.501953,181.172653 153.328125,181.218307 152.910873,181.167664 
	C152.327942,180.917191 152.040527,181.004730 151.683899,181.525818 
	C151.086121,183.461609 151.239304,185.112061 151.821152,187.102859 
	C151.945312,187.703217 151.981308,187.952606 152.021423,188.592377 
	C151.561981,192.618042 148.933640,193.219391 145.523254,193.310120 
	C144.817719,193.272400 144.536575,193.244019 143.843445,193.118164 
	C140.006119,191.496857 140.600632,188.520203 140.992859,185.787491 
	C141.690826,180.924362 143.016953,176.161499 143.463623,170.928894 
	C143.475189,170.379639 143.866776,170.185638 143.542938,170.182861 
	C142.586746,172.568405 143.654144,175.123550 141.749863,177.317200 
	C140.391556,177.890472 139.420624,177.710312 138.205719,176.900299 
	C137.231918,175.895447 136.930878,174.942764 136.462219,173.680542 
	C136.277313,173.123962 136.212402,172.900879 136.077820,172.341187 
	C135.875580,171.131409 135.893280,170.249435 135.825500,169.069763 
	C135.738434,168.387527 135.647629,168.014450 135.311890,167.461151 
	C134.793182,167.063324 134.456802,166.893280 133.819519,166.674164 
	C132.726501,166.384232 131.928268,166.447357 130.828735,166.758301 
	C129.322723,167.158356 128.022476,167.087296 126.752541,168.023346 
	C126.309166,169.218170 126.437225,170.215637 126.291504,171.467743 
	C126.598450,172.928619 127.776314,172.899826 128.819611,173.607040 
	C129.251740,174.233673 129.222717,174.647903 128.788345,175.290787 
	C127.639862,176.125397 126.645554,176.564590 125.296326,176.970490 
z"/>
<path fill="#839BB2" opacity="1.000000" stroke="none" 
	d="
M144.403717,168.776154 
	C143.937714,174.735794 143.058167,180.449097 142.453903,186.191406 
	C142.249725,188.131683 140.859344,190.421249 143.645935,192.222412 
	C144.035065,192.369064 144.495453,192.435898 144.727158,192.415482 
	C147.238831,191.723495 150.839325,193.200653 150.878387,188.401825 
	C151.068146,187.845856 151.201813,187.679611 151.133316,187.265320 
	C149.969360,185.257401 150.295135,183.413803 150.758270,181.275467 
	C151.348938,180.609344 151.825897,180.468369 152.691467,180.775238 
	C153.012817,180.995514 153.340775,181.087646 153.508270,181.107330 
	C153.664108,182.489090 153.652435,183.851181 153.696335,185.620758 
	C154.287811,186.342209 154.495880,186.803940 154.068054,187.693268 
	C153.728882,188.426407 153.697861,188.879654 153.705353,189.672394 
	C151.339111,195.248230 145.836700,196.671646 138.894592,193.437500 
	C137.259018,187.711884 139.679947,182.798355 140.722290,177.345642 
	C142.339066,174.673477 141.468018,171.964050 142.465759,169.206329 
	C143.081726,168.551361 143.567673,168.445160 144.403717,168.776154 
z"/>
<path fill="#CDD1DC" opacity="1.000000" stroke="none" 
	d="
M90.506897,207.044022 
	C90.714005,207.533371 90.458588,207.996506 90.096169,208.702332 
	C87.293198,208.960526 84.597221,208.976013 81.451874,209.007202 
	C80.473427,209.427811 79.893364,209.923553 79.262550,209.923523 
	C69.771042,209.922882 60.271885,210.497482 50.395111,209.304535 
	C47.957809,208.993973 45.916161,208.983383 43.437180,208.986389 
	C40.563881,210.463760 38.246193,211.240952 36.841156,207.466187 
	C47.715858,206.995270 58.386654,206.962082 69.524544,206.898468 
	C71.653809,205.806854 73.381737,205.432724 75.622833,206.615997 
	C80.688698,206.916443 85.366531,206.967117 90.506897,207.044022 
z"/>
<path fill="#CCD1DC" opacity="1.000000" stroke="none" 
	d="
M145.469040,208.996460 
	C143.972382,207.927094 144.350647,207.164993 145.672089,207.066559 
	C147.817154,206.906815 149.979492,206.978897 152.574615,206.915192 
	C154.076172,206.894913 155.137634,206.912537 156.596649,206.901947 
	C161.014252,205.662918 165.072571,205.370667 169.596695,206.611832 
	C177.692078,206.881073 185.375290,206.904434 193.525543,206.895660 
	C195.328964,206.204590 196.844971,205.993881 197.258789,207.679276 
	C197.666702,209.340607 196.093369,209.840103 194.733185,210.092194 
	C193.720673,210.279816 192.758530,209.962662 191.413361,209.297974 
	C175.977997,209.010010 160.957764,208.996643 145.469040,208.996460 
z"/>
<path fill="#7792AC" opacity="1.000000" stroke="none" 
	d="
M86.339233,196.014877 
	C83.745598,193.843506 82.412331,191.400742 82.884338,188.133286 
	C83.062180,186.902161 83.226334,185.495804 81.751671,184.623627 
	C80.024467,183.602081 80.354248,182.744995 82.009315,181.857513 
	C83.499123,181.058624 83.472404,179.370468 82.591393,178.451126 
	C78.705559,174.396149 82.586563,175.275635 84.645370,175.120850 
	C86.121269,175.009903 87.616432,175.155212 89.549057,175.230347 
	C90.127083,175.468140 90.259041,175.661774 90.412018,176.206116 
	C90.342827,176.772751 90.252617,176.988663 89.899826,177.434113 
	C85.009842,180.753967 90.574890,180.869507 91.190811,182.790329 
	C91.329239,183.341385 91.317833,183.575333 91.101440,184.095505 
	C85.041389,186.823517 85.003838,187.124420 89.627548,194.681580 
	C89.432716,195.513306 89.137619,195.886093 88.365837,196.191315 
	C87.555130,196.159073 87.112587,196.111557 86.339233,196.014877 
z"/>
<path fill="#F8FBFC" opacity="1.000000" stroke="none" 
	d="
M50.006443,209.391953 
	C60.021465,208.996506 70.043472,208.988434 80.533989,209.001617 
	C80.042999,212.203171 77.533272,212.159500 74.988602,211.807510 
	C68.097923,210.854324 61.256283,209.835968 54.474106,212.634415 
	C52.073170,213.625092 50.199932,212.764435 50.006443,209.391953 
z"/>
<path fill="#E7F2F7" opacity="1.000000" stroke="none" 
	d="
M89.455864,195.259857 
	C89.297256,192.454376 86.486847,193.243881 85.498901,191.839996 
	C83.231567,188.618088 85.610771,184.582901 90.553452,184.056534 
	C94.574432,186.503738 94.896843,189.861618 93.855194,193.927902 
	C94.010803,194.598175 94.005493,194.994675 93.998428,195.688263 
	C93.553070,195.988480 93.109451,195.991608 92.333084,195.992737 
	C91.162529,196.090866 90.376198,195.951096 89.455864,195.259857 
z"/>
<path fill="#96AABD" opacity="1.000000" stroke="none" 
	d="
M125.017006,177.333389 
	C125.472748,176.155563 125.946175,175.274475 127.424255,175.404907 
	C129.968124,177.488571 129.459427,179.861176 128.283569,182.631989 
	C127.834030,185.938751 128.070526,188.934036 127.132271,191.808731 
	C126.766228,192.930252 127.185181,194.931381 125.180481,194.535233 
	C123.400688,194.183517 124.035851,192.411423 124.117073,191.190842 
	C124.368042,187.419373 124.725800,183.655029 124.989792,179.441498 
	C124.978897,178.551834 125.020302,178.108566 125.017006,177.333389 
z"/>
<path fill="#DFE6EA" opacity="1.000000" stroke="none" 
	d="
M129.711060,204.971619 
	C130.150070,205.858658 130.309402,206.724319 130.734619,207.791779 
	C131.358017,208.316147 131.539276,208.722107 131.489212,209.539291 
	C131.008392,210.512680 130.402847,210.829346 129.347778,210.988647 
	C128.249832,210.995178 127.502098,211.006653 126.380722,211.027954 
	C125.420891,210.488937 124.760078,209.998779 124.269356,209.374863 
	C123.771126,208.741394 124.212151,207.184937 122.531891,207.801544 
	C121.166412,208.302673 122.413643,209.091980 122.252632,209.641953 
	C121.747993,211.365631 120.241615,211.197205 119.063576,210.703842 
	C117.583702,210.084091 118.068474,208.946274 118.776443,207.880539 
	C120.818138,204.807083 125.736816,203.437210 129.711060,204.971619 
z"/>
<path fill="#F8FBFC" opacity="1.000000" stroke="none" 
	d="
M37.909210,186.855942 
	C36.883713,186.848618 36.016338,186.894852 35.682236,186.495239 
	C34.809040,185.450836 35.736488,173.248611 37.038200,171.895279 
	C37.981316,171.597214 38.500504,171.644363 39.259941,172.256882 
	C39.741718,173.095795 39.861389,173.636642 39.857143,174.621246 
	C38.620514,178.839066 40.415386,183.027008 37.909210,186.855942 
z"/>
<path fill="#DFE6EA" opacity="1.000000" stroke="none" 
	d="
M114.746162,208.711777 
	C114.982582,209.432663 114.994743,209.888626 115.005951,210.687286 
	C114.562370,211.034485 114.119751,211.038986 113.345604,211.055328 
	C110.284966,210.710602 107.555840,210.354019 104.413055,209.997818 
	C103.516914,209.564545 103.269119,209.021225 103.276733,208.075592 
	C103.387062,207.592667 103.461594,207.409409 103.729568,207.006866 
	C104.431641,206.534821 104.974770,206.366608 105.756378,206.052231 
	C107.810440,205.974182 109.537163,204.229187 111.710327,205.897614 
	C112.766548,206.942032 113.761948,207.572571 114.746162,208.711777 
z"/>
<path fill="#F8FBFC" opacity="1.000000" stroke="none" 
	d="
M191.066101,209.391312 
	C192.462387,208.980301 193.928360,208.967758 195.389893,208.880875 
	C196.086212,208.839478 196.757233,208.411484 196.370590,207.697342 
	C196.142075,207.275269 195.288101,207.191803 194.353973,206.909805 
	C194.405334,204.783020 195.979980,204.484604 197.250885,205.500122 
	C198.709015,206.665253 200.265808,208.210129 199.847565,210.463959 
	C199.515137,212.255264 197.954712,211.963211 196.687698,211.984222 
	C194.539093,212.019852 192.377457,212.014221 191.066101,209.391312 
z"/>
<path fill="#728EA8" opacity="1.000000" stroke="none" 
	d="
M37.592949,187.444962 
	C37.856670,182.740509 38.205265,178.475464 38.679398,173.780258 
	C41.092007,173.909424 41.417839,175.821152 41.382069,177.626312 
	C41.287273,182.410309 41.881023,187.222687 40.659279,192.407150 
	C39.887932,193.293320 39.283184,193.520294 38.110992,193.390900 
	C37.645775,191.470963 37.661800,189.677673 37.592949,187.444962 
z"/>
<path fill="#F8FBFC" opacity="1.000000" stroke="none" 
	d="
M36.750687,206.903778 
	C37.776672,210.275986 40.415810,208.467865 42.592033,208.983749 
	C43.043156,211.376892 42.137726,214.109360 39.743095,213.465683 
	C37.009117,212.730789 34.734653,210.135986 34.442764,206.905136 
	C34.356705,205.952591 35.724384,206.463486 36.750687,206.903778 
z"/>
<path fill="#F8FBFC" opacity="1.000000" stroke="none" 
	d="
M169.935410,206.513397 
	C165.978806,206.889267 161.948730,206.920837 157.456421,206.913055 
	C159.835846,204.178406 166.742523,203.800217 169.935410,206.513397 
z"/>
<path fill="#7A94AA" opacity="1.000000" stroke="none" 
	d="
M83.795074,165.954941 
	C84.151375,166.698517 84.151688,167.442596 84.195526,168.555923 
	C85.872231,170.791580 89.432083,167.665787 90.094208,171.594055 
	C89.804161,171.891281 89.382874,171.953384 89.184250,172.030060 
	C88.287315,172.552383 87.510750,172.480774 86.374100,172.319992 
	C84.941216,172.159576 83.874062,172.125702 82.407471,172.126373 
	C81.822418,172.214722 81.636810,172.268494 81.239433,172.124329 
	C81.039307,170.942215 81.050941,169.958054 81.089798,168.603485 
	C81.221359,168.032516 81.325691,167.831955 81.567970,167.321594 
	C81.778442,166.861633 81.850967,166.711487 81.972641,166.316223 
	C82.494217,166.032562 82.966660,165.994003 83.795074,165.954941 
z"/>
<path fill="#9BAEC2" opacity="1.000000" stroke="none" 
	d="
M39.614388,171.830780 
	C38.644424,172.030029 38.299633,171.952530 37.697586,171.838104 
	C37.378483,171.473160 37.316631,171.145172 37.228100,170.570938 
	C38.913818,169.088867 41.252468,168.793777 41.954365,166.087936 
	C42.292912,164.782837 43.976639,164.603073 44.471123,166.857574 
	C43.800964,169.400101 42.119797,170.570602 39.614388,171.830780 
z"/>
<path fill="#DFE6EA" opacity="1.000000" stroke="none" 
	d="
M138.335953,210.980148 
	C137.888901,210.666016 137.602814,210.300995 137.685318,210.064606 
	C138.353806,208.149139 136.823303,204.507019 138.790359,204.535767 
	C140.716827,204.563919 140.155731,208.204987 140.115417,210.680862 
	C139.552673,210.994141 139.110199,210.991501 138.335953,210.980148 
z"/>
<path fill="#DEE1E4" opacity="1.000000" stroke="none" 
	d="
M130.928589,210.381729 
	C130.982529,209.595215 130.989304,209.137711 130.998291,208.336884 
	C131.311584,207.878448 131.567596,207.688950 131.885361,207.213669 
	C132.539566,206.476196 133.072433,205.945587 133.802780,205.213608 
	C136.257919,204.132233 136.388077,205.260284 135.462708,206.773361 
	C134.754456,207.931442 132.978729,208.552719 133.990967,210.709076 
	C133.559906,211.019531 133.115555,211.015610 132.338013,211.018555 
	C131.553162,211.196106 131.174973,211.104507 130.928589,210.381729 
z"/>
<path fill="#F8FBFC" opacity="1.000000" stroke="none" 
	d="
M75.959961,206.525208 
	C74.290169,206.893021 72.569473,206.920303 70.420212,206.907806 
	C71.642159,203.852417 73.478020,202.441711 75.959961,206.525208 
z"/>
<path fill="#F8FBFC" opacity="1.000000" stroke="none" 
	d="
M154.134338,187.984558 
	C153.724854,187.540009 153.689819,187.106827 153.703354,186.350952 
	C154.071411,186.016800 154.413391,185.925278 154.706558,186.007584 
	C156.055862,186.386414 157.402939,184.437210 158.654266,185.946671 
	C158.928452,186.277420 158.793625,187.271835 158.485916,187.702515 
	C157.337936,189.309357 155.830154,187.653381 154.134338,187.984558 
z"/>
<path fill="#F8FBFC" opacity="1.000000" stroke="none" 
	d="
M89.099991,195.282837 
	C90.046333,195.185638 90.840111,195.339920 91.817108,195.742477 
	C91.258575,198.657425 89.887383,198.559082 88.075478,196.536545 
	C88.314262,195.982498 88.630844,195.758408 89.099991,195.282837 
z"/>
<path fill="#F8FBFC" opacity="1.000000" stroke="none" 
	d="
M130.681595,210.057449 
	C131.100784,210.361633 131.299942,210.611465 131.789001,210.913834 
	C131.830582,212.002640 132.405182,213.481339 130.781815,213.574371 
	C129.757019,213.633102 129.279648,212.637756 129.032715,211.325867 
	C129.460861,210.676514 129.924149,210.369339 130.681595,210.057449 
z"/>
<path fill="#9BAEC2" opacity="1.000000" stroke="none" 
	d="
M37.571396,193.445541 
	C38.078342,193.167206 38.526936,193.070160 39.312317,192.915268 
	C39.850567,192.993698 40.052029,193.129959 40.100464,193.597382 
	C39.413803,194.684769 38.750118,194.812469 37.717216,194.172440 
	C37.472313,194.005524 37.513042,193.626816 37.571396,193.445541 
z"/>
<path fill="#4C7EB3" opacity="1.000000" stroke="none" 
	d="
M96.627121,57.858383 
	C102.782692,46.827423 108.861404,36.150356 114.928093,25.466454 
	C116.290154,23.067749 117.488510,22.090290 119.306366,25.249151 
	C129.994980,43.822636 140.778183,62.341682 151.521591,80.883659 
	C152.111221,81.901321 152.544907,82.979248 152.195282,84.596436 
	C143.279922,91.525177 133.838791,97.141701 124.546326,102.973160 
	C102.959785,116.519737 81.434540,130.162521 59.956623,143.879700 
	C56.292641,146.219772 52.352573,148.028732 48.291481,150.405624 
	C47.676170,150.552643 47.419189,150.569916 46.784786,150.487640 
	C43.261097,146.467804 47.828487,144.335281 48.636112,140.926422 
	C48.759232,140.550018 48.788872,140.239304 48.891647,140.121857 
	C52.201103,136.173584 54.053452,131.538574 56.673916,126.954376 
	C56.800648,126.624344 56.857525,126.282036 56.970032,126.149963 
	C58.151291,124.900757 58.762390,123.484589 59.667572,121.887314 
	C59.758671,121.573570 59.795658,121.250122 59.902054,121.126923 
	C63.683720,116.017281 66.823219,110.708328 69.491203,105.122932 
	C70.343140,103.339409 71.359879,101.674263 72.602531,99.768005 
	C72.718109,99.074158 72.813667,98.740616 73.056854,98.190323 
	C73.324814,97.795540 73.445129,97.617523 73.751358,97.176239 
	C73.937263,96.912964 73.977249,97.002716 73.942841,96.967621 
	C74.631393,96.434265 75.147102,95.754944 75.566574,94.688934 
	C75.540016,94.023560 75.630959,93.707047 75.973831,93.223145 
	C77.629997,91.332298 78.296562,89.138924 79.688950,86.991173 
	C79.827957,86.686653 79.918251,86.318008 80.047211,86.178795 
	C86.183334,77.086845 91.353790,67.641953 96.627121,57.858383 
z"/>
<path fill="#59BED7" opacity="1.000000" stroke="none" 
	d="
M170.567917,113.781082 
	C174.501129,120.765511 178.331726,127.440712 182.221497,134.468597 
	C176.904922,137.973175 170.751892,137.356659 164.942047,138.213852 
	C151.147202,140.249207 137.406738,142.706680 123.574165,144.406311 
	C101.656113,147.099442 79.974670,151.425369 57.569942,153.742676 
	C54.538380,154.059341 51.930912,154.064575 48.914875,153.720490 
	C47.048317,152.418152 48.250050,151.671890 49.253120,150.585693 
	C63.062748,144.188721 77.217041,139.777664 91.040184,134.503815 
	C113.729149,125.847450 136.492859,117.384460 159.253540,108.916031 
	C161.261581,108.168907 163.184387,107.038612 165.826126,107.577347 
	C166.185104,107.731384 166.209656,107.791672 166.215103,107.823761 
	C166.216370,108.207245 166.364334,108.474358 166.895981,108.712952 
	C167.127548,108.768700 167.200439,108.795090 167.229645,108.820557 
	C167.582169,109.453598 167.999084,109.997002 168.622055,110.814316 
	C168.825119,111.090263 168.996536,111.475105 169.049942,111.678864 
	C169.234787,112.175934 169.414139,112.436226 169.795929,112.844734 
	C169.950439,113.025955 170.001373,113.006630 169.984955,113.028412 
	C170.134125,113.190742 170.299713,113.331291 170.567917,113.781082 
z"/>
<path fill="#93D4E5" opacity="1.000000" stroke="none" 
	d="
M166.155762,107.384171 
	C127.705666,122.129684 89.226227,136.527985 50.379753,150.973785 
	C49.220646,151.614594 48.519737,151.496155 47.921928,150.340027 
	C54.773609,145.612869 61.603722,141.298172 68.431190,136.979309 
	C94.760933,120.323898 121.087044,103.662735 147.427673,87.024567 
	C148.677795,86.234924 150.053864,85.644676 151.743683,84.975250 
	C153.014343,84.901443 153.830643,85.195229 154.258911,85.950089 
	C158.238968,92.965317 162.176529,100.004639 166.155762,107.384171 
z"/>
<path fill="#36ADCA" opacity="1.000000" stroke="none" 
	d="
M56.804993,153.409332 
	C62.549744,152.023056 68.173630,150.909683 73.833389,150.026245 
	C83.793526,148.471542 93.769638,147.015488 103.749931,145.594589 
	C117.164391,143.684799 130.618515,142.033234 144.000061,139.919159 
	C154.288574,138.293732 164.562546,136.616501 174.922424,135.515564 
	C177.061279,135.288269 179.206909,135.124557 181.815033,134.876434 
	C184.560959,137.972076 186.750748,141.177246 188.300385,145.130875 
	C188.227646,145.929092 188.330826,146.321228 188.992249,146.735382 
	C190.586090,148.978745 191.863922,151.128555 193.133362,153.633255 
	C190.415237,155.045959 187.582397,154.198715 184.423965,154.650314 
	C182.290543,154.815323 180.558533,154.854523 178.397308,154.831390 
	C159.629227,154.132462 141.285217,154.625000 122.485321,154.640442 
	C118.647087,154.807312 115.267487,154.853104 111.431084,154.837982 
	C109.542709,154.231964 108.063637,154.548996 106.311340,154.658020 
	C103.631622,154.816132 101.243309,154.852432 98.411194,154.826324 
	C90.610580,154.158569 83.242149,154.608948 75.453667,154.639709 
	C71.975044,154.798508 68.922386,154.838669 65.416130,154.815613 
	C62.661942,154.184586 60.320099,154.633438 57.616463,154.415222 
	C57.053310,154.168854 56.876797,153.977295 56.804993,153.409332 
z"/>
<path fill="#6986A3" opacity="1.000000" stroke="none" 
	d="
M194.100159,172.585114 
	C193.838181,174.702698 194.484192,176.628708 193.101257,178.576569 
	C190.940872,180.796860 188.611038,180.382355 185.900864,179.815887 
	C185.309906,179.492310 185.100677,179.329391 184.796265,178.793716 
	C185.123215,177.312347 186.083344,177.121841 187.094711,176.986053 
	C182.058838,177.364517 177.022751,177.466354 172.208282,177.296844 
	C172.549240,177.995499 172.525482,178.437500 172.135178,179.112610 
	C168.275314,177.289108 167.970612,174.541321 170.551331,171.108261 
	C171.742004,170.253967 172.655533,170.211060 173.867493,170.928436 
	C174.483917,173.295776 176.155914,172.973282 177.598145,172.993927 
	C180.406845,173.034149 183.216339,172.998520 185.718323,173.009079 
	C182.742020,172.663483 179.381058,173.615829 175.893768,172.150818 
	C175.461487,171.378906 175.439087,170.872635 175.767303,170.011475 
	C178.791382,168.022278 181.842209,168.776169 185.202255,168.882690 
	C186.899078,169.854248 188.417679,169.457352 190.212128,169.689850 
	C192.092957,170.056549 193.479065,170.547684 194.100159,172.585114 
z"/>
<path fill="#7895B3" opacity="1.000000" stroke="none" 
	d="
M176.518127,169.647217 
	C176.099426,170.258774 176.056519,170.744873 176.011536,171.597076 
	C175.611633,172.292953 175.155258,172.436234 174.320786,172.198090 
	C173.464325,171.032730 172.525009,171.021988 171.243286,170.972290 
	C171.482651,168.163116 168.174240,169.744598 167.518188,167.358612 
	C171.048813,167.534531 173.821442,164.959579 177.808914,166.464294 
	C180.391357,167.438797 183.592606,167.191177 186.533173,166.183502 
	C189.936432,165.017288 192.942505,166.119598 195.246094,168.801071 
	C193.843674,170.493622 191.908997,169.600449 190.317307,170.735382 
	C189.144745,170.784622 188.225311,170.604828 187.162170,170.242493 
	C183.696030,168.894547 180.268188,169.712219 176.518127,169.647217 
z"/>
<path fill="#E2EEF5" opacity="1.000000" stroke="none" 
	d="
M66.480774,181.427399 
	C67.069931,185.088501 63.257702,187.184448 63.796043,191.022186 
	C61.182880,192.166367 60.244980,191.249557 60.780193,188.523331 
	C61.038704,187.206497 63.320774,185.993713 60.746243,184.437775 
	C57.786110,184.078461 54.744675,185.027893 53.005817,181.454727 
	C52.573059,178.139099 53.312359,175.738525 56.438637,175.010880 
	C59.509480,174.296127 62.331268,174.610718 63.786438,178.618393 
	C64.043488,178.997864 63.996613,178.999908 64.009583,178.980347 
	C64.163010,179.116852 64.303467,179.272888 64.658340,179.660828 
	C65.300507,180.362991 65.748024,180.812988 66.480774,181.427399 
z"/>
<path fill="#7A94AA" opacity="1.000000" stroke="none" 
	d="
M61.769135,183.258820 
	C66.166092,183.862686 63.274906,185.992798 62.692596,187.478882 
	C62.132122,188.909271 59.552044,190.326950 63.490913,191.260773 
	C64.596710,192.311905 66.923195,192.313477 66.307877,193.895569 
	C65.595734,195.726624 63.794662,194.452805 62.993805,193.792252 
	C58.530415,190.110794 54.977966,194.990463 50.562767,194.884552 
	C49.498428,194.445099 49.287930,193.779617 49.393261,192.658112 
	C51.055351,191.319656 51.553223,189.862885 51.727051,186.420013 
	C54.538990,185.331070 57.287254,186.267639 60.043468,185.086060 
	C60.424335,184.729507 60.559879,184.569382 60.901436,184.171112 
	C61.253010,183.781708 61.398579,183.630432 61.769135,183.258820 
z"/>
<path fill="#6E95B1" opacity="1.000000" stroke="none" 
	d="
M96.417435,57.693897 
	C97.324669,59.432285 96.576637,61.111519 95.597321,62.647167 
	C91.226006,69.501717 86.980797,76.420799 83.412903,83.744026 
	C82.961136,84.671272 81.728683,85.218155 80.517044,85.990417 
	C84.659958,76.181480 90.624924,67.162392 96.417435,57.693897 
z"/>
<path fill="#6685A8" opacity="1.000000" stroke="none" 
	d="
M184.635437,177.628113 
	C184.996506,178.086533 184.996567,178.270645 184.996796,178.730896 
	C183.590912,180.859879 181.038803,179.404938 179.457947,181.214417 
	C179.257782,182.164276 178.930908,182.706589 178.209564,183.374756 
	C176.710052,184.155807 175.371811,184.334167 173.728790,184.628937 
	C171.860992,184.355209 171.141357,185.353928 170.246933,186.721283 
	C169.128448,187.271439 168.638779,186.836090 168.446350,185.777130 
	C164.249649,178.970932 170.320175,181.599106 172.567795,180.888107 
	C172.710464,180.842987 172.838486,180.751572 172.973312,180.681702 
	C172.715469,180.400635 172.457642,180.119568 172.043854,179.594284 
	C171.919525,178.893265 171.951187,178.436478 171.985336,177.636902 
	C176.091934,175.552063 180.178589,177.400864 184.635437,177.628113 
z"/>
<path fill="#728EA8" opacity="1.000000" stroke="none" 
	d="
M64.278549,178.712112 
	C61.982880,178.321808 61.339306,175.560898 58.360668,175.860474 
	C55.329243,176.165359 53.651485,176.947769 53.821835,180.593323 
	C53.642529,181.166000 53.460888,181.324310 52.950706,181.634705 
	C51.903843,181.950607 51.198540,181.900253 50.205578,181.479828 
	C49.635441,180.937363 49.452709,180.535553 49.401154,179.770813 
	C49.541992,178.900574 49.766815,178.346313 49.253986,177.562958 
	C48.536053,176.940247 48.048336,176.511169 47.584915,175.616669 
	C47.505795,174.747147 47.672432,174.282272 48.289932,173.616623 
	C50.946743,172.311951 53.447704,172.734131 56.306091,172.612167 
	C57.277306,172.623840 57.833149,172.631592 58.808903,172.652710 
	C60.931622,172.620682 62.424107,173.757187 64.568695,173.630157 
	C67.954926,175.597519 62.982075,176.690201 64.278549,178.712112 
z"/>
<path fill="#59BED7" opacity="1.000000" stroke="none" 
	d="
M122.481857,154.869446 
	C122.619362,154.510788 123.212585,154.039841 123.804611,154.041321 
	C141.645874,154.086655 159.487015,154.178558 177.648132,154.516113 
	C159.624405,154.838501 141.280716,154.907944 122.481857,154.869446 
z"/>
<path fill="#BDD8E9" opacity="1.000000" stroke="none" 
	d="
M40.226379,194.040619 
	C39.916183,193.745193 39.884926,193.561844 39.751389,193.117966 
	C39.771942,186.577576 40.923832,180.290558 39.161438,173.685730 
	C38.853088,173.075089 38.907669,172.801376 38.978943,172.318237 
	C38.989216,172.107544 39.016190,171.887634 39.038544,171.779129 
	C39.698605,171.309082 40.375744,171.137802 41.453384,171.358383 
	C42.442707,171.843002 42.892578,172.413101 43.549629,173.293152 
	C44.054474,174.006943 44.298252,174.446259 44.610336,175.280548 
	C44.788834,176.178848 44.784805,176.703796 44.613205,177.619873 
	C42.226665,183.207138 44.361626,188.912216 42.403252,194.500641 
	C41.601448,194.601517 41.053383,194.377106 40.226379,194.040619 
z"/>
<path fill="#7895B3" opacity="1.000000" stroke="none" 
	d="
M168.326782,185.583649 
	C168.970215,185.730316 169.337051,186.023483 169.887054,186.138519 
	C170.447952,185.639389 170.882568,185.435760 171.731888,185.325134 
	C173.998596,185.856155 175.982590,184.940964 178.145905,185.907745 
	C178.768341,186.889603 178.783844,187.621185 178.248657,188.669678 
	C177.028305,190.069824 176.159790,191.324173 175.008774,192.212479 
	C173.516495,193.364182 171.351913,195.708954 170.010757,194.187012 
	C167.962708,191.862915 172.631363,192.086060 172.454132,189.035294 
	C172.144699,187.499908 167.187454,189.703201 168.326782,185.583649 
z"/>
<path fill="#6E95B1" opacity="1.000000" stroke="none" 
	d="
M72.332016,99.592911 
	C70.262611,107.471687 66.244301,114.618088 60.361736,120.966095 
	C63.301975,113.521774 67.555740,106.584198 72.332016,99.592911 
z"/>
<path fill="#D7E7F2" opacity="1.000000" stroke="none" 
	d="
M57.040581,173.613510 
	C54.082413,174.199951 51.310520,173.368256 48.422813,175.050735 
	C47.840141,175.133713 47.675468,175.052689 47.292782,174.804535 
	C46.640812,174.295975 46.190681,173.977875 45.485508,173.531006 
	C44.977142,173.084900 44.808029,172.745682 44.801888,172.073517 
	C45.396927,171.031586 45.069279,170.297333 44.933594,169.265213 
	C46.810352,168.823425 48.666248,169.382950 50.657909,168.143036 
	C52.056149,169.093277 53.430992,168.702866 54.684269,168.906036 
	C57.248531,169.321777 58.467533,170.666458 57.040581,173.613510 
z"/>
<path fill="#DBECF6" opacity="1.000000" stroke="none" 
	d="
M90.076065,171.858459 
	C89.365021,168.164078 86.065384,170.905472 84.402702,169.250122 
	C86.378609,168.942749 88.518181,168.960312 91.059326,168.983917 
	C93.045975,168.816406 94.635147,168.496323 96.552017,169.280670 
	C98.620407,172.220932 101.739281,171.342041 104.498779,172.419922 
	C105.655304,175.559784 103.416557,175.680115 101.564163,176.123306 
	C98.493416,176.858002 95.859108,175.033386 92.614243,174.612823 
	C92.009392,174.537888 91.772110,174.474747 91.257614,174.169113 
	C90.880478,173.192917 93.386436,171.674805 90.076065,171.858459 
z"/>
<path fill="#879FB9" opacity="1.000000" stroke="none" 
	d="
M193.240707,185.187256 
	C194.451859,185.190399 195.300156,185.396896 195.292953,185.567291 
	C195.162552,188.658279 194.551178,191.954071 192.687195,194.156830 
	C191.056061,196.084427 188.022064,195.598938 185.433380,194.289627 
	C186.807098,191.657166 191.664078,194.276566 191.020721,189.418579 
	C190.672363,188.717789 190.469742,188.358353 190.415466,187.620422 
	C190.571320,186.921234 190.759644,186.563919 191.231918,186.042679 
	C191.765915,185.631683 192.108551,185.471130 193.240707,185.187256 
z"/>
<path fill="#7590AB" opacity="1.000000" stroke="none" 
	d="
M57.123032,173.907196 
	C57.399750,171.297714 56.666084,169.886337 53.741314,170.037415 
	C52.719616,170.090179 51.423687,170.358353 51.034435,168.416275 
	C51.459873,167.990433 51.901978,167.961914 52.673038,167.886047 
	C54.183147,167.368683 55.561157,167.407959 56.797626,166.247101 
	C57.915295,165.876663 58.776764,165.802231 59.660267,166.816025 
	C61.281097,167.915222 62.858440,167.313232 64.678070,167.746155 
	C65.017693,167.920258 65.033173,167.991516 65.065788,167.975220 
	C65.230309,168.143921 65.362221,168.328949 65.755013,168.733307 
	C65.822777,169.258743 65.629654,169.564850 65.227921,170.049545 
	C64.853065,170.275299 64.686836,170.322449 64.261566,170.378265 
	C63.578068,170.349716 63.153610,170.312485 62.411160,170.314209 
	C60.754864,170.933868 60.350544,172.286331 59.409645,173.627167 
	C58.653889,173.909271 58.097149,173.924072 57.123032,173.907196 
z"/>
<path fill="#7590AB" opacity="1.000000" stroke="none" 
	d="
M47.968132,174.938141 
	C48.004818,175.214722 47.992119,175.368393 47.985142,175.419464 
	C49.224472,177.066605 48.995384,178.959167 49.114059,181.248764 
	C49.624046,184.724411 49.537373,187.754639 49.208981,191.226807 
	C48.947163,192.555481 48.924549,193.481354 47.955696,194.476837 
	C47.567703,194.709564 47.111149,194.703094 47.111149,194.703094 
	C47.111149,194.703094 46.654774,194.717361 46.429825,194.679810 
	C43.216515,190.967178 45.135094,186.646301 44.665829,182.642044 
	C44.434906,180.671539 44.602978,178.656296 45.015167,176.251755 
	C45.085430,175.532913 45.125782,175.247208 45.349895,174.570801 
	C45.950844,173.736038 46.462749,173.538605 47.397057,173.866745 
	C47.793095,174.316284 47.862270,174.488922 47.968132,174.938141 
z"/>
<path fill="#AAC6DD" opacity="1.000000" stroke="none" 
	d="
M45.730244,173.800537 
	C46.067810,180.607269 46.077641,187.191132 46.146172,194.208618 
	C45.692543,194.710831 45.180206,194.779404 44.280670,194.809036 
	C42.058777,189.066025 43.148052,183.308411 43.789352,177.126175 
	C43.950447,176.375854 43.934872,176.060547 43.978523,175.507721 
	C43.872765,175.040833 43.742119,174.809753 43.750572,174.205811 
	C44.357662,173.532867 44.861908,173.447556 45.730244,173.800537 
z"/>
<path fill="#BBD9EF" opacity="1.000000" stroke="none" 
	d="
M179.191315,181.557037 
	C178.074219,180.850555 176.597076,180.273972 178.435455,179.598770 
	C180.174347,178.960129 182.245911,179.227219 184.584045,179.051498 
	C187.340149,178.996689 189.683350,178.986313 192.461655,178.940155 
	C193.480743,179.405334 194.064713,179.906281 194.863464,180.610229 
	C194.746689,181.317520 194.295151,181.666367 193.300507,181.967880 
	C188.398453,182.002869 183.881958,184.974106 179.191315,181.557037 
z"/>
<path fill="#6B89A8" opacity="1.000000" stroke="none" 
	d="
M178.843811,181.414810 
	C183.348526,183.505280 187.723053,180.549652 192.550537,181.156311 
	C193.701874,181.637268 194.807114,181.356201 195.112823,182.686722 
	C194.300278,183.284241 192.876694,182.952805 193.849884,184.765747 
	C193.998886,185.167816 193.996017,185.334900 193.998367,185.748718 
	C193.509644,186.007370 193.015717,186.019302 192.154358,186.079178 
	C187.479294,184.646927 182.875992,184.642975 178.250946,183.153534 
	C178.244308,182.436020 178.494034,182.032471 178.843811,181.414810 
z"/>
<path fill="#6E95B1" opacity="1.000000" stroke="none" 
	d="
M48.458206,140.721069 
	C49.528141,143.963913 45.121929,146.089111 46.771984,149.873550 
	C47.316612,151.842224 45.686985,152.264404 44.576782,153.451263 
	C43.480213,154.083588 42.645561,154.467453 41.432514,154.179901 
	C42.067669,148.823792 45.766235,145.207535 48.458206,140.721069 
z"/>
<path fill="#839BB2" opacity="1.000000" stroke="none" 
	d="
M43.675438,176.949860 
	C43.986042,182.418869 43.971725,188.148270 43.925438,194.323883 
	C43.505589,194.827408 43.117714,194.884720 42.439674,194.883987 
	C42.418564,188.945084 41.026745,182.950989 43.675438,176.949860 
z"/>
<path fill="#7CB8CA" opacity="1.000000" stroke="none" 
	d="
M41.399345,154.288773 
	C41.925716,153.700577 42.672012,153.458511 43.696701,153.103882 
	C45.001698,152.329926 46.078217,151.978180 47.639328,152.720581 
	C50.669891,153.000107 53.349777,153.016296 56.469681,153.032684 
	C56.909706,153.032898 56.979225,153.523880 57.011620,153.769684 
	C57.204983,154.170624 57.365955,154.325745 57.270710,154.697189 
	C51.877716,155.099197 46.738438,155.422760 41.399345,154.288773 
z"/>
<path fill="#67829C" opacity="1.000000" stroke="none" 
	d="
M190.664764,186.669724 
	C191.012100,187.408951 191.004684,187.869568 190.988281,188.675568 
	C186.967102,188.993835 182.954926,188.966705 178.482590,188.958893 
	C178.008545,188.217606 177.994659,187.456970 177.978729,186.315750 
	C182.134476,184.824677 186.234207,185.284698 190.664764,186.669724 
z"/>
<path fill="#6E95B1" opacity="1.000000" stroke="none" 
	d="
M56.498657,126.788834 
	C55.668121,131.718872 53.451580,136.232666 49.337685,139.959137 
	C50.624325,135.228668 53.595753,131.193237 56.498657,126.788834 
z"/>
<path fill="#7895B3" opacity="1.000000" stroke="none" 
	d="
M44.907501,168.679092 
	C45.417404,170.266434 47.817307,169.271225 47.566631,171.088379 
	C47.438648,172.016159 46.360336,171.831024 45.267967,171.944138 
	C44.269096,172.644272 43.491276,172.758667 42.267822,172.272644 
	C41.194195,171.981705 40.478168,171.906006 39.411518,171.750458 
	C40.640331,170.209579 42.219769,168.748535 44.078106,167.229919 
	C44.493401,167.577850 44.629795,167.983368 44.907501,168.679092 
z"/>
<path fill="#59BED7" opacity="1.000000" stroke="none" 
	d="
M75.483292,154.863129 
	C82.428406,153.161453 89.886055,154.120239 97.646446,154.512726 
	C90.624565,154.831909 83.281723,154.899902 75.483292,154.863129 
z"/>
<path fill="#D7E7F2" opacity="1.000000" stroke="none" 
	d="
M59.621887,173.907898 
	C58.942207,172.093811 58.222729,170.037537 61.712593,170.252075 
	C61.624672,172.374420 62.945312,172.935013 64.740479,173.510864 
	C63.330627,173.786102 61.681889,173.853714 59.621887,173.907898 
z"/>
<path fill="#D3E7F0" opacity="1.000000" stroke="none" 
	d="
M190.414459,170.968109 
	C190.201126,167.741821 192.730026,169.434387 194.600250,168.995026 
	C194.891235,170.178940 194.782227,171.319366 194.434204,172.702332 
	C193.113907,172.179047 192.467789,170.656631 190.414459,170.968109 
z"/>
<path fill="#6E95B1" opacity="1.000000" stroke="none" 
	d="
M79.529770,86.843063 
	C79.740326,89.208679 78.761215,91.297028 76.465424,92.968170 
	C76.468613,90.660973 77.905426,88.858688 79.529770,86.843063 
z"/>
<path fill="#59BED7" opacity="1.000000" stroke="none" 
	d="
M184.448975,154.876312 
	C186.626663,153.155182 189.507706,154.354462 192.679092,153.979034 
	C190.601303,156.205658 187.614441,154.556854 184.448975,154.876312 
z"/>
<path fill="#94A9BB" opacity="1.000000" stroke="none" 
	d="
M66.764328,181.337433 
	C65.588211,182.095566 64.568192,182.169647 63.917717,180.473846 
	C64.143929,179.823288 64.453781,179.516510 65.006332,178.989868 
	C66.322929,179.130615 66.866425,179.878174 66.764328,181.337433 
z"/>
<path fill="#6E95B1" opacity="1.000000" stroke="none" 
	d="
M59.466972,121.740616 
	C59.993332,123.426071 59.440559,124.918098 57.429909,125.959824 
	C57.219395,124.362320 58.088680,123.079674 59.466972,121.740616 
z"/>
<path fill="#59BED7" opacity="1.000000" stroke="none" 
	d="
M57.455864,154.958160 
	C57.014496,154.913513 57.016342,154.463943 57.030178,154.239716 
	C59.482193,154.099258 61.920372,154.183014 64.660538,154.509583 
	C62.607433,154.835861 60.252335,154.919327 57.455864,154.958160 
z"/>
<path fill="#D7E7F2" opacity="1.000000" stroke="none" 
	d="
M47.999954,194.795898 
	C47.686703,194.028946 47.805702,193.348312 47.997551,192.328003 
	C48.618443,191.599457 49.215694,191.496780 50.184273,192.029099 
	C50.361176,192.999893 50.215946,193.621780 50.129501,194.564178 
	C49.602921,194.883850 49.017563,194.883026 47.999954,194.795898 
z"/>
<path fill="#D7E7F2" opacity="1.000000" stroke="none" 
	d="
M56.708122,166.042053 
	C56.905991,168.296890 55.258537,168.042007 53.373787,167.924652 
	C54.127995,167.243668 55.253990,166.648651 56.708122,166.042053 
z"/>
<path fill="#879FB9" opacity="1.000000" stroke="none" 
	d="
M195.301392,183.013214 
	C194.453705,182.529648 193.907425,182.059280 193.172195,181.388153 
	C193.450851,181.116089 193.918427,181.044785 194.732117,180.893341 
	C196.416809,181.275116 197.455582,181.808090 195.301392,183.013214 
z"/>
<path fill="#D7E7F2" opacity="1.000000" stroke="none" 
	d="
M64.748016,167.655457 
	C63.457355,167.844971 61.897015,167.769699 60.102242,167.380463 
	C61.404648,167.174545 62.941490,167.282593 64.748016,167.655457 
z"/>
<path fill="#59BED7" opacity="1.000000" stroke="none" 
	d="
M106.424255,154.884155 
	C107.397217,153.565659 108.933487,153.889587 110.727463,154.547882 
	C109.592384,154.847519 108.210472,154.917999 106.424255,154.884155 
z"/>
<path fill="#93D4E5" opacity="1.000000" stroke="none" 
	d="
M168.851227,110.775940 
	C167.902161,110.939072 167.207047,110.549629 167.205566,109.168297 
	C168.164322,109.017929 168.734116,109.526108 168.851227,110.775940 
z"/>
<path fill="#9BAEC2" opacity="1.000000" stroke="none" 
	d="
M90.730164,174.078293 
	C91.173538,173.983521 91.366692,174.040405 91.849693,174.182266 
	C92.408157,174.637955 92.515816,175.053558 92.350548,175.812973 
	C92.028694,176.239105 91.841713,176.359924 91.324860,176.531250 
	C90.781113,176.521500 90.567230,176.461227 90.140327,176.144623 
	C89.927299,175.888275 89.910408,175.574265 89.952759,175.424377 
	C90.156723,174.926331 90.318321,174.578140 90.730164,174.078293 
z"/>
<path fill="#6E95B1" opacity="1.000000" stroke="none" 
	d="
M75.278702,94.541824 
	C75.904655,95.429924 75.920204,96.369453 74.283447,96.892891 
	C74.276321,96.193657 74.644218,95.454796 75.278702,94.541824 
z"/>
<path fill="#DDECF3" opacity="1.000000" stroke="none" 
	d="
M86.213028,172.403931 
	C86.752960,172.131851 87.497559,172.070236 88.613884,172.057678 
	C88.279839,173.035767 87.408813,173.128845 86.213028,172.403931 
z"/>
<path fill="#59BED7" opacity="1.000000" stroke="none" 
	d="
M189.225082,146.552292 
	C188.975769,146.595581 188.643265,146.362259 188.321320,145.802322 
	C188.601883,145.742371 188.871887,146.009018 189.225082,146.552292 
z"/>
<path fill="#D7E7F2" opacity="1.000000" stroke="none" 
	d="
M64.122894,170.499847 
	C64.166412,170.324722 64.330292,170.262497 64.756744,170.214203 
	C64.861549,170.588272 64.602867,170.716476 64.122894,170.499847 
z"/>
<path fill="#728EA8" opacity="1.000000" stroke="none" 
	d="
M64.903427,178.637619 
	C64.967911,179.110123 64.700592,179.464081 64.141624,179.982056 
	C63.820122,179.939972 63.790260,179.733887 63.891472,179.244308 
	C64.205566,178.813568 64.388596,178.666321 64.903427,178.637619 
z"/>
<path fill="#6E95B1" opacity="1.000000" stroke="none" 
	d="
M73.713364,97.005905 
	C73.947128,97.240196 73.834633,97.517769 73.402130,97.859619 
	C73.111412,97.620758 73.206406,97.329185 73.713364,97.005905 
z"/>
<path fill="#93D4E5" opacity="1.000000" stroke="none" 
	d="
M167.052612,108.551376 
	C166.752075,108.819023 166.468933,108.680588 166.249359,108.104614 
	C166.546936,107.898109 166.799301,108.057510 167.052612,108.551376 
z"/>
<path fill="#DDECF3" opacity="1.000000" stroke="none" 
	d="
M81.081261,172.107056 
	C81.196724,171.941711 81.365776,171.957031 81.771423,172.066650 
	C81.716972,172.203201 81.425903,172.245453 81.081261,172.107056 
z"/>
<path fill="#D7E7F2" opacity="1.000000" stroke="none" 
	d="
M65.939560,168.725937 
	C65.675049,168.895721 65.424324,168.714279 65.181076,168.183594 
	C65.427017,168.034744 65.681953,168.214844 65.939560,168.725937 
z"/>
<path fill="#93D4E5" opacity="1.000000" stroke="none" 
	d="
M169.904755,112.776291 
	C169.692444,112.815079 169.434433,112.604202 169.139893,112.137978 
	C169.355240,112.097298 169.607147,112.311966 169.904755,112.776291 
z"/>
<path fill="#93D4E5" opacity="1.000000" stroke="none" 
	d="
M170.685669,113.850204 
	C170.397842,113.956573 170.198151,113.751663 170.019989,113.262894 
	C170.325211,113.089691 170.569305,113.276329 170.685669,113.850204 
z"/>
<path fill="#DDECF3" opacity="1.000000" stroke="none" 
	d="
M81.523453,167.165634 
	C81.776878,167.349594 81.705605,167.654144 81.304558,168.079254 
	C81.062042,167.896667 81.136696,167.592133 81.523453,167.165634 
z"/>
<path fill="#728AA6" opacity="1.000000" stroke="none" 
	d="
M94.268646,194.075775 
	C93.308502,193.602280 90.933777,193.729065 91.726501,193.156387 
	C96.497307,189.709747 91.284210,187.531097 90.991196,184.447739 
	C90.968582,183.877716 90.970818,183.673157 90.962975,183.161911 
	C90.673027,181.711136 91.362495,181.155106 92.597702,180.699280 
	C93.381645,180.849518 93.769501,181.092758 94.293800,181.706787 
	C94.653572,182.409424 94.786232,182.839279 94.959549,183.597412 
	C98.473289,187.096848 101.975365,186.311035 105.631355,183.787323 
	C105.950661,183.049515 106.184479,182.651016 106.721184,182.037704 
	C108.672829,181.752518 108.802727,183.039688 109.143181,184.563995 
	C108.635498,185.877182 108.272171,187.156342 107.427353,187.747726 
	C102.856277,190.947754 105.394188,192.374207 109.353424,193.693680 
	C106.902817,195.577164 105.043320,195.444351 102.996735,193.331085 
	C102.745972,192.839035 102.687851,192.679825 102.655525,192.267670 
	C102.715904,191.580444 102.750488,191.146149 102.700150,190.394562 
	C102.402679,189.671661 102.061478,189.464081 101.309723,189.307556 
	C100.570877,189.164551 100.133224,189.138840 99.370239,189.166046 
	C97.732384,190.149994 97.105255,191.778427 95.393921,192.791534 
	C94.935204,193.332138 94.728188,193.641006 94.268646,194.075775 
z"/>
<path fill="#E5F6FB" opacity="1.000000" stroke="none" 
	d="
M137.116516,172.795868 
	C137.664017,173.804367 137.841599,174.578232 138.025146,175.657440 
	C137.930939,176.117569 137.830734,176.272339 137.519821,176.608826 
	C137.169479,176.914383 137.029816,177.038254 136.708588,177.375793 
	C136.400940,177.977142 136.333786,178.375870 136.308411,179.129822 
	C136.253250,183.688721 136.639206,187.907455 135.956406,192.499207 
	C135.700516,193.130753 135.570816,193.372086 135.196045,193.943298 
	C134.285965,195.031158 133.396210,194.995651 132.175797,194.935120 
	C130.458008,188.901947 130.723160,182.803955 130.897552,176.267303 
	C131.199097,175.236435 131.493805,174.706528 132.209152,173.917847 
	C133.819504,172.775040 135.208466,172.367798 137.116516,172.795868 
z"/>
<path fill="#DEF1F6" opacity="1.000000" stroke="none" 
	d="
M136.818054,176.364014 
	C137.117310,175.966583 137.573898,175.970245 137.802521,175.966522 
	C138.803833,176.292007 139.576553,176.621201 140.666016,176.970703 
	C141.370438,182.217758 139.690613,187.177780 138.872070,192.665421 
	C138.731949,193.063843 138.314453,193.065582 138.314453,193.065582 
	C138.314453,193.065582 137.896942,193.063919 137.687485,193.048401 
	C134.623352,187.758499 136.213379,182.222122 136.818054,176.364014 
z"/>
<path fill="#7E96AC" opacity="1.000000" stroke="none" 
	d="
M97.365036,170.350616 
	C95.397774,169.911911 93.757149,169.706436 91.788712,169.245453 
	C94.322990,166.245941 98.215324,167.490417 101.764229,166.680649 
	C102.675713,167.751221 103.595970,167.434952 104.732010,167.562897 
	C106.510262,167.961319 108.519691,166.892105 109.352798,168.739044 
	C109.820328,169.775528 108.190201,170.019562 107.330109,170.871567 
	C106.810028,171.168884 106.592804,171.328506 105.983070,171.585754 
	C102.963120,171.277283 100.218277,171.714523 97.365036,170.350616 
z"/>
<path fill="#7A94AA" opacity="1.000000" stroke="none" 
	d="
M132.390961,174.600739 
	C132.314301,181.360641 132.179886,187.681351 131.944580,194.453583 
	C131.360397,194.761536 130.877075,194.617996 130.299591,194.236572 
	C130.278381,193.821976 130.351318,193.645248 130.264755,193.230164 
	C130.054764,190.635727 130.004288,188.279617 129.930206,185.482773 
	C128.746765,181.907608 128.850937,178.686096 129.384613,175.024170 
	C129.705353,173.980591 130.116409,173.616852 131.197021,173.562866 
	C131.869156,173.796143 132.101181,173.978851 132.390961,174.600739 
z"/>
<path fill="#D0EDFA" opacity="1.000000" stroke="none" 
	d="
M94.397461,182.351257 
	C93.687645,181.940598 93.415672,181.752609 93.082581,181.276062 
	C92.899826,180.771744 92.820770,180.494370 93.011055,179.877579 
	C98.058342,178.166138 102.817459,178.047302 107.961555,179.860870 
	C110.943489,180.835602 109.932961,182.756485 109.457428,184.682800 
	C107.654701,184.618378 108.412743,182.970917 107.327164,182.092545 
	C103.047821,184.288910 98.928505,183.614914 94.397461,182.351257 
z"/>
<path fill="#6986A3" opacity="1.000000" stroke="none" 
	d="
M105.712303,171.162750 
	C106.162323,171.007553 106.335297,171.009720 106.767761,171.010590 
	C107.475670,171.941132 107.924095,172.872986 108.640396,173.971756 
	C109.302231,174.471130 109.500481,174.895111 109.363213,175.753082 
	C109.039749,176.164490 108.856247,176.233368 108.387978,176.375397 
	C103.607620,177.931473 98.988045,177.316040 93.943298,177.170502 
	C93.198082,176.962280 92.910988,176.841629 92.271454,176.414429 
	C91.962372,175.697662 92.005745,175.287445 92.094322,174.572235 
	C93.207993,174.118484 92.857719,170.582031 95.077454,173.097214 
	C98.030205,176.442947 101.359642,175.472153 104.764191,173.351593 
	C104.599854,172.257187 104.914948,171.750900 105.712303,171.162750 
z"/>
<path fill="#7590AB" opacity="1.000000" stroke="none" 
	d="
M136.835846,175.952637 
	C137.166275,181.349152 137.215256,186.731720 137.371124,192.573578 
	C137.193420,193.331284 136.908798,193.629715 136.313904,193.951385 
	C135.838242,193.834930 135.672867,193.695206 135.338287,193.278290 
	C135.123154,187.975067 135.077240,182.949051 135.096893,177.460068 
	C135.287567,176.826157 135.412674,176.655197 135.769852,176.267105 
	C136.186066,176.012878 136.370239,175.975769 136.835846,175.952637 
z"/>
<path fill="#728EA8" opacity="1.000000" stroke="none" 
	d="
M108.277542,179.670731 
	C103.552475,180.017883 98.731018,180.066528 93.447708,180.168274 
	C90.637581,178.481293 92.925262,178.048462 94.270607,177.150040 
	C98.584465,177.136108 102.476654,176.586655 106.696594,177.679962 
	C107.437767,178.414810 107.809456,178.893509 108.277542,179.670731 
z"/>
<path fill="#B7D4F1" opacity="1.000000" stroke="none" 
	d="
M107.144867,177.720337 
	C103.002182,177.950577 98.938286,177.965057 94.408249,177.947510 
	C93.506851,177.750565 93.193062,177.452789 92.970215,176.703369 
	C97.700584,176.297165 102.445168,176.227585 107.646484,176.303268 
	C107.810028,176.800552 107.516838,177.152573 107.144867,177.720337 
z"/>
<path fill="#C4D7E6" opacity="1.000000" stroke="none" 
	d="
M129.708939,173.887817 
	C130.026978,177.386673 130.052109,180.759018 129.991913,184.586700 
	C129.429810,184.453186 128.953003,183.864349 128.227371,183.129379 
	C127.932426,180.740250 127.886330,178.497269 127.773132,175.864792 
	C128.011337,175.210846 128.316650,174.946396 128.770905,174.422241 
	C129.085266,174.028793 129.250656,173.895065 129.708939,173.887817 
z"/>
<path fill="#DEE1E4" opacity="1.000000" stroke="none" 
	d="
M103.811417,206.752426 
	C103.997040,207.752716 103.998268,208.501236 103.999435,209.623962 
	C102.610443,210.002838 101.221489,210.007507 99.415817,210.006348 
	C98.423210,209.313782 98.263374,208.542526 98.763565,207.341827 
	C98.998306,206.998764 98.998322,206.501572 99.001221,206.252991 
	C99.436951,205.556747 99.376068,204.931808 99.793991,204.206177 
	C100.008400,204.010559 100.500366,204.021011 100.746132,204.032593 
	C101.592659,205.160797 102.428291,206.025467 103.811417,206.752426 
z"/>
<path fill="#DEE1E4" opacity="1.000000" stroke="none" 
	d="
M98.222443,209.658600 
	C97.310608,210.900299 96.515671,211.247787 95.510330,210.466080 
	C97.577194,208.069916 93.028168,207.080124 94.306541,204.796494 
	C95.917770,204.539856 96.301659,206.242493 97.710953,206.864075 
	C98.595367,207.686249 98.472916,208.509644 98.222443,209.658600 
z"/>
<path fill="#CCD1DC" opacity="1.000000" stroke="none" 
	d="
M115.112518,208.665894 
	C113.384224,209.051270 111.957603,208.912430 112.028687,206.408188 
	C113.215691,206.660095 116.510475,204.337967 115.112518,208.665894 
z"/>
<path fill="#DEF1F6" opacity="1.000000" stroke="none" 
	d="
M95.499527,193.008667 
	C95.767960,191.356293 96.276978,189.591827 98.709457,189.186264 
	C99.042244,191.372513 98.368187,192.959076 95.499527,193.008667 
z"/>
<path fill="#DFE6EA" opacity="1.000000" stroke="none" 
	d="
M103.997986,207.002106 
	C102.427216,207.031113 100.971451,206.906830 101.002075,204.410782 
	C101.784134,204.353119 102.576363,204.662064 103.688026,205.003815 
	C104.355629,205.424789 104.495468,205.881378 104.229309,206.697144 
	C104.004036,206.996933 104.000153,207.000000 103.997986,207.002106 
z"/>
<path fill="#DEE1E4" opacity="1.000000" stroke="none" 
	d="
M104.255707,207.089874 
	C104.003265,206.561005 104.002487,206.125092 104.004585,205.362900 
	C104.560677,205.187347 105.113884,205.338043 105.841766,205.723846 
	C105.948715,206.903610 105.853943,207.814957 104.255707,207.089874 
z"/>
<path fill="#DFE6EA" opacity="1.000000" stroke="none" 
	d="
M133.681534,205.049927 
	C133.922104,205.916260 133.684372,206.705536 132.321548,206.960510 
	C132.091446,206.105667 132.306396,205.298141 133.681534,205.049927 
z"/>
<path fill="#B7D4F1" opacity="1.000000" stroke="none" 
	d="
M109.507416,176.035767 
	C109.142792,175.661957 109.062325,175.228317 108.945068,174.466675 
	C109.561691,174.142990 110.333359,174.088409 110.498703,174.878891 
	C110.562103,175.182007 110.044464,175.606644 109.507416,176.035767 
z"/>
<path fill="#E7F2F7" opacity="1.000000" stroke="none" 
	d="
M98.251892,210.001053 
	C98.002113,209.251068 98.001396,208.500519 98.000412,207.374878 
	C98.000153,206.999817 98.499649,206.999695 98.748978,206.999237 
	C98.998703,207.749222 98.999100,208.499680 98.999298,209.625336 
	C98.999100,210.000549 98.500961,210.000473 98.251892,210.001053 
z"/>
<path fill="#E7F2F7" opacity="1.000000" stroke="none" 
	d="
M99.741928,204.021484 
	C99.835396,204.562790 99.662376,205.115021 99.246735,205.835831 
	C98.848648,205.272369 97.902374,204.351318 99.741928,204.021484 
z"/>
<path fill="#C4D7E6" opacity="1.000000" stroke="none" 
	d="
M104.790359,167.404800 
	C104.162949,167.925140 103.276932,167.997208 102.211807,167.251831 
	C102.859215,167.054474 103.693474,167.143570 104.790359,167.404800 
z"/>
<path fill="#DEF1F6" opacity="1.000000" stroke="none" 
	d="
M101.156723,189.379211 
	C101.538002,189.298141 102.067474,189.406021 102.606094,189.795578 
	C102.178467,189.907562 101.741699,189.737869 101.156723,189.379211 
z"/>
<path fill="#DFE6EA" opacity="1.000000" stroke="none" 
	d="
M130.003571,205.004654 
	C130.093353,204.968872 130.179535,204.928452 130.128235,204.940521 
	C129.990753,204.992996 130.000000,205.000000 130.003571,205.004654 
z"/>
<path fill="#DEF1F6" opacity="1.000000" stroke="none" 
	d="
M102.558159,192.123688 
	C102.746140,192.173141 102.810951,192.331528 102.839920,192.744080 
	C102.433929,192.842102 102.310898,192.586884 102.558159,192.123688 
z"/>
<path fill="#889EB3" opacity="1.000000" stroke="none" 
	d="
M135.087006,193.314392 
	C135.453262,193.115494 135.675262,193.303345 135.919357,193.769653 
	C135.828110,194.023285 135.652603,194.071945 135.214020,194.196899 
	C134.968948,194.057999 134.986923,193.842850 135.087006,193.314392 
z"/>
<path fill="#94A9BB" opacity="1.000000" stroke="none" 
	d="
M130.058945,193.250641 
	C130.231232,193.258362 130.357208,193.524918 130.344315,193.895081 
	C130.141174,193.835632 130.076904,193.672546 130.058945,193.250641 
z"/>
<path fill="#67829C" opacity="1.000000" stroke="none" 
	d="
M130.368454,174.012268 
	C129.818741,174.018143 129.635635,174.021957 129.186188,174.094147 
	C127.400810,173.556412 124.842766,175.110382 124.766312,171.812012 
	C128.436691,171.004898 126.550568,169.737198 125.198975,168.307938 
	C125.861061,165.072403 128.476440,166.818939 130.597549,166.080765 
	C131.660416,165.399216 132.479370,165.529190 133.640656,165.739777 
	C134.433350,165.958786 134.863525,165.999039 135.615341,166.079803 
	C136.292831,166.459763 136.476120,166.869705 136.356567,167.700455 
	C134.367081,169.323959 133.637634,170.517776 136.828278,171.577515 
	C137.163910,171.959457 137.215240,172.177383 137.376495,172.712906 
	C136.255386,173.375381 135.024353,173.720261 133.417282,174.151291 
	C133.041260,174.237457 132.593979,174.405914 132.394714,174.273987 
	C131.708649,174.098114 131.221848,174.054153 130.368454,174.012268 
z"/>
<path fill="#D4E4ED" opacity="1.000000" stroke="none" 
	d="
M137.083130,171.375610 
	C135.411789,171.374023 132.852173,173.244141 132.200974,170.202026 
	C131.715485,167.933990 133.720047,168.152237 135.540588,167.933044 
	C136.141953,167.754501 136.350845,167.622482 136.796356,167.775772 
	C137.039886,169.043945 137.046783,170.026810 137.083130,171.375610 
z"/>
<path fill="#DDECF3" opacity="1.000000" stroke="none" 
	d="
M124.998497,168.321991 
	C125.557320,168.303268 126.149872,168.526138 126.705055,168.819687 
	C127.698814,169.345154 129.863876,168.294800 129.638596,170.251129 
	C129.393372,172.380661 127.385826,172.020386 125.401581,171.687531 
	C125.922523,170.584717 125.222832,169.590775 124.998497,168.321991 
z"/>
<path fill="#889EB3" opacity="1.000000" stroke="none" 
	d="
M144.832260,168.666702 
	C144.250183,168.987122 143.790741,168.963104 142.985657,168.899506 
	C142.817337,167.836624 142.443390,166.334320 144.128632,166.417145 
	C145.153397,166.467499 144.993103,167.537720 144.832260,168.666702 
z"/>
<path fill="#889EB3" opacity="1.000000" stroke="none" 
	d="
M153.065491,180.626862 
	C152.552109,180.994202 152.091385,180.992889 151.284973,180.984741 
	C150.950012,179.919144 150.352081,178.439072 152.118591,178.364868 
	C153.162613,178.320984 153.061035,179.465302 153.065491,180.626862 
z"/>
<path fill="#D4E4ED" opacity="1.000000" stroke="none" 
	d="
M133.804367,165.688263 
	C133.251022,166.004059 132.498840,166.089584 131.372314,166.102585 
	C131.680527,164.988678 132.563080,164.858871 133.804367,165.688263 
z"/>
<path fill="#94A9BB" opacity="1.000000" stroke="none" 
	d="
M137.084595,167.727280 
	C136.848267,168.041504 136.663544,168.021912 136.205963,167.944427 
	C135.944717,167.493896 135.956345,167.101288 135.952484,166.414490 
	C136.776459,166.130524 137.082855,166.642822 137.084595,167.727280 
z"/>
<path fill="#94A9BB" opacity="1.000000" stroke="none" 
	d="
M144.729767,192.322327 
	C144.958862,192.395065 144.622818,192.640427 144.622818,192.640427 
	C144.622818,192.640427 144.222672,192.580017 144.128876,192.474548 
	C144.035065,192.369064 144.500687,192.249588 144.729767,192.322327 
z"/>
<path fill="#889EB3" opacity="1.000000" stroke="none" 
	d="
M150.890961,187.266144 
	C151.296982,187.183426 151.703293,187.331802 151.112991,187.925537 
	C150.906570,187.846390 150.878677,187.680679 150.890961,187.266144 
z"/>
<path fill="#E2F1F8" opacity="1.000000" stroke="none" 
	d="
M92.697952,176.297180 
	C93.231674,176.738068 93.507355,177.109390 93.862564,177.698090 
	C93.316040,178.470581 91.961250,178.499313 92.746735,180.061356 
	C92.985855,180.221375 92.982536,180.635193 92.980713,180.842163 
	C92.385330,181.482910 91.791763,181.916687 91.075554,182.602844 
	C90.170006,182.628143 89.399361,182.280701 88.601608,182.199432 
	C87.006142,182.036911 85.718697,181.773880 85.759712,179.684357 
	C85.806236,177.313904 87.437187,177.224030 89.505104,176.996094 
	C90.076752,176.777115 90.254379,176.636566 90.753159,176.385132 
	C91.074303,176.274231 91.504349,176.227600 91.711678,176.167725 
	C92.092651,176.147781 92.266289,176.187698 92.697952,176.297180 
z"/>
<path fill="#B7D4F1" opacity="1.000000" stroke="none" 
	d="
M90.793884,176.158920 
	C90.892937,176.535690 90.654343,176.725052 90.128815,176.880005 
	C89.910728,176.746765 89.922340,176.575867 89.930634,176.146606 
	C90.122688,175.940048 90.318077,175.991837 90.793884,176.158920 
z"/>
<path fill="#7BC2E6" opacity="1.000000" stroke="none" 
	d="
M48.148338,152.744812 
	C46.919857,152.989197 45.849705,152.994492 44.377323,152.995544 
	C44.448910,151.714035 45.669456,151.265182 46.858253,150.330505 
	C47.051487,150.094284 47.500973,150.026230 47.722843,149.977859 
	C48.427746,150.271896 48.910778,150.614288 49.703262,150.988983 
	C49.444027,151.516083 48.875347,152.010895 48.148338,152.744812 
z"/>
<path fill="#BDDCF5" opacity="1.000000" stroke="none" 
	d="
M173.627167,172.050659 
	C174.448654,172.022507 174.896072,172.041809 175.676468,172.012146 
	C181.088211,172.088196 186.166977,172.213242 191.245743,172.338272 
	C191.215759,172.891495 191.185760,173.444702 191.155777,173.997910 
	C185.122299,173.997910 179.088730,174.014236 173.055496,173.975784 
	C172.358353,173.971344 171.164139,174.121231 171.583618,172.817352 
	C171.705719,172.437851 172.673157,172.330322 173.627167,172.050659 
z"/>
<path fill="#BDDCF5" opacity="1.000000" stroke="none" 
	d="
M185.405212,177.906494 
	C180.945084,177.685043 176.893738,177.467651 172.415100,177.272217 
	C172.021881,176.890106 172.053024,176.132355 172.090393,176.132050 
	C178.424850,176.079926 184.759735,176.082016 191.965073,176.082016 
	C189.689346,178.409866 187.659378,177.803665 185.405212,177.906494 
z"/>
<path fill="#BDDCF5" opacity="1.000000" stroke="none" 
	d="
M176.574371,169.897308 
	C179.553162,168.263321 183.043747,168.906113 186.773407,169.723816 
	C183.681107,170.047287 180.343735,170.034637 176.574371,169.897308 
z"/>
<path fill="#6B89A8" opacity="1.000000" stroke="none" 
	d="
M52.812847,181.232452 
	C53.075188,180.996582 53.450317,181.005905 53.637241,181.006805 
	C55.506737,184.490265 58.715393,182.232773 61.563530,182.994675 
	C61.991802,183.218521 61.989479,183.398575 61.975204,183.848434 
	C61.201149,184.716248 60.390739,185.231430 59.132866,185.680359 
	C56.409012,186.049149 54.037895,185.792984 51.341545,185.503250 
	C50.693851,184.971573 50.487022,184.548172 50.457928,183.702225 
	C50.809326,182.311325 51.815334,182.038010 52.812847,181.232452 
z"/>
<path fill="#E7F2F7" opacity="1.000000" stroke="none" 
	d="
M51.290051,182.654999 
	C51.377853,183.349854 51.289085,183.743179 51.153542,184.435425 
	C51.333794,185.242966 51.887054,185.522888 51.940521,186.334412 
	C50.387726,190.210587 55.656506,187.882660 55.064339,190.796890 
	C54.504871,192.433563 52.602211,191.809113 50.844017,192.341049 
	C49.967545,192.264984 49.428688,192.151962 48.480118,192.013626 
	C48.031338,188.962921 47.992275,185.937546 48.008720,182.461700 
	C48.392742,181.663620 48.798248,181.470245 49.603928,181.509644 
	C50.363243,181.804947 50.753365,182.055481 51.290051,182.654999 
z"/>
<path fill="#D3E7F0" opacity="1.000000" stroke="none" 
	d="
M52.270504,186.711426 
	C51.605637,186.142258 51.378609,185.693283 51.129173,184.989319 
	C53.492352,184.789948 55.877937,184.845520 58.630798,184.866425 
	C59.762070,184.464020 60.570141,184.512390 61.625839,184.902924 
	C59.313736,188.596420 55.801792,186.519547 52.270504,186.711426 
z"/>
<path fill="#879FB9" opacity="1.000000" stroke="none" 
	d="
M61.903008,184.950073 
	C61.150696,185.144669 60.429905,185.062958 59.353592,184.906494 
	C59.606346,184.078003 60.445698,184.010101 61.642159,184.083664 
	C61.953678,184.303436 61.944099,184.488602 61.903008,184.950073 
z"/>
<path fill="#D3E7F0" opacity="1.000000" stroke="none" 
	d="
M191.191376,186.847015 
	C186.962784,186.479279 182.760468,187.765167 178.396637,185.935532 
	C176.116348,186.411926 174.295731,187.278595 172.045563,186.266724 
	C171.564636,185.243027 171.932739,184.741531 172.898407,184.314575 
	C174.423325,183.344406 175.771088,182.910034 177.634583,182.898193 
	C182.419632,183.684204 187.537613,181.393936 191.486145,185.941177 
	C191.782608,186.426987 191.641373,186.633179 191.191376,186.847015 
z"/>
<path fill="#879FB9" opacity="1.000000" stroke="none" 
	d="
M172.947632,184.127838 
	C172.874405,184.704758 172.515884,185.144501 171.969849,185.802551 
	C171.401825,186.009903 171.021301,185.998932 170.355499,185.974182 
	C170.252808,184.407013 170.460236,182.886353 172.947632,184.127838 
z"/>
<path fill="#D7E7F2" opacity="1.000000" stroke="none" 
	d="
M50.140930,181.800049 
	C49.488621,182.016586 49.081364,182.014359 48.369171,182.011673 
	C48.007778,180.144287 47.951324,178.277344 47.936516,175.940460 
	C48.627224,175.748581 49.276279,176.026642 50.115452,176.622314 
	C50.523201,177.395538 50.605042,177.874359 50.397655,178.715027 
	C50.203297,179.474182 50.162552,179.894714 50.180283,180.628128 
	C50.287834,181.154434 50.336910,181.367859 50.140930,181.800049 
z"/>
<path fill="#879FB9" opacity="1.000000" stroke="none" 
	d="
M50.085133,182.277527 
	C49.946228,181.837234 49.996582,181.655640 50.142849,181.207520 
	C50.945797,180.961563 51.652832,180.982101 52.717529,180.999603 
	C52.718437,181.621689 52.361691,182.246811 51.735783,182.914215 
	C51.069214,182.816422 50.671803,182.676331 50.085133,182.277527 
z"/>
<path fill="#879FB9" opacity="1.000000" stroke="none" 
	d="
M50.515961,178.998047 
	C50.204384,178.580292 50.164715,178.106918 50.215309,177.286743 
	C51.645947,177.323318 52.463303,177.832672 50.515961,178.998047 
z"/>
<path fill="#8AA4C5" opacity="1.000000" stroke="none" 
	d="
M41.957958,172.332687 
	C42.662891,172.032166 43.415565,172.006927 44.542908,171.972839 
	C45.094177,172.327164 45.270779,172.690338 45.752270,173.542938 
	C46.057159,174.032364 46.034443,174.032471 46.046211,174.027954 
	C45.585907,173.998444 45.113827,173.973465 44.288105,173.975067 
	C43.734474,174.129349 43.534492,174.257034 43.007984,174.243103 
	C42.456207,173.603668 42.230953,173.105820 41.957958,172.332687 
z"/>
<path fill="#839BB2" opacity="1.000000" stroke="none" 
	d="
M42.843620,174.357117 
	C42.890068,174.079758 43.098671,174.057999 43.620869,174.018951 
	C43.952724,174.211975 43.970993,174.422302 43.996338,174.952271 
	C43.670860,175.052200 43.338318,174.832458 42.843620,174.357117 
z"/>
<path fill="#96AABD" opacity="1.000000" stroke="none" 
	d="
M46.336578,174.031799 
	C46.057159,174.032364 46.010830,173.698380 45.995270,173.532898 
	C46.523697,173.432724 47.067684,173.498032 47.667797,173.853485 
	C47.354610,174.106171 46.985306,174.068710 46.336578,174.031799 
z"/>
<path fill="#F8FBFC" opacity="1.000000" stroke="none" 
	d="
M105.623428,170.828918 
	C105.678024,171.479874 105.366692,171.954361 104.942795,172.696533 
	C102.277824,172.115906 98.698586,175.155563 97.041199,170.512604 
	C99.788055,170.142731 102.593536,169.310760 105.623428,170.828918 
z"/>
<path fill="#6B89A8" opacity="1.000000" stroke="none" 
	d="
M193.997864,186.001678 
	C194.121094,186.149719 194.246490,186.296097 194.371887,186.442474 
	C194.281723,186.391174 194.191544,186.339874 194.052460,186.142029 
	C194.003571,185.995453 194.000000,186.000000 193.997864,186.001678 
z"/>
<path fill="#CFE9F7" opacity="1.000000" stroke="none" 
	d="
M106.662399,184.149643 
	C103.494987,187.836288 95.916481,187.721161 93.723068,184.194992 
	C98.126701,182.354630 102.304192,182.722122 106.662399,184.149643 
z"/>
<path fill="#6986A3" opacity="1.000000" stroke="none" 
	d="
M106.877937,184.175507 
	C102.907364,183.432907 98.887733,184.270615 94.458038,184.007965 
	C93.996147,183.553955 93.996246,183.128983 93.999268,182.385498 
	C98.027649,182.028259 102.053108,181.989532 106.542358,181.963928 
	C106.979691,182.563614 106.953224,183.150162 106.877937,184.175507 
z"/>
<path fill="#889EB3" opacity="1.000000" stroke="none" 
	d="
M135.757797,176.092651 
	C135.924973,176.342102 135.770889,176.585312 135.351074,176.888367 
	C135.071365,176.624985 135.188431,176.337708 135.757797,176.092651 
z"/>
<path fill="#C4D7E6" opacity="1.000000" stroke="none" 
	d="
M132.209656,174.380402 
	C132.195435,174.142075 132.623734,174.141083 132.832489,174.189270 
	C132.970337,174.456833 132.857956,174.652359 132.576416,174.931961 
	C132.448730,175.039917 132.223877,174.618713 132.209656,174.380402 
z"/>
</svg>