<svg version="1.1" id="Layer_1" xmlns="http://www.w3.org/2000/svg" xmlns:xlink="http://www.w3.org/1999/xlink" x="0px" y="0px"
	 width="100%" viewBox="0 0 785 630" enable-background="new 0 0 785 630" xml:space="preserve">
<path fill="#FFFFFE" opacity="1.000000" stroke="none" 
	d="
M406.000000,631.000000 
	C272.190216,631.000000 138.880402,630.983826 5.570686,631.086121 
	C1.953298,631.088867 0.893303,630.483948 0.895537,626.572144 
	C1.013781,419.608765 1.016917,212.645279 0.880268,5.681925 
	C0.877496,1.484482 1.903420,0.896955 5.816521,0.898652 
	C264.270844,1.010749 522.725220,1.010666 781.179504,0.899224 
	C785.084412,0.897540 786.123047,1.472058 786.120239,5.677966 
	C785.982971,212.641327 785.986267,419.604797 786.103882,626.568176 
	C786.106140,630.471497 785.058594,631.089722 781.433289,631.086670 
	C656.455566,630.982544 531.477783,631.000000 406.000000,631.000000 
z"/>
<path fill="#1C2854" opacity="1.000000" stroke="none" 
	d="
M406.199646,305.000061 
	C406.198608,325.655731 406.088684,345.812469 406.293335,365.966064 
	C406.332123,369.783356 405.276367,370.851624 401.558624,370.616943 
	C396.415405,370.292175 391.226135,370.345490 386.076019,370.612488 
	C383.010193,370.771423 381.287262,369.583282 379.609131,367.146820 
	C369.323517,352.213379 358.891296,337.380829 348.478516,322.535248 
	C347.581696,321.256622 346.969727,319.643890 345.285156,318.954681 
	C343.857513,320.519470 344.484314,322.250366 344.478149,323.800964 
	C344.422577,337.793121 344.331970,351.787140 344.525818,365.776825 
	C344.574982,369.324280 343.940247,370.808533 339.957581,370.637451 
	C332.142914,370.301697 324.300507,370.409058 316.476318,370.604034 
	C313.619690,370.675262 311.980591,369.654266 310.392090,367.349762 
	C300.006104,352.282318 289.483276,337.309082 278.957916,322.338257 
	C278.080566,321.090363 277.682983,319.244171 275.619232,318.977661 
	C274.545593,320.527222 275.102539,322.222168 275.096558,323.788269 
	C275.042328,337.946991 274.936157,352.107941 275.151093,366.263611 
	C275.205811,369.867554 274.069214,370.728790 270.662933,370.614105 
	C263.341858,370.367615 256.004150,370.424072 248.678787,370.594360 
	C245.818268,370.660919 245.043976,369.712036 245.051727,366.894562 
	C245.142059,334.079407 245.144333,301.263794 245.047699,268.448669 
	C245.039047,265.512756 245.630386,263.948181 248.848450,264.457092 
	C249.173355,264.508484 249.513687,264.459229 249.846802,264.462219 
	C256.338837,264.520782 263.858276,262.566498 269.033234,265.206970 
	C274.183807,267.835022 277.045715,275.030426 280.795410,280.305420 
	C289.165955,292.080933 297.464386,303.907684 305.790405,315.711060 
	C307.724762,314.668243 306.941254,313.162109 306.946289,311.999451 
	C307.009277,297.507629 307.104614,283.013885 306.904785,268.524567 
	C306.858215,265.147064 307.892883,264.314240 311.095581,264.395508 
	C319.086029,264.598236 327.089813,264.616638 335.078430,264.379364 
	C338.174469,264.287384 339.830841,265.501862 341.508759,267.921295 
	C351.652374,282.547607 361.959320,297.060699 372.220337,311.605530 
	C373.161621,312.939819 374.164093,314.230927 375.179504,315.597778 
	C377.004395,314.387054 376.217773,312.742950 376.223999,311.417328 
	C376.290619,297.258698 376.363647,283.098480 376.193848,268.941589 
	C376.153473,265.573944 376.907227,264.233887 380.554871,264.376495 
	C387.706726,264.656158 394.880951,264.596527 402.038239,264.399231 
	C405.201996,264.311981 406.348938,265.094604 406.285156,268.522827 
	C406.062103,280.511627 406.199463,292.507111 406.199646,305.000061 
z"/>
<path fill="#1E2A55" opacity="1.000000" stroke="none" 
	d="
M616.879456,369.515198 
	C606.672241,371.270416 596.534119,370.224365 586.420715,370.522308 
	C583.385681,370.611725 584.167053,368.244843 584.159912,366.586212 
	C584.114197,355.923492 584.005066,345.257935 584.211914,334.599060 
	C584.276184,331.287933 583.268982,330.368866 580.031433,330.469635 
	C572.707825,330.697632 565.360474,330.789337 558.046082,330.443207 
	C554.051697,330.254150 553.405396,331.805084 553.476074,335.308411 
	C553.681091,345.467377 553.402832,355.636505 553.633728,365.794373 
	C553.715149,369.375244 552.992798,370.802887 549.033630,370.643768 
	C540.883057,370.316193 532.707581,370.431488 524.547546,370.605499 
	C521.694214,370.666290 520.916443,369.778717 520.924377,366.950439 
	C521.017334,333.962280 521.001587,300.973785 520.948364,267.985474 
	C520.944580,265.631195 521.187561,264.327515 524.119934,264.391937 
	C532.779358,264.582092 541.448181,264.579651 550.107910,264.394257 
	C553.221008,264.327576 553.611511,265.730652 553.588135,268.307617 
	C553.491333,278.969635 553.659485,289.634888 553.483826,300.294891 
	C553.430969,303.504211 554.300842,304.638641 557.641357,304.535431 
	C565.298096,304.298798 572.970703,304.311340 580.628906,304.517120 
	C583.589722,304.596680 584.218445,303.529297 584.187073,300.820618 
	C584.061584,289.992554 584.246094,279.160400 584.067688,268.333801 
	C584.016724,265.241486 584.964539,264.331085 588.009521,264.397430 
	C596.335938,264.578888 604.673584,264.619873 612.997131,264.381012 
	C616.364319,264.284424 617.098328,265.402130 617.086731,268.603882 
	C616.965149,302.091644 617.000732,335.579956 616.879456,369.515198 
z"/>
<path fill="#1B2753" opacity="1.000000" stroke="none" 
	d="
M510.899658,290.174988 
	C516.769958,308.141205 517.162231,325.972137 511.582428,343.517670 
	C507.068176,357.712585 496.438751,366.361938 482.210999,370.181396 
	C469.758423,373.524292 457.229187,373.429626 444.873199,369.210693 
	C428.706207,363.690582 419.489899,352.119446 416.240967,335.722198 
	C414.157776,325.208282 414.087524,314.429688 415.614868,303.890137 
	C419.287292,278.547394 435.072968,264.400635 460.688538,263.158234 
	C476.630524,262.385040 491.537170,265.201263 503.093506,277.647583 
	C506.433319,281.244629 508.739746,285.425781 510.899658,290.174988 
z"/>
<path fill="#1D2954" opacity="1.000000" stroke="none" 
	d="
M658.851685,265.054932 
	C659.473572,264.735565 659.905579,264.648376 660.647766,264.693756 
	C661.160522,265.160278 661.407715,265.457733 661.939331,265.879944 
	C662.275635,266.774384 662.365784,267.512756 662.319092,268.603394 
	C661.202942,269.713226 661.440247,270.682739 661.945251,271.845459 
	C662.179077,283.268494 662.179077,294.504242 662.179077,305.903107 
	C665.394043,305.704102 665.908630,303.631500 666.903442,302.306000 
	C675.494385,290.859528 684.052429,279.386658 692.447510,267.796478 
	C694.190735,265.389801 695.975464,264.327637 699.007202,264.388977 
	C708.610779,264.583282 718.220764,264.460754 728.965515,264.460754 
	C723.477661,271.763916 718.654602,278.213013 713.798401,284.637054 
	C707.976868,292.338196 702.222717,300.093597 696.234375,307.663300 
	C694.324768,310.077148 694.077576,311.776367 695.791077,314.548889 
	C706.366760,331.660858 716.699280,348.923096 727.110962,366.136414 
	C727.792725,367.263611 728.460388,368.399414 729.093140,369.461578 
	C728.125977,371.218506 726.623718,370.495209 725.440125,370.503387 
	C715.777588,370.570190 706.110901,370.394653 696.453430,370.625458 
	C693.193848,370.703339 691.421997,369.721954 689.810791,366.828766 
	C683.510437,355.515228 676.897400,344.375793 670.132629,332.709564 
	C665.909119,337.279846 661.703979,341.083160 662.416199,348.039124 
	C663.023926,353.974426 662.377930,360.027618 662.601562,366.016907 
	C662.724609,369.313354 662.036438,370.781281 658.293030,370.631500 
	C650.474854,370.318634 642.637146,370.494507 634.425598,370.324890 
	C631.416748,369.204529 630.426697,367.516418 630.439270,364.533020 
	C630.564697,334.735962 630.469849,304.937927 630.580872,275.140747 
	C630.592896,271.921143 630.238464,268.458435 632.695679,265.191589 
	C634.070740,264.731323 635.129578,264.640350 636.567993,264.685516 
	C638.364319,266.121368 640.015076,265.382996 641.812866,265.088135 
	C646.382141,264.731140 650.722778,264.639862 655.507935,264.685608 
	C656.715637,265.793335 657.685059,265.561951 658.851685,265.054932 
z"/>
<path fill="#1F2B56" opacity="1.000000" stroke="none" 
	d="
M217.990601,370.550537 
	C213.000351,370.549469 208.486389,370.278900 204.021072,370.629059 
	C200.148727,370.932709 199.349136,369.514282 199.367493,365.858765 
	C199.515442,336.406464 199.421616,306.953033 199.483917,277.500092 
	C199.492645,273.375153 197.692307,268.025452 200.182724,265.436310 
	C202.912964,262.597809 208.367172,264.628632 212.625809,264.487915 
	C217.944748,264.312195 223.276276,264.540802 228.597900,264.411194 
	C231.018158,264.352264 232.143173,264.838043 232.135605,267.649109 
	C232.046021,300.929138 232.055725,334.209564 232.123688,367.489716 
	C232.128647,369.920868 231.333054,370.701538 228.969345,370.595856 
	C225.481873,370.439911 221.982376,370.552399 217.990601,370.550537 
z"/>
<path fill="#F26A1D" opacity="1.000000" stroke="none" 
	d="
M183.027267,133.050766 
	C191.371384,125.701256 200.976624,125.229790 208.531708,131.542343 
	C215.002090,136.948563 216.726913,147.263275 212.399796,154.673889 
	C206.938004,164.027725 194.852524,166.831879 186.090454,160.778351 
	C176.874756,154.411423 175.469147,142.738312 183.027267,133.050766 
z"/>
<path fill="#F26A1C" opacity="1.000000" stroke="none" 
	d="
M85.007263,282.983459 
	C76.773369,290.157562 67.633369,290.889374 60.295704,285.216827 
	C53.365932,279.859589 51.203640,270.441528 55.049004,262.364258 
	C59.355087,253.319244 70.588631,249.489960 79.647934,253.978958 
	C88.887978,258.557495 92.651543,270.025635 87.821114,279.058594 
	C87.124130,280.361938 86.112000,281.496826 85.007263,282.983459 
z"/>
<path fill="#F2691C" opacity="1.000000" stroke="none" 
	d="
M196.104584,468.573242 
	C206.552414,469.724579 212.717682,474.914490 214.515198,483.710114 
	C216.011276,491.030731 212.345047,499.035339 205.726852,502.897858 
	C199.511215,506.525482 190.742264,506.222229 185.463272,501.888184 
	C179.275757,496.808258 176.683350,490.330811 178.695938,482.332336 
	C180.516876,475.095459 186.190399,470.001831 193.727554,468.860809 
	C194.386429,468.761047 195.049377,468.688080 196.104584,468.573242 
z"/>
<path fill="#F26A1C" opacity="1.000000" stroke="none" 
	d="
M76.627823,379.712555 
	C65.551369,381.800842 56.873367,376.908295 53.944336,367.257507 
	C51.291447,358.516602 55.567440,349.086243 63.930737,345.233337 
	C73.260231,340.935333 84.732933,345.375519 88.521553,354.750519 
	C92.666130,365.006409 87.519089,376.102295 76.627823,379.712555 
z"/>
<path fill="#F2691C" opacity="1.000000" stroke="none" 
	d="
M118.769791,422.895721 
	C128.874344,424.622498 135.443512,431.721466 135.701782,440.739685 
	C135.938263,448.997772 129.980301,456.986237 122.119598,458.950684 
	C113.017502,461.225372 104.578651,457.290283 100.546989,448.891174 
	C94.616280,436.535858 103.799339,423.108490 118.769791,422.895721 
z"/>
<path fill="#F26A1C" opacity="1.000000" stroke="none" 
	d="
M291.245483,127.533066 
	C302.659882,130.751648 308.318085,140.065674 305.499481,150.415863 
	C302.767090,160.449493 292.736664,165.948563 282.392731,163.083939 
	C273.516876,160.625854 267.978241,151.342453 269.835815,142.037064 
	C271.833740,132.028534 280.046600,126.325157 291.245483,127.533066 
z"/>
<path fill="#F2691C" opacity="1.000000" stroke="none" 
	d="
M120.460266,173.153076 
	C130.431763,176.132492 136.171555,183.402512 135.677368,191.948868 
	C135.161011,200.878876 128.921738,207.773605 119.960831,209.316513 
	C109.881958,211.051895 100.011528,203.594528 99.000229,193.480240 
	C97.924591,182.722641 105.634361,173.460205 116.053879,173.025574 
	C117.379471,172.970291 118.711594,173.071289 120.460266,173.153076 
z"/>
<path fill="#F2691B" opacity="1.000000" stroke="none" 
	d="
M271.787750,496.005676 
	C267.968201,487.754761 268.649475,480.373779 274.927094,474.093658 
	C280.513458,468.505066 287.319794,467.096893 294.697540,469.965485 
	C302.272919,472.910889 306.459686,479.844452 306.103516,488.135101 
	C305.792023,495.385559 300.721252,502.215820 294.045959,504.376434 
	C286.181610,506.921906 278.463104,504.692505 273.386292,498.387726 
	C272.866058,497.741730 272.443970,497.016693 271.787750,496.005676 
z"/>
<path fill="#F2691C" opacity="1.000000" stroke="none" 
	d="
M384.778015,186.389191 
	C388.009674,201.654953 374.964478,211.764587 363.551086,209.237198 
	C355.255554,207.400238 349.230469,200.908203 348.813629,192.715576 
	C348.341156,183.430557 353.611572,175.876877 362.190399,173.543732 
	C370.369141,171.319397 378.921509,174.927551 383.041077,182.384918 
	C383.680756,183.542908 384.137848,184.801727 384.778015,186.389191 
z"/>
<path fill="#F2691C" opacity="1.000000" stroke="none" 
	d="
M384.342865,435.110443 
	C386.509888,443.656708 384.817139,450.739868 377.958405,455.948303 
	C371.997314,460.475037 365.363037,460.799377 358.680878,457.649261 
	C352.069855,454.532684 348.156799,447.134979 348.782104,439.561554 
	C349.387512,432.228577 354.284180,426.107300 361.384705,423.807159 
	C368.583984,421.475006 376.430542,423.721497 381.143677,429.629364 
	C382.368530,431.164734 383.196838,433.016449 384.342865,435.110443 
z"/>
<path fill="#EF6C21" opacity="1.000000" stroke="none" 
	d="
M139.324753,354.287048 
	C132.962814,359.339233 127.932747,359.757751 122.794342,355.914978 
	C118.622147,352.794769 117.087616,346.755432 119.149513,341.570251 
	C121.705490,335.142548 128.375809,332.553925 135.253525,335.320587 
	C141.141418,337.689087 144.030670,344.625580 141.542953,350.587860 
	C141.039902,351.793518 140.238937,352.874878 139.324753,354.287048 
z"/>
<path fill="#EF6C21" opacity="1.000000" stroke="none" 
	d="
M155.517578,223.260162 
	C162.019745,221.518204 167.015457,222.941330 170.104111,227.154739 
	C173.143433,231.300827 173.098495,237.230713 169.994827,241.572861 
	C167.108521,245.610931 162.226639,247.365112 157.259766,246.148956 
	C152.643829,245.018707 149.052139,240.953751 148.263245,235.966965 
	C147.455734,230.862473 149.792099,226.615814 155.517578,223.260162 
z"/>
<path fill="#EF6B21" opacity="1.000000" stroke="none" 
	d="
M327.855621,222.958664 
	C334.110626,225.920135 336.772705,230.387024 335.963104,236.020370 
	C335.232788,241.101791 331.367279,245.245148 326.446289,246.221191 
	C321.095551,247.282486 316.004272,244.953705 313.414642,240.260483 
	C310.849762,235.612137 311.461975,229.853989 315.217285,226.004547 
	C318.599670,222.537369 322.748627,221.405823 327.855621,222.958664 
z"/>
<path fill="#EE6C21" opacity="1.000000" stroke="none" 
	d="
M153.687744,408.424683 
	C148.175735,403.333160 146.827240,398.442108 149.237701,393.166077 
	C151.191605,388.889343 156.300278,385.861969 160.960770,386.219055 
	C167.981491,386.756958 172.973389,392.539764 172.315781,399.373169 
	C171.663605,406.150146 165.634064,410.965607 158.693649,410.092865 
	C157.089706,409.891174 155.555359,409.135895 153.687744,408.424683 
z"/>
<path fill="#EE6C21" opacity="1.000000" stroke="none" 
	d="
M335.021606,393.326721 
	C337.055878,400.653687 335.063965,406.069244 329.533997,408.991852 
	C324.517242,411.643219 317.867249,410.121399 314.324310,405.511200 
	C310.898956,401.054016 311.089661,394.683411 314.820160,390.358643 
	C320.581390,383.679565 331.876617,385.615173 335.021606,393.326721 
z"/>
<path fill="#EE6C21" opacity="1.000000" stroke="none" 
	d="
M282.422668,421.891113 
	C285.763000,430.399017 283.003418,437.440125 275.807007,439.623688 
	C268.774933,441.757385 262.264191,438.127167 260.372131,431.017609 
	C259.048920,426.045624 261.780151,419.814697 266.336517,417.410645 
	C271.699005,414.581268 277.139313,416.003815 282.422668,421.891113 
z"/>
<path fill="#EF6B21" opacity="1.000000" stroke="none" 
	d="
M210.461517,192.463928 
	C217.988068,192.659286 222.529205,195.850418 223.900192,201.557678 
	C225.173553,206.858475 222.583221,212.662766 217.830139,215.041763 
	C213.231644,217.343414 208.756180,216.906845 204.731110,213.847855 
	C201.010727,211.020386 199.391022,207.009247 200.274490,202.419830 
	C201.302750,197.078323 204.479187,193.522598 210.461517,192.463928 
z"/>
<path fill="#EE6C21" opacity="1.000000" stroke="none" 
	d="
M210.278961,441.041565 
	C202.823837,439.149323 199.691177,434.302856 201.016754,427.316925 
	C201.958023,422.356354 207.268188,418.556610 212.530441,419.078156 
	C218.404327,419.660339 223.107895,424.962158 222.743835,430.590576 
	C222.325378,437.060059 217.850327,440.953369 210.278961,441.041565 
z"/>
<path fill="#EE6C21" opacity="1.000000" stroke="none" 
	d="
M129.745804,274.899536 
	C137.535065,276.862305 141.029617,283.056122 138.665298,289.994476 
	C136.822876,295.401245 129.736084,298.399597 124.264221,296.087372 
	C118.185326,293.518677 115.651878,286.084320 118.904739,280.259521 
	C121.182243,276.181244 124.896988,274.815430 129.745804,274.899536 
z"/>
<path fill="#EF6B21" opacity="1.000000" stroke="none" 
	d="
M278.029297,192.806351 
	C282.896393,196.056366 284.283569,200.376312 283.056030,205.540955 
	C282.038055,209.823837 279.059967,212.274933 274.862915,213.244522 
	C270.596191,214.230179 266.999512,212.961029 264.189911,209.638947 
	C261.034698,205.908234 260.809967,200.301666 263.550323,196.228668 
	C266.429871,191.948792 271.546478,190.647644 278.029297,192.806351 
z"/>
<path fill="#202742" opacity="1.000000" stroke="none" 
	d="
M632.561157,264.700745 
	C631.641357,270.289642 630.918030,275.791260 630.945618,281.478180 
	C631.077759,308.703156 631.017761,335.929138 630.983704,363.154694 
	C630.980530,365.708771 630.843567,368.195618 633.838928,369.856323 
	C631.116760,371.080170 629.923462,370.308228 629.933777,366.949432 
	C630.035156,333.979950 629.986389,301.010071 630.016296,268.040314 
	C630.017639,266.568573 629.255493,264.418030 632.561157,264.700745 
z"/>
<path fill="#202742" opacity="1.000000" stroke="none" 
	d="
M641.629578,264.695435 
	C640.685425,266.540771 639.062683,266.199036 637.165771,265.123596 
	C638.370972,264.737244 639.794312,264.652832 641.629578,264.695435 
z"/>
<path fill="#202742" opacity="1.000000" stroke="none" 
	d="
M662.306458,271.658630 
	C660.974243,271.334381 660.768127,270.430115 661.899963,269.132019 
	C662.266113,269.731934 662.349976,270.508209 662.306458,271.658630 
z"/>
<path fill="#202742" opacity="1.000000" stroke="none" 
	d="
M658.665527,264.696930 
	C658.339539,266.023895 657.433472,266.235626 656.130493,265.104431 
	C656.731384,264.738800 657.510437,264.654968 658.665527,264.696930 
z"/>
<path fill="#202742" opacity="1.000000" stroke="none" 
	d="
M662.203308,265.667786 
	C661.864502,265.811066 661.543518,265.586090 661.090210,265.093689 
	C661.379028,264.984070 661.800049,265.141815 662.203308,265.667786 
z"/>
<path fill="#FBFCFC" opacity="1.000000" stroke="none" 
	d="
M481.135437,305.987732 
	C482.167542,314.707581 482.286560,323.007294 480.934448,331.252808 
	C479.183075,341.933441 472.642303,347.272583 462.886444,346.261383 
	C455.807983,345.527679 450.742462,340.550018 449.276581,331.867767 
	C447.692505,322.485107 447.707855,312.958984 449.216888,303.565857 
	C450.713959,294.246918 456.959717,288.851074 465.289673,288.917297 
	C474.009308,288.986572 479.352844,294.617981 481.135437,305.987732 
z"/>
</svg>